<svg width="219" height="42" viewBox="0 0 219 42" fill="none" xmlns="http://www.w3.org/2000/svg">
<g filter="url(#filter0_i_129_497)">
<rect width="7.55172" height="41.1083" fill="white"/>
<rect x="7.55176" width="7.55172" height="41.1083" fill="white"/>
<rect x="15.1034" width="7.55172" height="41.1083" fill="white"/>
<rect x="22.6552" width="7.55172" height="41.1083" fill="white"/>
<rect x="30.2069" width="7.55172" height="41.1083" fill="white"/>
<rect x="37.7587" width="7.55172" height="41.1083" fill="white"/>
<rect x="45.3103" width="7.55172" height="41.1083" fill="white"/>
<rect x="52.8621" width="7.55172" height="41.1083" fill="white"/>
<rect x="60.4138" width="7.55172" height="41.1083" fill="white"/>
<rect x="67.9655" width="7.55172" height="41.1083" fill="white"/>
<rect x="75.5172" width="7.55172" height="41.1083" fill="white"/>
<rect x="83.069" width="7.55172" height="41.1083" fill="white"/>
<rect x="90.6207" width="7.55172" height="41.1083" fill="white"/>
<rect x="98.1724" width="7.55172" height="41.1083" fill="white"/>
<rect x="105.724" width="7.55172" height="41.1083" fill="white"/>
<rect x="113.276" width="7.55172" height="41.1083" fill="white"/>
<rect x="120.828" width="7.55172" height="41.1083" fill="white"/>
<rect x="128.379" width="7.55172" height="41.1083" fill="white"/>
<rect x="135.931" width="7.55172" height="41.1083" fill="white"/>
<rect x="143.483" width="7.55172" height="41.1083" fill="white"/>
<rect x="151.034" width="7.55172" height="41.1083" fill="white"/>
<rect x="158.586" width="7.55172" height="41.1083" fill="white"/>
<rect x="166.138" width="7.55172" height="41.1083" fill="white"/>
<rect x="173.69" width="7.55172" height="41.1083" fill="white"/>
<rect x="181.241" width="7.55172" height="41.1083" fill="white"/>
<rect x="188.793" width="7.55172" height="41.1083" fill="white"/>
<rect x="196.345" width="7.55172" height="41.1083" fill="white"/>
<rect x="203.897" width="7.55172" height="41.1083" fill="white"/>
<rect x="211.448" width="7.55172" height="41.1083" fill="white"/>
</g>
<defs>
<filter id="filter0_i_129_497" x="0" y="0" width="219" height="41.1082" filterUnits="userSpaceOnUse" color-interpolation-filters="sRGB">
<feFlood flood-opacity="0" result="BackgroundImageFix"/>
<feBlend mode="normal" in="SourceGraphic" in2="BackgroundImageFix" result="shape"/>
<feColorMatrix in="SourceAlpha" type="matrix" values="0 0 0 0 0 0 0 0 0 0 0 0 0 0 0 0 0 0 127 0" result="hardAlpha"/>
<feOffset dy="1.02528"/>
<feComposite in2="hardAlpha" operator="arithmetic" k2="-1" k3="1"/>
<feColorMatrix type="matrix" values="0 0 0 0 0 0 0 0 0 0 0 0 0 0 0 0 0 0 0.1 0"/>
<feBlend mode="normal" in2="shape" result="effect1_innerShadow_129_497"/>
</filter>
</defs>
</svg>
