<svg width="162" height="247" viewBox="0 0 162 247" fill="none" xmlns="http://www.w3.org/2000/svg">
<path d="M65.6711 241.189H42.4802C42.3199 241.189 42.1662 241.128 42.0528 241.02C41.9395 240.911 41.8759 240.764 41.8759 240.611C41.8759 240.457 41.9395 240.31 42.0528 240.201C42.1662 240.093 42.3199 240.032 42.4802 240.032H65.6711C65.8313 240.032 65.985 240.093 66.0984 240.201C66.2117 240.31 66.2754 240.457 66.2754 240.611C66.2754 240.764 66.2117 240.911 66.0984 241.02C65.985 241.128 65.8313 241.189 65.6711 241.189Z" fill="#262424"/>
<path d="M126.286 241.189H75.5593C75.399 241.189 75.2453 241.128 75.1319 241.02C75.0186 240.911 74.955 240.764 74.955 240.611C74.955 240.457 75.0186 240.31 75.1319 240.201C75.2453 240.093 75.399 240.032 75.5593 240.032H126.286C126.446 240.032 126.6 240.093 126.713 240.201C126.827 240.31 126.89 240.457 126.89 240.611C126.89 240.764 126.827 240.911 126.713 241.02C126.6 241.128 126.446 241.189 126.286 241.189Z" fill="#262424"/>
<path d="M161.396 241.189H132.631C132.471 241.189 132.317 241.128 132.204 241.02C132.091 240.911 132.027 240.764 132.027 240.611C132.027 240.457 132.091 240.31 132.204 240.201C132.317 240.093 132.471 240.032 132.631 240.032H161.396C161.556 240.032 161.71 240.093 161.823 240.201C161.936 240.31 162 240.457 162 240.611C162 240.764 161.936 240.911 161.823 241.02C161.71 241.128 161.556 241.189 161.396 241.189Z" fill="#262424"/>
<path d="M127.849 247H82.837C82.6768 247 82.523 246.939 82.4097 246.83C82.2964 246.722 82.2327 246.575 82.2327 246.421C82.2327 246.268 82.2964 246.121 82.4097 246.012C82.523 245.903 82.6768 245.842 82.837 245.842H127.859C128.019 245.844 128.173 245.906 128.285 246.015C128.397 246.125 128.46 246.273 128.458 246.426C128.457 246.58 128.392 246.726 128.278 246.834C128.164 246.942 128.009 247.001 127.849 247Z" fill="#262424"/>
<path d="M72.7654 247H59.2695C59.1092 247 58.9555 246.939 58.8422 246.83C58.7288 246.722 58.6652 246.575 58.6652 246.421C58.6652 246.268 58.7288 246.121 58.8422 246.012C58.9555 245.903 59.1092 245.842 59.2695 245.842H72.7654C72.9257 245.842 73.0794 245.903 73.1927 246.012C73.3061 246.121 73.3697 246.268 73.3697 246.421C73.3697 246.575 73.3061 246.722 73.1927 246.83C73.0794 246.939 72.9257 247 72.7654 247Z" fill="#262424"/>
<path d="M146.461 247H140.684C140.524 247 140.37 246.939 140.257 246.83C140.144 246.722 140.08 246.575 140.08 246.421C140.08 246.268 140.144 246.121 140.257 246.012C140.37 245.903 140.524 245.842 140.684 245.842H146.461C146.622 245.842 146.775 245.903 146.889 246.012C147.002 246.121 147.066 246.268 147.066 246.421C147.066 246.575 147.002 246.722 146.889 246.83C146.775 246.939 146.622 247 146.461 247Z" fill="#262424"/>
<path d="M43.1166 223.962C42.0611 224.82 39.8433 225.559 37.1099 225.698C35.5083 225.777 33.9031 225.647 32.3379 225.312C28.6215 224.514 24.6634 222.465 21.5754 218.327C14.5253 208.874 5.57764 207.3 5.57764 207.3C5.57764 207.3 12.0718 201.769 21.3981 201.076C25.286 200.79 29.1892 201.396 32.7831 202.845C32.8818 202.884 32.9845 202.923 33.0732 202.963C47.7153 208.98 43.1166 223.962 43.1166 223.962Z" fill="#DE9244"/>
<path d="M37.1119 225.69C35.5103 225.769 33.9051 225.639 32.3399 225.305C29.3366 222.064 26.5689 217.623 27.6244 212.89C29.0606 206.461 24.4962 202.759 21.4042 201.071C25.2921 200.784 29.1952 201.391 32.7891 202.84C32.8878 202.878 32.9906 202.917 33.0792 202.957C35.0109 205.673 34.9364 209.568 32.7468 213.855C30.3297 218.576 34.0904 223.063 37.1119 225.69Z" fill="white"/>
<path d="M47.524 204.842C45.6546 203.122 43.9832 201.216 42.5385 199.155C41.3651 197.478 40.4481 195.65 39.8151 193.724C37.7887 187.358 40.0851 181.721 43.7451 176.734C49.4134 169.018 54.842 159.725 54.842 159.725C54.842 159.725 60.045 167.129 62.0895 177.38C62.2856 178.364 62.4501 179.374 62.583 180.409C62.6616 181.025 62.724 181.644 62.7845 182.275C63.9407 197.096 47.524 204.842 47.524 204.842Z" fill="#DE9244"/>
<path d="M62.575 180.417C59.2655 180.311 54.6084 181.484 54.0746 188.755C53.422 197.629 46.9318 199.514 42.5386 199.153C41.3652 197.476 40.4481 195.648 39.8152 193.722C41.9584 194.232 48.0739 194.857 50.0459 186.141C51.9213 177.888 57.8112 176.609 62.0896 177.38C62.2803 178.371 62.4421 179.383 62.575 180.417Z" fill="white"/>
<path d="M45.5096 181.92C41.5334 184.31 41.7086 189.617 45.5096 187.47C49.3107 185.323 49.1193 179.748 45.5096 181.92Z" fill="white"/>
<path d="M79.8982 215.518C79.0964 217.491 77.843 219.266 76.2301 220.713C74.1232 222.631 71.5791 223.95 69.1619 224.859C66.4236 225.874 63.5524 226.523 60.6292 226.788C60.6292 226.788 51.8951 220.756 57.2713 209.295C58.8083 206.015 61.3141 203.247 64.12 200.957C66.0893 199.364 68.2041 197.943 70.439 196.713C73.4448 195.027 76.6157 193.626 79.9063 192.532C79.9063 192.532 84.0457 205.203 79.8982 215.518Z" fill="#DE9244"/>
<path d="M76.077 200.993C72.272 201.811 74.6871 210.639 77.3964 210.149C80.1057 209.659 79.0099 200.361 76.077 200.993Z" fill="white"/>
<path d="M76.2301 220.713C74.1231 222.631 71.579 223.95 69.1618 224.859C70.4248 221.182 70.7128 216.735 65.667 214.895C59.9281 212.798 61.8256 205.917 64.1119 200.966C66.0811 199.373 68.196 197.953 70.4308 196.722C67.4678 202.452 67.224 209.262 73.2247 213.359C76.0448 215.281 76.6168 218.03 76.2301 220.713Z" fill="white"/>
<path d="M58.6088 240.611H55.7545C55.7545 240.611 59.1144 218.715 73.2207 203.515C73.2207 203.515 62.011 219.077 58.6088 240.611Z" fill="white"/>
<path d="M58.6088 241.189H55.7545C55.6671 241.19 55.5806 241.173 55.5008 241.139C55.421 241.105 55.35 241.054 55.2925 240.991C55.2351 240.928 55.1926 240.854 55.168 240.773C55.1435 240.693 55.1374 240.609 55.1502 240.526C55.1502 240.47 56.0285 234.916 58.6189 227.577C61.0119 220.798 65.4092 211.054 72.7635 203.129C72.8657 203.019 73.008 202.95 73.1615 202.936C73.315 202.923 73.4679 202.966 73.5891 203.058C73.7102 203.149 73.7905 203.281 73.8134 203.427C73.8362 203.573 73.8001 203.722 73.7122 203.843C73.6014 203.997 62.5388 219.554 59.2091 240.69C59.1891 240.828 59.1172 240.956 59.0069 241.047C58.8965 241.139 58.7551 241.19 58.6088 241.189ZM56.4676 240.032H58.0911C60.0531 228.087 64.4242 217.937 67.8828 211.336C59.898 223.487 57.0538 236.928 56.4696 240.032H56.4676Z" fill="#262424"/>
<path d="M54.0746 240.611H50.5475C50.5475 240.611 44.7523 218.948 21.5754 207.973C21.5754 207.975 42.9897 212.563 54.0746 240.611Z" fill="white"/>
<path d="M54.0744 241.189H50.5473C50.4132 241.19 50.2827 241.147 50.1766 241.068C50.0705 240.99 49.9947 240.88 49.9611 240.755C49.947 240.701 48.4726 235.315 44.2143 228.675C40.2924 222.559 33.1355 214.094 21.3074 208.494C21.1732 208.432 21.0676 208.325 21.011 208.193C20.9544 208.061 20.9507 207.913 21.0007 207.779C21.0506 207.644 21.1507 207.532 21.2817 207.464C21.4127 207.396 21.5653 207.377 21.7103 207.41C21.9339 207.458 27.2617 208.637 34.0238 213.305C40.24 217.598 48.8633 225.783 54.6424 240.406C54.6771 240.494 54.6889 240.588 54.6769 240.682C54.6648 240.775 54.6294 240.864 54.5734 240.941C54.5175 241.018 54.4429 241.081 54.356 241.124C54.269 241.167 54.1724 241.19 54.0744 241.189ZM51.0066 240.032H53.1941C47.5279 226.169 39.2852 218.365 33.3148 214.243C32.074 213.386 30.8795 212.649 29.7575 212.019C35.9829 216.35 41.2539 221.816 45.2678 228.104C48.96 233.872 50.5695 238.604 51.0106 240.032H51.0066Z" fill="#262424"/>
<path d="M52.8981 173.962C52.8981 173.962 37.7907 209.073 54.0745 240.611H57.2652C57.2652 240.611 40.8061 215.547 52.8981 173.962Z" fill="white"/>
<path d="M57.2653 241.189H54.0746C53.9619 241.189 53.8514 241.159 53.7557 241.102C53.6599 241.045 53.5827 240.964 53.5327 240.867C49.7861 233.61 47.391 225.563 46.4161 216.946C45.6386 210.064 45.7594 202.807 46.7767 195.376C48.509 182.728 52.3 173.825 52.3382 173.736C52.3978 173.601 52.5087 173.493 52.6486 173.433C52.7886 173.373 52.947 173.366 53.0919 173.414C53.2368 173.462 53.3573 173.56 53.4291 173.69C53.5008 173.82 53.5184 173.971 53.4783 174.112C47.2742 195.449 48.7729 212.31 51.1216 222.693C53.6677 233.945 57.7346 240.236 57.7688 240.298C57.8272 240.385 57.8601 240.486 57.8641 240.589C57.8681 240.693 57.8431 240.795 57.7917 240.886C57.7403 240.977 57.6643 241.053 57.5717 241.107C57.4791 241.16 57.3733 241.189 57.2653 241.189ZM54.4452 240.032H56.2118C55.0032 237.921 52.02 232.122 49.9492 223.003C48.4051 216.072 47.7068 208.993 47.8684 201.908C47.9403 198.347 48.2025 194.792 48.654 191.257C48.4022 192.634 48.1706 194.072 47.9651 195.563C46.4101 207.005 46.2751 223.974 54.4513 240.032H54.4452Z" fill="#262424"/>
<path d="M90.0282 205.529L90.2034 216.342L95.6562 218.311L97.0119 205.529H90.0282Z" fill="white"/>
<path d="M95.6563 218.89C95.5834 218.89 95.5111 218.878 95.4428 218.854L89.99 216.884C89.8767 216.843 89.7788 216.77 89.7091 216.675C89.6394 216.58 89.6011 216.467 89.5993 216.351L89.424 205.548C89.424 205.395 89.4877 205.247 89.601 205.139C89.7143 205.03 89.868 204.969 90.0283 204.969H97.012C97.0967 204.969 97.1805 204.986 97.2581 205.018C97.3356 205.051 97.4052 205.099 97.4621 205.159C97.5191 205.219 97.5623 205.29 97.5888 205.367C97.6154 205.444 97.6247 205.525 97.6163 205.606L96.2606 218.389C96.241 218.528 96.1688 218.656 96.0575 218.749C95.9462 218.841 95.8036 218.891 95.6563 218.89ZM90.7998 215.939L95.1326 217.505L96.3412 206.108H90.6427L90.7998 215.939Z" fill="#262424"/>
<path d="M85.1615 116.514L87.1899 206.991L100.686 207.956C100.686 207.956 109.497 137.375 110.214 134.216C110.931 131.056 111.1 123.939 110.431 116.787C109.164 103.262 85.1615 100.708 85.1615 116.514Z" fill="#88C0C2"/>
<path d="M98.7502 203.409H98.6878C98.6088 203.401 98.5322 203.378 98.4623 203.342C98.3924 203.306 98.3307 203.257 98.2805 203.198C98.2304 203.139 98.1929 203.072 98.1701 202.999C98.1474 202.926 98.1398 202.85 98.1479 202.774C98.2003 202.282 103.385 153.472 106.382 136.218C106.409 136.067 106.498 135.931 106.628 135.842C106.759 135.753 106.921 135.718 107.079 135.743C107.238 135.769 107.379 135.854 107.472 135.979C107.564 136.104 107.602 136.259 107.575 136.411C104.592 153.625 99.4028 202.398 99.3545 202.89C99.339 203.033 99.2686 203.165 99.1569 203.261C99.0452 203.357 98.9002 203.409 98.7502 203.409Z" fill="#262424"/>
<path d="M99.4332 168.067C99.5176 164.029 96.9877 160.706 93.7826 160.645C90.5776 160.583 87.911 163.807 87.8267 167.845C87.7424 171.883 90.2722 175.206 93.4773 175.268C96.6823 175.329 99.3489 172.105 99.4332 168.067Z" fill="white"/>
<path d="M99.9588 205.878H99.9064L88.8075 204.962C88.6472 204.948 88.499 204.875 88.3955 204.757C88.292 204.639 88.2417 204.486 88.2556 204.333C88.2695 204.179 88.3464 204.037 88.4696 203.938C88.5927 203.839 88.752 203.791 88.9122 203.804L100.011 204.72C100.171 204.727 100.322 204.794 100.431 204.908C100.539 205.021 100.596 205.171 100.589 205.324C100.582 205.478 100.512 205.622 100.394 205.726C100.276 205.83 100.119 205.885 99.9588 205.878Z" fill="#262424"/>
<path d="M77.3984 238.068V240.611H97.6141C97.6141 240.611 97.6806 239.283 97.743 237.051C97.87 232.661 97.9908 224.763 97.6141 216.602L88.0401 215.516C88.0401 215.516 85.647 224.469 80.718 231.443C80.2063 232.167 79.6665 232.871 79.1065 233.54C78.0107 234.817 77.4074 236.416 77.3984 238.068Z" fill="#88C0C2"/>
<path d="M87.9776 231.538C87.874 231.538 87.7722 231.512 87.6818 231.464C87.5915 231.415 87.5157 231.345 87.4617 231.261C87.4077 231.176 87.3773 231.08 87.3735 230.98C87.3696 230.881 87.3924 230.783 87.4397 230.695C90.9588 224.136 92.9147 216.894 92.9348 216.822C92.9528 216.747 92.9864 216.676 93.0336 216.613C93.0807 216.55 93.1405 216.497 93.2094 216.457C93.2783 216.417 93.3549 216.39 93.4347 216.379C93.5145 216.368 93.5958 216.372 93.674 216.391C93.7521 216.41 93.8254 216.444 93.8896 216.491C93.9538 216.538 94.0076 216.596 94.0478 216.663C94.088 216.73 94.1138 216.804 94.1236 216.881C94.1335 216.957 94.1272 217.035 94.1051 217.11C94.085 217.183 92.0908 224.548 88.5154 231.225C88.4643 231.32 88.3871 231.399 88.2923 231.454C88.1974 231.509 88.0885 231.538 87.9776 231.538Z" fill="#262424"/>
<path d="M94.4133 232.076C95.4046 232.076 96.2081 230.685 96.2081 228.97C96.2081 227.255 95.4046 225.864 94.4133 225.864C93.4221 225.864 92.6186 227.255 92.6186 228.97C92.6186 230.685 93.4221 232.076 94.4133 232.076Z" fill="white"/>
<path d="M94.4133 232.655C93.0677 232.655 92.0142 231.036 92.0142 228.97C92.0142 226.904 93.0677 225.285 94.4133 225.285C95.7588 225.285 96.8123 226.904 96.8123 228.97C96.8123 231.036 95.7588 232.655 94.4133 232.655ZM94.4133 226.441C93.8634 226.441 93.2228 227.544 93.2228 228.968C93.2228 230.392 93.8634 231.495 94.4133 231.495C94.9632 231.495 95.6037 230.392 95.6037 228.968C95.6037 227.544 94.9632 226.441 94.4133 226.441Z" fill="#262424"/>
<path d="M77.3984 238.068V240.611H97.6141C97.6141 240.611 97.6806 239.283 97.743 237.051H88.4772C88.4772 237.051 88.1851 230.749 80.716 231.443C80.2043 232.167 79.6645 232.871 79.1045 233.54C78.0094 234.817 77.4069 236.416 77.3984 238.068Z" fill="white"/>
<path d="M97.6142 241.189H77.3985C77.2382 241.189 77.0845 241.128 76.9712 241.02C76.8579 240.911 76.7942 240.764 76.7942 240.611V238.068C76.8057 236.284 77.4556 234.558 78.6353 233.178C79.1651 232.552 79.6988 231.862 80.2206 231.121C80.2704 231.051 80.3357 230.992 80.412 230.949C80.4882 230.905 80.5735 230.879 80.6617 230.87C83.2058 230.635 85.2503 231.142 86.7429 232.381C88.3544 233.731 88.866 235.564 89.0211 236.474H97.7432C97.8239 236.474 97.9038 236.49 97.9782 236.52C98.0526 236.55 98.1199 236.594 98.1763 236.649C98.2326 236.705 98.2768 236.77 98.3062 236.842C98.3356 236.914 98.3496 236.991 98.3475 237.069C98.285 239.281 98.2185 240.626 98.2185 240.64C98.2108 240.788 98.1437 240.928 98.0312 241.03C97.9187 241.133 97.7694 241.19 97.6142 241.189ZM78.0008 240.032H97.0341C97.0543 239.532 97.0865 238.708 97.1207 237.63H88.4773C88.3214 237.63 88.1716 237.573 88.059 237.469C87.9464 237.366 87.8797 237.225 87.873 237.076C87.873 237.055 87.732 234.731 85.9352 233.245C84.7568 232.28 83.1151 231.85 81.0525 231.997C80.563 232.678 80.0634 233.32 79.5659 233.905C78.5605 235.079 78.006 236.548 77.9947 238.066V240.03L78.0008 240.032Z" fill="#262424"/>
<path d="M142.034 205.529L143.279 216.342L137.824 218.311L135.05 205.529H142.034Z" fill="white"/>
<path d="M137.828 218.89C137.689 218.89 137.554 218.845 137.446 218.761C137.339 218.677 137.264 218.56 137.236 218.429L134.462 205.647C134.444 205.562 134.446 205.475 134.467 205.392C134.488 205.308 134.529 205.23 134.585 205.163C134.642 205.097 134.714 205.043 134.795 205.006C134.876 204.969 134.965 204.95 135.054 204.95H142.038C142.188 204.949 142.332 205.001 142.444 205.097C142.555 205.192 142.626 205.323 142.642 205.465L143.885 216.268C143.9 216.396 143.87 216.524 143.8 216.634C143.73 216.743 143.624 216.827 143.499 216.872L138.03 218.857C137.965 218.879 137.897 218.89 137.828 218.89ZM135.796 206.108L138.275 217.53L142.628 215.958L141.496 206.108H135.796Z" fill="#262424"/>
<path d="M136.501 116.514L146.292 206.991L132.796 207.956C132.796 207.956 110.586 139.471 109.869 136.305C109.152 133.139 109.756 123.958 109.752 116.787C109.75 102.18 136.501 100.708 136.501 116.514Z" fill="#88C0C2"/>
<path d="M109.162 134.646C109.075 134.646 108.988 134.627 108.908 134.592L107.7 134.053C106.879 133.686 106.185 133.102 105.698 132.371C105.211 131.64 104.951 130.791 104.948 129.923V118.155C104.948 118.002 105.012 117.855 105.125 117.746C105.239 117.637 105.392 117.577 105.553 117.577C105.713 117.577 105.867 117.637 105.98 117.746C106.093 117.855 106.157 118.002 106.157 118.155V129.923C106.158 130.572 106.353 131.207 106.718 131.754C107.083 132.3 107.603 132.736 108.218 133.01L109.426 133.548C109.548 133.606 109.646 133.701 109.705 133.819C109.763 133.937 109.778 134.07 109.748 134.197C109.717 134.324 109.643 134.437 109.536 134.519C109.43 134.6 109.298 134.645 109.162 134.646Z" fill="#262424"/>
<path d="M109.523 135.529C109.362 135.529 109.209 135.468 109.095 135.36C108.982 135.251 108.918 135.104 108.918 134.951V117.82C108.918 117.666 108.982 117.519 109.095 117.41C109.209 117.302 109.362 117.241 109.523 117.241C109.683 117.241 109.837 117.302 109.95 117.41C110.063 117.519 110.127 117.666 110.127 117.82V134.951C110.127 135.104 110.063 135.251 109.95 135.36C109.837 135.468 109.683 135.529 109.523 135.529Z" fill="#262424"/>
<path d="M134.188 203.409C134.057 203.409 133.93 203.368 133.826 203.293C133.721 203.218 133.645 203.112 133.608 202.992C125.309 175.644 112.232 136.868 112.101 136.482C112.052 136.336 112.065 136.177 112.138 136.041C112.211 135.904 112.337 135.8 112.49 135.753C112.642 135.706 112.808 135.718 112.951 135.788C113.094 135.858 113.202 135.979 113.251 136.125C113.382 136.511 126.463 175.309 134.768 202.666C134.795 202.752 134.8 202.843 134.784 202.932C134.767 203.021 134.729 203.104 134.673 203.177C134.616 203.249 134.543 203.307 134.459 203.348C134.375 203.388 134.282 203.409 134.188 203.409Z" fill="#262424"/>
<path d="M133.114 175.211C136.312 175.014 138.685 171.587 138.413 167.557C138.142 163.528 135.329 160.421 132.131 160.619C128.932 160.816 126.56 164.243 126.831 168.273C127.102 172.302 129.915 175.409 133.114 175.211Z" fill="white"/>
<path d="M133.519 205.878C133.359 205.884 133.203 205.83 133.085 205.726C132.967 205.622 132.897 205.477 132.89 205.323C132.883 205.17 132.941 205.02 133.049 204.907C133.158 204.794 133.309 204.727 133.469 204.72L144.568 203.804C144.647 203.798 144.727 203.806 144.803 203.829C144.879 203.852 144.95 203.889 145.011 203.938C145.072 203.987 145.122 204.047 145.159 204.115C145.195 204.183 145.218 204.257 145.225 204.333C145.232 204.409 145.223 204.485 145.199 204.558C145.175 204.631 145.136 204.698 145.085 204.757C145.033 204.815 144.971 204.863 144.9 204.898C144.829 204.934 144.752 204.955 144.673 204.962L133.574 205.878H133.521H133.519Z" fill="#262424"/>
<path d="M156.086 238.068V240.611H135.868C135.868 240.611 135.802 239.283 135.739 237.051C135.612 232.661 135.492 224.763 135.868 216.602L145.442 215.516C145.442 215.516 147.835 224.469 152.764 231.443C153.276 232.167 153.816 232.871 154.376 233.54C155.472 234.816 156.076 236.415 156.086 238.068Z" fill="#88C0C2"/>
<path d="M145.505 231.538C145.393 231.538 145.284 231.508 145.19 231.453C145.095 231.397 145.018 231.318 144.967 231.223C141.387 224.546 139.395 217.183 139.377 217.108C139.342 216.961 139.368 216.806 139.45 216.677C139.532 216.548 139.663 216.455 139.816 216.418C139.969 216.38 140.131 216.401 140.267 216.476C140.404 216.552 140.504 216.675 140.547 216.82C140.568 216.893 142.525 224.137 146.043 230.695C146.09 230.783 146.113 230.881 146.109 230.98C146.105 231.08 146.075 231.176 146.021 231.261C145.967 231.345 145.891 231.415 145.8 231.464C145.71 231.512 145.608 231.538 145.505 231.538Z" fill="#262424"/>
<path d="M139.069 232.076C140.06 232.076 140.864 230.685 140.864 228.97C140.864 227.255 140.06 225.864 139.069 225.864C138.078 225.864 137.274 227.255 137.274 228.97C137.274 230.685 138.078 232.076 139.069 232.076Z" fill="white"/>
<path d="M139.069 232.655C137.723 232.655 136.67 231.036 136.67 228.97C136.67 226.904 137.723 225.285 139.069 225.285C140.414 225.285 141.468 226.904 141.468 228.97C141.468 231.036 140.414 232.655 139.069 232.655ZM139.069 226.441C138.583 226.441 137.878 227.425 137.878 228.968C137.878 230.511 138.583 231.495 139.069 231.495C139.619 231.495 140.259 230.392 140.259 228.968C140.259 227.544 139.619 226.441 139.069 226.441Z" fill="#262424"/>
<path d="M156.086 238.068V240.611H135.868C135.868 240.611 135.802 239.283 135.739 237.051H145.005C145.005 237.051 145.297 230.749 152.766 231.443C153.278 232.167 153.818 232.871 154.378 233.54C155.474 234.817 156.077 236.416 156.086 238.068Z" fill="white"/>
<path d="M156.086 241.189H135.868C135.713 241.19 135.563 241.132 135.45 241.03C135.338 240.927 135.271 240.786 135.264 240.638C135.264 240.624 135.197 239.287 135.135 237.067C135.133 236.989 135.147 236.913 135.176 236.841C135.206 236.769 135.25 236.703 135.306 236.647C135.362 236.592 135.43 236.548 135.504 236.518C135.579 236.488 135.658 236.473 135.739 236.473H144.463C144.616 235.564 145.12 233.727 146.739 232.379C148.23 231.14 150.277 230.631 152.821 230.868C152.909 230.877 152.994 230.903 153.07 230.947C153.147 230.99 153.212 231.049 153.262 231.119C153.784 231.858 154.317 232.551 154.847 233.176C156.027 234.556 156.677 236.282 156.688 238.066V240.609C156.688 240.685 156.673 240.76 156.643 240.83C156.613 240.901 156.569 240.965 156.513 241.018C156.457 241.072 156.39 241.115 156.317 241.145C156.244 241.174 156.165 241.189 156.086 241.189ZM136.448 240.032H155.482V238.068C155.471 236.55 154.916 235.081 153.91 233.907C153.413 233.328 152.915 232.68 152.426 231.999C150.363 231.854 148.722 232.273 147.543 233.247C145.746 234.732 145.605 237.057 145.605 237.08C145.598 237.229 145.531 237.369 145.419 237.472C145.306 237.575 145.157 237.632 145.001 237.632H136.362C136.394 238.708 136.418 239.532 136.446 240.032H136.448Z" fill="#262424"/>
<path d="M91.9478 53.8004C86.2613 56.2543 71.5427 93.1302 73.7725 100.127C76.0024 107.124 86.8314 104.95 89.9798 92.5264C93.1282 80.1026 103.117 48.9756 91.9478 53.8004Z" fill="#DE9244"/>
<path d="M138.555 57.2883V120.816C138.555 120.816 136.769 121.053 133.685 121.325V114.297C133.685 114.162 133.658 114.028 133.604 113.904C133.551 113.779 133.472 113.665 133.372 113.57C133.272 113.475 133.154 113.399 133.024 113.348C132.894 113.296 132.754 113.27 132.613 113.271C132.472 113.27 132.333 113.297 132.203 113.348C132.072 113.4 131.954 113.475 131.855 113.571C131.755 113.666 131.676 113.779 131.622 113.904C131.569 114.029 131.541 114.162 131.541 114.297V121.498C121.413 122.288 101.913 123.042 83.8019 119.423C83.8019 119.423 86.1124 68.1514 91.9459 53.7946C91.9459 53.7946 102.193 48.2001 113.95 48.4219C125.708 48.6438 138.555 57.2883 138.555 57.2883Z" fill="#DE9244"/>
<path d="M84.8192 103.335H84.7769C84.6977 103.33 84.6203 103.31 84.5491 103.276C84.478 103.243 84.4145 103.196 84.3623 103.138C84.3101 103.081 84.2702 103.014 84.2449 102.942C84.2197 102.87 84.2095 102.794 84.2149 102.718C85.345 87.1556 87.3512 66.4499 90.4855 56.1617C90.5304 56.0143 90.6346 55.8901 90.7751 55.8163C90.9156 55.7425 91.081 55.7252 91.2349 55.7681C91.3887 55.8111 91.5184 55.9109 91.5955 56.0455C91.6726 56.1801 91.6906 56.3384 91.6458 56.4858C88.5397 66.6718 86.5455 87.2925 85.4195 102.797C85.4088 102.943 85.341 103.079 85.2297 103.179C85.1184 103.279 84.9717 103.335 84.8192 103.335Z" fill="#262424"/>
<path d="M115.999 119.685C106.011 119.659 96.0351 119.044 86.1264 117.845C86.0509 117.835 85.9782 117.81 85.9125 117.773C85.8467 117.736 85.7893 117.687 85.7434 117.629C85.6974 117.57 85.664 117.504 85.6448 117.433C85.6257 117.363 85.6213 117.289 85.6319 117.217C85.6425 117.144 85.6678 117.075 85.7065 117.012C85.7452 116.949 85.7964 116.894 85.8573 116.85C85.9182 116.806 85.9875 116.774 86.0614 116.756C86.1352 116.737 86.212 116.733 86.2876 116.743C86.5051 116.772 108.308 119.65 128.79 118.13C128.867 118.122 128.945 118.129 129.019 118.151C129.094 118.172 129.163 118.208 129.222 118.255C129.282 118.303 129.331 118.361 129.367 118.427C129.403 118.493 129.424 118.565 129.43 118.639C129.436 118.713 129.427 118.788 129.402 118.858C129.378 118.929 129.339 118.994 129.287 119.05C129.236 119.105 129.174 119.151 129.104 119.183C129.034 119.215 128.958 119.234 128.88 119.238C124.572 119.56 120.207 119.685 115.999 119.685Z" fill="#262424"/>
<path d="M122.656 51.6803C122.063 53.0158 121.171 54.2102 120.043 55.1793C118.915 56.1483 117.578 56.8683 116.128 57.2883C115.64 54.7303 114.301 51.5124 114.301 51.5124C112.81 53.4763 112.023 56.073 111.829 57.2594C107.005 55.99 106.455 51.5472 106.455 51.5472C107.043 47.0966 111.042 43.7456 114.47 43.8575C122.05 44.1045 122.656 51.6803 122.656 51.6803Z" fill="white"/>
<path d="M116.128 57.8671C115.985 57.8693 115.845 57.8228 115.735 57.7359C115.624 57.649 115.549 57.5273 115.523 57.3925C115.185 55.8299 114.724 54.2938 114.146 52.7972C113.313 54.2141 112.729 55.7521 112.415 57.35C112.402 57.4306 112.371 57.5076 112.325 57.576C112.279 57.6444 112.218 57.7026 112.146 57.7469C112.075 57.7912 111.994 57.8204 111.91 57.8328C111.826 57.8452 111.74 57.8405 111.658 57.8188C106.501 56.4684 105.869 51.8153 105.845 51.6185C105.839 51.5717 105.839 51.5245 105.845 51.4777C106.503 46.5043 110.925 43.163 114.48 43.2826C122.509 43.5431 123.24 51.5587 123.248 51.6378C123.255 51.7309 123.239 51.8242 123.2 51.9098C122.57 53.3204 121.626 54.5821 120.433 55.6067C119.241 56.6314 117.829 57.3942 116.297 57.842C116.242 57.858 116.185 57.8664 116.128 57.8671ZM114.301 50.9337H114.375C114.482 50.9466 114.584 50.9866 114.669 51.0497C114.754 51.1128 114.821 51.1966 114.861 51.2925C115.56 52.9936 116.135 54.7392 116.581 56.5167C117.786 56.0805 118.889 55.4196 119.826 54.5721C120.763 53.7247 121.515 52.7077 122.038 51.5799C121.915 50.5633 120.928 44.635 114.45 44.4305C111.438 44.3302 107.66 47.3474 107.065 51.5394C107.15 52.0545 107.811 55.2511 111.368 56.5051C111.69 55.1643 112.458 52.9535 113.811 51.1671C113.868 51.0941 113.942 51.0349 114.027 50.9943C114.112 50.9538 114.206 50.933 114.301 50.9337Z" fill="#262424"/>
<path d="M143.132 77.5677C142.668 83.9223 141.909 92.0711 140.175 97.438C139.073 100.829 137.584 103.108 135.532 103.108C133.836 103.108 132.091 102.656 130.367 101.908C122.968 98.692 115.997 89.9992 115.231 88.1896C114.287 85.9576 117.246 81.4935 119.955 81.2446C122.664 80.9958 128.333 84.8637 128.333 84.8637C128.333 84.8637 132.677 66.5271 133.749 62.9678C134.821 59.4085 138.555 57.2864 138.555 57.2864C143.267 59.6708 143.887 67.1926 143.132 77.5677Z" fill="#DE9244"/>
<path d="M135.07 90.0281C134.968 90.0283 134.867 90.0034 134.777 89.9558C134.687 89.9082 134.611 89.8395 134.557 89.7561C134.531 89.7175 133.125 87.6533 129.497 86.3087C129.369 86.2616 129.262 86.1744 129.193 86.0614C129.123 85.9483 129.096 85.8161 129.115 85.6864C129.135 85.5566 129.2 85.437 129.299 85.3471C129.399 85.2573 129.528 85.2025 129.664 85.1917C131.939 85.1009 134.207 85.4853 136.311 86.3183C136.385 86.3469 136.452 86.3892 136.508 86.4426C136.565 86.496 136.61 86.5595 136.641 86.6295C136.671 86.6996 136.688 86.7748 136.688 86.8508C136.689 86.9268 136.674 87.0022 136.644 87.0726C136.614 87.1431 136.57 87.2072 136.514 87.2613C136.458 87.3154 136.392 87.3584 136.319 87.388C136.246 87.4176 136.167 87.433 136.088 87.4335C136.008 87.434 135.93 87.4196 135.856 87.3909C134.819 86.9881 133.738 86.6969 132.633 86.5228C134.702 87.7922 135.552 89.0712 135.598 89.1445C135.656 89.2332 135.687 89.335 135.689 89.4393C135.691 89.5435 135.663 89.6464 135.609 89.7369C135.555 89.8274 135.476 89.9022 135.382 89.9535C135.287 90.0048 135.179 90.0305 135.07 90.0281Z" fill="#262424"/>
<path d="M140.175 97.4322C139.073 100.824 137.584 103.102 135.532 103.102C133.836 103.102 132.091 102.651 130.367 101.902C130.343 101.7 130.331 101.496 130.331 101.292C130.331 100.2 130.67 99.1321 131.306 98.2249C131.941 97.3177 132.844 96.6122 133.9 96.1982C134.956 95.7843 136.116 95.6806 137.234 95.9003C138.351 96.12 139.375 96.6533 140.175 97.4322Z" fill="white"/>
<path d="M135.53 103.687C130.532 103.687 125.39 99.9999 121.953 96.9075C118.267 93.5893 115.227 89.7194 114.671 88.4057C114.178 87.2385 114.516 85.5409 115.58 83.8664C116.494 82.4272 118.108 80.8337 119.899 80.6755C122.231 80.4672 126.242 82.8304 127.94 83.9127C128.81 80.2472 132.222 65.958 133.177 62.8154C133.644 61.2624 134.672 59.7287 136.146 58.3783C136.203 58.3235 136.271 58.2802 136.345 58.2509C136.42 58.2216 136.5 58.2069 136.581 58.2077C136.662 58.2085 136.741 58.2248 136.815 58.2556C136.889 58.2864 136.956 58.331 137.012 58.387C137.067 58.4429 137.111 58.5089 137.14 58.5812C137.168 58.6534 137.181 58.7304 137.178 58.8077C137.175 58.8849 137.156 58.9608 137.122 59.0308C137.088 59.1009 137.04 59.1637 136.98 59.2155C136.059 60.0567 134.855 61.4186 134.339 63.1317C133.286 66.6351 128.975 84.8116 128.931 84.9949C128.909 85.0877 128.863 85.1738 128.798 85.2457C128.733 85.3175 128.65 85.3729 128.557 85.4068C128.464 85.4408 128.364 85.4523 128.266 85.4403C128.167 85.4284 128.073 85.3933 127.992 85.3383C126.465 84.2985 122.058 81.642 120.021 81.8234C118.914 81.9218 117.578 82.9577 116.623 84.4644C115.783 85.7859 115.461 87.1652 115.801 87.9658C116.732 90.167 127.025 102.523 135.542 102.523C135.702 102.523 135.856 102.584 135.969 102.693C136.082 102.801 136.146 102.949 136.146 103.102C136.146 103.255 136.082 103.403 135.969 103.511C135.856 103.62 135.702 103.681 135.542 103.681L135.53 103.687Z" fill="#262424"/>
<path d="M121.655 82.3327L117.056 78.8949C117.056 78.8949 112.836 79.1959 111.954 84.3236L116.93 88.3652C116.93 88.3652 121.276 87.3389 121.655 82.3327Z" fill="#DE9244"/>
<path d="M116.931 88.942C116.788 88.9421 116.65 88.8935 116.541 88.805L111.565 84.7634C111.486 84.6983 111.426 84.6147 111.391 84.5207C111.356 84.4267 111.346 84.3256 111.364 84.2271C112.313 78.7155 116.97 78.3181 117.016 78.3162C117.166 78.3056 117.315 78.3489 117.433 78.4377L122.032 81.8755C122.11 81.9339 122.172 82.0098 122.213 82.0966C122.253 82.1834 122.27 82.2784 122.263 82.3732C121.861 87.7382 117.129 88.915 117.081 88.9324C117.031 88.9415 116.981 88.9447 116.931 88.942ZM112.613 84.096L117.068 87.715C117.955 87.4102 120.614 86.1987 121.025 82.5931L116.887 79.5065C116.094 79.6377 113.392 80.3746 112.613 84.0979V84.096Z" fill="#262424"/>
<path d="M116.764 79.5374C116.764 79.5374 108.493 73.4644 108.072 73.4644C107.652 73.4644 94.9794 77.2841 94.7195 77.4056C94.4597 77.5272 94.216 78.4512 95.0136 78.8525C95.8113 79.2538 102.404 78.812 102.404 78.812C103.213 79.8478 104.127 80.8042 105.134 81.6671C106.604 82.8729 108.788 83.5577 110.256 82.1089C110.256 82.1089 111.465 84.6014 113.783 83.878C116.102 83.1545 116.764 79.5374 116.764 79.5374Z" fill="white"/>
<path d="M112.961 84.5879C111.656 84.5879 110.669 83.7583 110.097 82.9847C108.433 84.04 106.27 83.3706 104.741 82.105C103.781 81.2858 102.904 80.3815 102.122 79.4042C99.9407 79.545 95.5494 79.7688 94.7357 79.3579C94.4696 79.2309 94.247 79.0338 94.0939 78.7898C93.9409 78.5458 93.8637 78.265 93.8715 77.9805C93.8715 77.5696 94.0568 77.068 94.4516 76.8789C94.5362 76.8384 107.438 72.8759 108.075 72.8759C108.324 72.8759 108.699 72.8759 117.139 79.0685C117.227 79.1331 117.295 79.2196 117.335 79.3186C117.375 79.4177 117.386 79.5253 117.367 79.6299C117.336 79.792 116.601 83.6001 113.978 84.422C113.651 84.5292 113.307 84.5852 112.961 84.5879ZM110.256 81.5301C110.371 81.5301 110.484 81.5614 110.581 81.6205C110.678 81.6797 110.755 81.7641 110.804 81.8639C110.844 81.9449 111.829 83.8818 113.596 83.3281C115.032 82.8786 115.812 80.8491 116.094 79.7727C112.633 77.2378 108.828 74.5234 108.004 74.0662C106.576 74.4077 96.478 77.4365 95.0922 77.8898C95.0722 77.9651 95.0722 78.0441 95.0922 78.1194C95.1073 78.1678 95.1331 78.2124 95.1679 78.2504C95.2026 78.2883 95.2455 78.3187 95.2936 78.3393C95.8053 78.5322 99.3646 78.4358 102.36 78.2332C102.462 78.2264 102.564 78.2444 102.656 78.2855C102.749 78.3267 102.829 78.3897 102.89 78.4686C103.672 79.4678 104.554 80.3911 105.524 81.2253C106.493 82.0201 108.489 83.0175 109.821 81.7038C109.878 81.6487 109.946 81.6052 110.02 81.5757C110.095 81.5462 110.175 81.5314 110.256 81.5321V81.5301Z" fill="#262424"/>
<path d="M118.91 34.8869L118.787 39.351L118.585 46.9866C115.904 48.7807 113.296 48.9717 110.78 47.1622L111.148 43.6144L111.706 38.2417L118.91 34.8869Z" fill="white"/>
<path d="M114.41 49.0103C113.029 49.0103 111.695 48.5479 110.407 47.6232C110.324 47.5633 110.259 47.4839 110.217 47.3927C110.175 47.3014 110.159 47.2014 110.17 47.1023L111.096 38.1838C111.106 38.0856 111.143 37.9915 111.201 37.9104C111.26 37.8294 111.34 37.7641 111.433 37.7208L118.646 34.366C118.739 34.3226 118.843 34.3029 118.946 34.3089C119.05 34.3149 119.15 34.3463 119.237 34.4002C119.325 34.4541 119.396 34.5286 119.444 34.6166C119.493 34.7045 119.517 34.8029 119.514 34.9023L119.18 47.0001C119.177 47.0906 119.153 47.1793 119.108 47.259C119.063 47.3388 118.999 47.4074 118.922 47.4592C117.377 48.4933 115.872 49.0103 114.41 49.0103ZM111.404 46.8882C113.461 48.2386 115.618 48.1653 117.979 46.676L118.279 35.8264L112.264 38.6237L111.404 46.8882Z" fill="#262424"/>
<path d="M116.418 36.0444C116.382 38.0604 116.575 44.9185 110.925 45.669L111.696 38.2417L116.418 36.0444Z" fill="#262424"/>
<path d="M104.773 35.4348C105.283 39.1002 106.544 43.4485 111.118 42.6229C116.557 41.6409 119.965 37.8308 119.848 32.8497C119.731 27.8686 117.23 25.1331 111.03 25.9048C110.502 25.9685 109.98 26.0743 109.47 26.2211C105.917 27.2571 104.211 30.1566 104.547 33.4883C104.606 34.0786 104.674 34.7442 104.773 35.4348Z" fill="white"/>
<path d="M110.03 43.3038C109.025 43.3217 108.042 43.0191 107.236 42.4434C104.845 40.7226 104.277 36.9434 103.935 33.5346C103.498 29.192 106.314 25.8912 110.943 25.3221C111.103 25.3027 111.265 25.345 111.393 25.4398C111.52 25.5346 111.603 25.6741 111.624 25.8276C111.644 25.9811 111.6 26.136 111.501 26.2583C111.402 26.3806 111.256 26.4602 111.096 26.4796C107.099 26.9716 104.761 29.7013 105.138 33.4246C105.367 35.7087 105.796 39.9625 107.958 41.5271C108.763 42.1058 109.771 42.2872 110.991 42.0634C112.993 41.7026 114.706 40.9522 116.079 39.8352C116.139 39.7823 116.21 39.7416 116.286 39.7154C116.363 39.6892 116.445 39.6782 116.526 39.683C116.607 39.6877 116.687 39.7081 116.759 39.7431C116.832 39.778 116.897 39.8266 116.95 39.8861C117.002 39.9455 117.042 40.0146 117.066 40.0891C117.09 40.1636 117.099 40.242 117.09 40.3196C117.082 40.3972 117.057 40.4724 117.018 40.5406C116.979 40.6089 116.925 40.6688 116.861 40.7168C115.237 41.9977 113.293 42.8538 111.221 43.2016C110.828 43.2709 110.43 43.3051 110.03 43.3038Z" fill="#262424"/>
<path d="M121.512 33.7352C121.01 34.4814 120.441 35.1843 119.812 35.8361L117.06 36.0849L116.404 34.2368C116.404 34.2368 114.651 34.2156 114.252 33.0967C114.242 33.0709 114.233 33.0444 114.226 33.0176C114.122 32.651 113.707 31.0093 113.882 28.4339C113.882 28.4339 109.736 30.3418 107.456 30.6428C106.636 30.7527 105.663 30.4788 104.755 30.0833C102.942 29.2904 101.276 26.5433 101.532 24.6431V24.6064C101.935 21.8207 103.502 23.6939 103.502 23.6939C103.502 23.6939 103.859 21.4503 105.315 21.2439C106.771 21.0375 107.766 23.0708 107.766 23.0708C110.545 22.3611 113.438 22.1569 116.295 22.4689C121.963 23.119 120.684 26.8828 120.684 26.8828C120.684 26.8828 124.876 28.0268 121.512 33.7352Z" fill="#262424"/>
<path d="M117.644 35.7801C117.338 33.7062 118.801 31.7288 120.964 31.4202C121.423 31.3534 121.89 31.371 122.342 31.4723C125.057 32.0857 124.558 38.1086 117.951 37.8539L117.644 35.7801Z" fill="white"/>
<path d="M118.346 38.4423C118.211 38.4423 118.072 38.4423 117.927 38.4423C117.847 38.4393 117.769 38.4213 117.697 38.3894C117.625 38.3575 117.56 38.3123 117.506 38.2565C117.453 38.2006 117.411 38.1351 117.383 38.0637C117.356 37.9923 117.343 37.9164 117.347 37.8404C117.35 37.7644 117.368 37.6898 117.402 37.6207C117.435 37.5517 117.482 37.4896 117.541 37.438C117.599 37.3864 117.667 37.3463 117.742 37.32C117.816 37.2938 117.896 37.2818 117.975 37.2848C121.52 37.4218 123.035 35.6624 123.255 34.1133C123.381 33.2317 123.053 32.2382 122.201 32.0452C121.824 31.9615 121.434 31.9471 121.051 32.0028C120.168 32.1422 119.378 32.6095 118.852 33.3033C118.326 33.9971 118.107 34.8614 118.243 35.7087C118.262 35.8593 118.219 36.0112 118.123 36.1317C118.027 36.2522 117.885 36.3316 117.728 36.3529C117.571 36.3741 117.412 36.3355 117.284 36.2453C117.157 36.1551 117.071 36.0206 117.046 35.8708C116.69 33.4555 118.408 31.2061 120.874 30.855C121.41 30.7765 121.957 30.7968 122.485 30.9148C123.861 31.2253 124.691 32.6356 124.457 34.2676C124.151 36.3762 122.149 38.4423 118.346 38.4423Z" fill="#262424"/>
<path d="M72.5277 100.166L74.8341 95.6651C74.9143 95.5086 75.0487 95.3836 75.2143 95.3115C75.38 95.2393 75.5667 95.2245 75.7426 95.2696L75.7949 95.2831C75.8951 95.3086 75.9891 95.3528 76.0713 95.4133C76.1536 95.4737 76.2226 95.5491 76.2743 95.6352C76.3259 95.7213 76.3593 95.8163 76.3725 95.9148C76.3856 96.0133 76.3783 96.1133 76.3509 96.2091L75.2289 100.168C75.2065 100.247 75.201 100.329 75.2129 100.41C75.2248 100.491 75.2538 100.569 75.2981 100.638C75.3424 100.708 75.401 100.769 75.4705 100.816C75.54 100.864 75.6189 100.897 75.7023 100.914C75.8512 100.945 76.0065 100.923 76.1395 100.852C76.2725 100.781 76.3741 100.666 76.4254 100.529L77.9724 96.4387C78.0502 96.2329 78.2041 96.0615 78.4049 95.957C78.6057 95.8525 78.8395 95.8221 79.0622 95.8715L79.1911 95.9004C79.4226 95.9518 79.625 96.0857 79.7571 96.275C79.8892 96.4642 79.9411 96.6945 79.9021 96.919L79.1649 101.15C79.1418 101.275 79.1688 101.404 79.2404 101.511C79.312 101.619 79.4231 101.696 79.5516 101.728C79.6844 101.763 79.8258 101.746 79.946 101.683C80.0663 101.619 80.156 101.513 80.1962 101.387L81.5478 97.1525C81.6181 96.9334 81.7734 96.7484 81.9817 96.6357C82.1901 96.523 82.4356 96.4912 82.6678 96.5467C82.8892 96.5997 83.0826 96.7284 83.2118 96.9086C83.3409 97.0887 83.3967 97.3079 83.3688 97.5248L82.7947 101.927C82.7788 102.049 82.8115 102.172 82.8861 102.273C82.9607 102.373 83.0719 102.442 83.1976 102.467C83.3253 102.495 83.4591 102.474 83.5716 102.41C83.684 102.346 83.7664 102.243 83.8019 102.122L84.8836 98.4566C84.9371 98.274 85.0606 98.1175 85.2294 98.0185C85.3982 97.9194 85.5999 97.885 85.794 97.9222C85.9905 97.9597 86.1645 98.0677 86.2806 98.2241C86.3966 98.3804 86.446 98.5733 86.4185 98.7633L85.649 104.099C85.6218 104.287 85.546 104.465 85.4284 104.617C85.3109 104.769 85.1554 104.89 84.9762 104.969L84.3457 105.249C84.168 105.328 83.9726 105.363 83.7771 105.352C83.5816 105.341 83.3921 105.283 83.2258 105.184C82.9772 105.035 82.6799 104.981 82.3918 105.031L81.2256 105.23C81.0642 105.258 80.8984 105.254 80.7389 105.217C80.5794 105.181 80.4295 105.113 80.299 105.018L79.6806 104.568C79.5421 104.469 79.3826 104.401 79.2135 104.368C79.0443 104.334 78.8696 104.337 78.7016 104.375L77.1768 104.709C76.9938 104.749 76.8034 104.746 76.6216 104.702C76.4398 104.657 76.2717 104.572 76.1313 104.452L75.5633 103.97C75.442 103.867 75.2997 103.789 75.1455 103.741C74.9913 103.693 74.8284 103.676 74.6669 103.69L73.1219 103.833C72.9365 103.85 72.7495 103.825 72.5762 103.76C72.4029 103.694 72.2483 103.591 72.1248 103.457L68.8032 99.8649C68.7117 99.7662 68.6431 99.65 68.6019 99.524C68.5607 99.398 68.5478 99.2651 68.5642 99.134C68.5806 99.003 68.6258 98.8767 68.6968 98.7636C68.7679 98.6505 68.8632 98.5531 68.9764 98.4778C69.1431 98.3669 69.3418 98.3086 69.5447 98.3111C69.7477 98.3135 69.9447 98.3765 70.1085 98.4913L72.5277 100.166Z" fill="white"/>
<path d="M83.8442 105.924C83.5116 105.924 83.1857 105.834 82.9035 105.666C82.7832 105.595 82.6398 105.569 82.5006 105.593L81.3484 105.785C81.1045 105.828 80.8541 105.821 80.6131 105.765C80.3721 105.71 80.1457 105.607 79.9485 105.463L79.3301 105.014C79.263 104.965 79.1854 104.931 79.1029 104.914C79.0203 104.897 78.9349 104.897 78.8527 104.915L77.3279 105.249C77.0512 105.31 76.7635 105.306 76.4886 105.239C76.2136 105.172 75.9592 105.043 75.7466 104.863L75.1786 104.381C75.1194 104.331 75.05 104.293 74.9748 104.269C74.8997 104.246 74.8202 104.237 74.7415 104.244L73.1965 104.387C72.9163 104.412 72.6339 104.374 72.3721 104.275C72.1103 104.176 71.8765 104.019 71.6898 103.818L68.3561 100.233C68.0964 99.9542 67.9539 99.5929 67.9561 99.219C67.9582 98.8452 68.1049 98.4854 68.3677 98.209C68.6305 97.9326 68.9909 97.7592 69.3793 97.7223C69.7677 97.6854 70.1567 97.7875 70.4711 98.009L72.3021 99.2919L74.2923 95.4105C74.4347 95.1331 74.6732 94.9117 74.9671 94.784C75.261 94.6563 75.592 94.6302 75.9037 94.7102L75.9561 94.7237C76.3119 94.8158 76.6149 95.0395 76.7984 95.3456C76.982 95.6516 77.0312 96.015 76.9351 96.3557L75.8131 100.314L75.8312 100.343C75.8371 100.345 75.8432 100.344 75.8484 100.341C75.8536 100.338 75.8576 100.333 75.8594 100.328L77.4064 96.2381C77.535 95.8994 77.7885 95.6175 78.1191 95.4455C78.4497 95.2735 78.8346 95.2233 79.2012 95.3043L79.3321 95.3333C79.7125 95.4188 80.0447 95.6395 80.2616 95.9508C80.4785 96.262 80.5639 96.6405 80.5004 97.0097L79.9485 100.177L80.9698 96.975C81.0839 96.6241 81.3309 96.3267 81.6622 96.1412C81.9936 95.9556 82.3853 95.8954 82.7606 95.9722C83.136 96.049 83.4678 96.2574 83.691 96.5564C83.9142 96.8554 84.0126 97.2235 83.9671 97.5885L83.5461 100.814L84.2914 98.2868C84.3856 97.9608 84.606 97.6814 84.9077 97.5053C85.2093 97.3293 85.5697 97.2699 85.9155 97.3392C86.2612 97.4084 86.5665 97.6012 86.7692 97.8783C86.9719 98.1554 87.0568 98.496 87.0067 98.8309L86.2372 104.167C86.1977 104.449 86.0847 104.718 85.9088 104.948C85.7328 105.178 85.4995 105.361 85.2301 105.483L84.6016 105.762C84.3646 105.869 84.106 105.924 83.8442 105.924ZM82.6014 104.425C82.9338 104.425 83.2596 104.514 83.542 104.682C83.6232 104.73 83.7156 104.758 83.8109 104.764C83.9062 104.769 84.0014 104.752 84.0879 104.713L84.7184 104.433C84.8059 104.394 84.8819 104.335 84.9393 104.261C84.9967 104.187 85.0336 104.1 85.0467 104.009L85.8082 98.6707C85.8159 98.6265 85.8055 98.5812 85.7791 98.5442C85.7527 98.5072 85.7125 98.4814 85.6667 98.4721C85.6209 98.4629 85.5731 98.471 85.5334 98.4947C85.4937 98.5184 85.4651 98.5559 85.4536 98.5994L84.3719 102.265C84.2933 102.522 84.1169 102.741 83.8776 102.879C83.6384 103.017 83.3536 103.065 83.0798 103.011C82.8059 102.958 82.5627 102.809 82.3984 102.592C82.2341 102.376 82.1606 102.108 82.1924 101.842L82.7665 97.4399C82.775 97.3622 82.7532 97.2843 82.7052 97.2211C82.6573 97.1578 82.5866 97.1139 82.5069 97.0976C82.4271 97.0813 82.3438 97.0938 82.2731 97.1328C82.2024 97.1718 82.1493 97.2345 82.124 97.3087L80.7723 101.543C80.6889 101.808 80.5034 102.032 80.2535 102.17C80.0036 102.308 79.7082 102.35 79.4274 102.286C79.1466 102.223 78.9015 102.06 78.742 101.83C78.5824 101.6 78.5205 101.32 78.5687 101.047L79.3059 96.8168C79.3194 96.7378 79.3011 96.6569 79.2548 96.5903C79.2084 96.5237 79.1374 96.4765 79.0561 96.458L78.9252 96.4291C78.8476 96.4108 78.7656 96.4204 78.6948 96.4559C78.6239 96.4914 78.5691 96.5505 78.5405 96.622L76.9955 100.727C76.8845 101.01 76.6649 101.241 76.3816 101.373C76.0984 101.505 75.7731 101.528 75.4725 101.438C75.172 101.347 74.9189 101.15 74.7653 100.887C74.6118 100.623 74.5694 100.314 74.6468 100.021L75.7688 96.0625C75.7751 96.0403 75.7769 96.0172 75.7738 95.9944C75.7708 95.9716 75.7631 95.9496 75.7511 95.9296C75.7391 95.9097 75.7231 95.8923 75.704 95.8783C75.6849 95.8644 75.6631 95.8542 75.6399 95.8484L75.5875 95.8349C75.5479 95.8265 75.5066 95.8311 75.4701 95.8479C75.4336 95.8647 75.404 95.8927 75.386 95.9275L73.0796 100.428C73.0407 100.504 72.985 100.571 72.9163 100.624C72.8476 100.677 72.7677 100.715 72.6821 100.735C72.5965 100.755 72.5073 100.757 72.4207 100.741C72.3342 100.724 72.2525 100.69 72.1813 100.64L69.7641 98.9505C69.7012 98.9074 69.6258 98.8843 69.5485 98.8843C69.4712 98.8843 69.3959 98.9074 69.333 98.9505C69.29 98.979 69.2538 99.016 69.2268 99.0589C69.1998 99.1018 69.1826 99.1498 69.1763 99.1995C69.1701 99.2493 69.1748 99.2997 69.1904 99.3476C69.2059 99.3954 69.2319 99.4396 69.2665 99.4771L72.5882 103.069C72.6475 103.136 72.7227 103.189 72.8075 103.222C72.8923 103.256 72.9842 103.269 73.0756 103.262L74.6206 103.119C74.8647 103.097 75.111 103.123 75.3442 103.196C75.5774 103.269 75.7925 103.386 75.9762 103.542L76.5443 104.024C76.613 104.082 76.6953 104.124 76.7843 104.146C76.8732 104.168 76.9664 104.169 77.0559 104.15L78.5808 103.816C78.8356 103.76 79.1002 103.758 79.3557 103.811C79.6113 103.864 79.8515 103.971 80.0593 104.123L80.6777 104.572C80.7413 104.618 80.8142 104.651 80.8919 104.669C80.9695 104.687 81.0502 104.69 81.1289 104.676L82.2811 104.483C82.3832 104.456 82.4877 104.437 82.5933 104.427L82.6014 104.425Z" fill="#262424"/>
<path d="M66.5029 78.4917H78.5949V94.1758H66.5029V78.4917Z" fill="white"/>
<path d="M78.5969 94.7526H66.511C66.3507 94.7526 66.197 94.6916 66.0837 94.5831C65.9703 94.4745 65.9067 94.3273 65.9067 94.1738V78.4917C65.9067 78.3382 65.9703 78.191 66.0837 78.0825C66.197 77.9739 66.3507 77.9129 66.511 77.9129H78.5969C78.7572 77.9129 78.9109 77.9739 79.0242 78.0825C79.1376 78.191 79.2012 78.3382 79.2012 78.4917V94.1738C79.2012 94.3273 79.1376 94.4745 79.0242 94.5831C78.9109 94.6916 78.7572 94.7526 78.5969 94.7526ZM67.1153 93.5951H77.9926V79.0704H67.1153V93.5951Z" fill="#262424"/>
<path d="M73.9358 74.0084H61.8418L66.5029 78.4917H78.5969L73.9358 74.0084Z" fill="white"/>
<path d="M78.5968 79.0705H66.5109C66.4312 79.0707 66.3523 79.0558 66.2787 79.0266C66.205 78.9975 66.1381 78.9547 66.0818 78.9007L61.4207 74.4173C61.3362 74.3363 61.2786 74.233 61.2554 74.1207C61.2322 74.0083 61.2444 73.8918 61.2903 73.7861C61.3363 73.6803 61.414 73.59 61.5135 73.5265C61.6131 73.4631 61.7301 73.4293 61.8497 73.4296H73.9357C74.0154 73.4294 74.0943 73.4443 74.1679 73.4735C74.2416 73.5026 74.3084 73.5454 74.3647 73.5994L79.0259 78.0827C79.1104 78.1638 79.1679 78.2671 79.1911 78.3794C79.2143 78.4918 79.2022 78.6083 79.1563 78.714C79.1103 78.8198 79.0326 78.9101 78.933 78.9736C78.8335 79.037 78.7164 79.0708 78.5968 79.0705ZM66.7546 77.913H77.1425L73.6859 74.5871H63.298L66.7546 77.913Z" fill="#262424"/>
<path d="M90.6869 94.1739H78.5949V78.4898H90.6869V94.1739Z" fill="white"/>
<path d="M90.693 94.7526H78.607C78.4468 94.7526 78.2931 94.6916 78.1797 94.5831C78.0664 94.4745 78.0027 94.3273 78.0027 94.1738V78.4917C78.0027 78.3382 78.0664 78.191 78.1797 78.0825C78.2931 77.9739 78.4468 77.9129 78.607 77.9129H90.693C90.8533 77.9129 91.007 77.9739 91.1203 78.0825C91.2336 78.191 91.2973 78.3382 91.2973 78.4917V94.1738C91.2973 94.3273 91.2336 94.4745 91.1203 94.5831C91.007 94.6916 90.8533 94.7526 90.693 94.7526ZM79.2113 93.5951H90.0887V79.0704H79.2113V93.5951Z" fill="#262424"/>
<path d="M83.2561 74.0084H95.3501L90.689 78.4917H78.597L83.2561 74.0084Z" fill="white"/>
<path d="M90.6929 79.0705H78.607C78.4874 79.0707 78.3704 79.037 78.2708 78.9736C78.1712 78.9101 78.0935 78.8198 78.0476 78.714C78.0016 78.6082 77.9895 78.4918 78.0127 78.3794C78.0359 78.267 78.0934 78.1638 78.178 78.0827L82.8371 73.5916C82.8934 73.5377 82.9603 73.4949 83.0339 73.4657C83.1075 73.4366 83.1865 73.4217 83.2661 73.4219H95.3521C95.4717 73.4216 95.5887 73.4553 95.6883 73.5188C95.7879 73.5822 95.8656 73.6726 95.9115 73.7783C95.9574 73.8841 95.9696 74.0005 95.9464 74.1129C95.9232 74.2253 95.8657 74.3286 95.7811 74.4096L91.116 78.8988C91.0041 79.0071 90.8521 79.0688 90.6929 79.0705ZM80.0553 77.913H90.4432L93.9018 74.5871H83.5079L80.0553 77.913Z" fill="#262424"/>
<path d="M78.597 108.509C73.8027 108.51 69.1161 107.149 65.1296 104.598C61.1431 102.048 58.0358 98.4222 56.2007 94.1804C54.3656 89.9386 53.885 85.2708 54.8198 80.7674C55.7546 76.264 58.0627 72.1272 61.4523 68.8801C64.8419 65.6331 69.1607 63.4215 73.8627 62.5251C78.5646 61.6288 83.4385 62.0878 87.8681 63.8443C92.2976 65.6008 96.0838 68.5758 98.748 72.3931C101.412 76.2104 102.835 80.6986 102.835 85.2901C102.829 91.4455 100.274 97.3473 95.7299 101.7C91.1858 106.054 85.0241 108.502 78.597 108.509ZM78.597 63.2379C74.0414 63.2375 69.588 64.531 65.8 66.9548C62.0121 69.3786 59.0597 72.8238 57.3163 76.8546C55.573 80.8855 55.117 85.321 56.0059 89.6001C56.8949 93.8792 59.0889 97.8098 62.3104 100.895C65.532 103.979 69.6364 106.08 74.1046 106.931C78.5728 107.781 83.204 107.344 87.4125 105.673C91.6211 104.003 95.2178 101.175 97.748 97.5466C100.278 93.9184 101.628 89.6531 101.627 85.2901C101.62 79.4422 99.192 73.8355 94.8745 69.7002C90.557 65.5649 84.7031 63.2387 78.597 63.2321V63.2379Z" fill="#262424"/>
<path d="M74.5742 22.6599H72.1067C71.5616 22.6599 71.1197 23.0831 71.1197 23.6052V29.3117C71.1197 29.8337 71.5616 30.2569 72.1067 30.2569H74.5742C75.1194 30.2569 75.5613 29.8337 75.5613 29.3117V23.6052C75.5613 23.0831 75.1194 22.6599 74.5742 22.6599Z" fill="#88C0C2"/>
<path d="M86.0741 24.3634V27.8821C86.0741 28.512 85.8129 29.116 85.3479 29.5614C84.8828 30.0067 84.2521 30.2569 83.5945 30.2569H78.5104C78.3495 30.2569 78.1903 30.2266 78.0417 30.1677C77.8931 30.1087 77.7581 30.0223 77.6443 29.9134C77.5306 29.8045 77.4404 29.6752 77.3789 29.5329C77.3173 29.3906 77.2856 29.238 77.2856 29.084V23.5975C77.2856 23.4434 77.3172 23.2909 77.3788 23.1486C77.4403 23.0062 77.5305 22.8769 77.6442 22.7679L81.8843 18.7071C82.0131 18.5838 82.1877 18.5146 82.3698 18.5146C82.5518 18.5146 82.7265 18.5838 82.8553 18.7071C82.9524 18.7998 83.0183 18.9183 83.0445 19.0472C83.0707 19.1761 83.056 19.3096 83.0023 19.4305L81.3687 23.1133H84.7628C84.9347 23.1128 85.1049 23.1447 85.2639 23.2073C85.4228 23.2698 85.5673 23.3618 85.6891 23.4779C85.8109 23.594 85.9076 23.732 85.9737 23.8839C86.0397 24.0359 86.0739 24.1988 86.0741 24.3634Z" fill="#88C0C2"/>
<path d="M82.7887 42.1946C82.6412 42.1946 82.4988 42.143 82.3883 42.0495C82.2778 41.9559 82.2069 41.8269 82.1888 41.6868C82.1707 41.5466 82.2068 41.405 82.2902 41.2885C82.3736 41.172 82.4986 41.0888 82.6416 41.0544C86.4778 40.1184 89.8258 37.8747 92.0583 34.7438C94.2908 31.6129 95.2545 27.8097 94.7687 24.0471C94.2829 20.2844 92.381 16.8205 89.4195 14.3047C86.458 11.7889 82.6401 10.3937 78.6815 10.3808H78.6512C74.6874 10.3774 70.8587 11.7601 67.8842 14.2693C64.9097 16.7784 62.994 20.2414 62.4972 24.0077C62.0003 27.774 62.9563 31.5844 65.1857 34.7233C67.415 37.8622 70.7643 40.1135 74.6045 41.0544C74.7561 41.0957 74.8848 41.192 74.9633 41.3228C75.0418 41.4537 75.0639 41.6088 75.0247 41.7549C74.9856 41.9011 74.8883 42.0269 74.7538 42.1054C74.6192 42.1839 74.4579 42.209 74.3043 42.1753C70.1849 41.1595 66.5937 38.7397 64.204 35.3695C61.8142 31.9993 60.79 27.91 61.3233 23.8682C61.8566 19.8264 63.9107 16.1097 67.1007 13.4147C70.2907 10.7197 74.3975 9.23153 78.6512 9.2291H78.6855C82.9348 9.24787 87.0314 10.7489 90.2086 13.4514C93.3858 16.1539 95.4259 19.8725 95.9472 23.9115C96.4684 27.9504 95.4351 32.0329 93.0406 35.3949C90.646 38.7569 87.0544 41.1681 82.9377 42.1772C82.889 42.1889 82.8389 42.1948 82.7887 42.1946Z" fill="#262424"/>
<path d="M78.6533 38.5832H78.6271C75.1295 38.5802 71.7764 37.2465 69.3055 34.8758C66.8346 32.505 65.4482 29.2912 65.4514 25.9415C65.4546 22.5917 66.8471 19.3804 69.3226 17.0139C71.798 14.6475 75.1537 13.3198 78.6513 13.3228H78.6755C82.1731 13.3256 85.5263 14.659 87.9974 17.0296C90.4685 19.4002 91.8551 22.6139 91.8522 25.9636C91.8492 29.3134 90.457 32.5248 87.9817 34.8914C85.5065 37.2581 82.1509 38.5861 78.6533 38.5832ZM78.6533 14.4803C77.0802 14.4789 75.5222 14.7743 74.0682 15.3496C72.6143 15.9248 71.2929 16.7687 70.1795 17.8331C69.0661 18.8974 68.1825 20.1614 67.5791 21.5528C66.9758 22.9442 66.6645 24.4358 66.663 25.9424C66.6616 27.449 66.97 28.9412 67.5707 30.3336C68.1713 31.7261 69.0525 32.9916 70.1638 34.058C71.2752 35.1243 72.5949 35.9705 74.0478 36.5484C75.5006 37.1262 77.058 37.4244 78.6311 37.4257H78.6533C80.2264 37.4271 81.7844 37.1318 83.2384 36.5565C84.6923 35.9812 86.0137 35.1373 87.1271 34.073C88.2405 33.0086 89.1241 31.7447 89.7275 30.3533C90.3308 28.9619 90.6421 27.4703 90.6436 25.9636C90.645 24.457 90.3366 22.9649 89.7359 21.5724C89.1353 20.1799 88.2541 18.9144 87.1428 17.8481C86.0314 16.7818 84.7117 15.9355 83.2589 15.3577C81.806 14.7798 80.2486 14.4817 78.6755 14.4803H78.6533Z" fill="#262424"/>
<path d="M78.5969 55.3032C78.4366 55.3032 78.2829 55.2423 78.1696 55.1337C78.0563 55.0252 77.9926 54.878 77.9926 54.7245L78.0188 41.6062C78.0188 41.4527 78.0825 41.3055 78.1958 41.197C78.3091 41.0884 78.4628 41.0275 78.6231 41.0275C78.7834 41.0275 78.9371 41.0884 79.0504 41.197C79.1637 41.3055 79.2274 41.4527 79.2274 41.6062L79.2012 54.7245C79.2012 54.878 79.1375 55.0252 79.0242 55.1337C78.9109 55.2423 78.7572 55.3032 78.5969 55.3032Z" fill="#262424"/>
<path d="M32.6804 51.58V55.3476C32.6802 55.4658 32.6435 55.5813 32.5749 55.6795C32.5063 55.7777 32.4088 55.8542 32.2948 55.8994C32.1808 55.9446 32.0554 55.9564 31.9344 55.9334C31.8133 55.9104 31.7021 55.8536 31.6148 55.7701L30.5956 54.7939L26.4803 58.7371C26.1487 59.0544 25.6991 59.2326 25.2304 59.2326C24.7617 59.2326 24.3121 59.0544 23.9805 58.7371L21.2954 56.1714L17.8509 59.4702C17.6869 59.6275 17.492 59.7523 17.2776 59.8375C17.0631 59.9226 16.8332 59.9665 16.601 59.9665C16.3689 59.9665 16.139 59.9226 15.9245 59.8375C15.7101 59.7523 15.5152 59.6275 15.3512 59.4702C15.1869 59.3131 15.0566 59.1265 14.9677 58.9211C14.8788 58.7157 14.833 58.4955 14.833 58.2732C14.833 58.0508 14.8788 57.8307 14.9677 57.6253C15.0566 57.4199 15.1869 57.2333 15.3512 57.0761L20.0445 52.5812C20.2086 52.4239 20.4034 52.2991 20.6179 52.2139C20.8324 52.1288 21.0623 52.0849 21.2944 52.0849C21.5266 52.0849 21.7565 52.1288 21.9709 52.2139C22.1854 52.2991 22.3802 52.4239 22.5443 52.5812L25.2274 55.1528L28.1018 52.4018L27.284 51.6185C27.1969 51.5349 27.1375 51.4284 27.1135 51.3125C27.0895 51.1966 27.1018 51.0765 27.149 50.9673C27.1962 50.8581 27.2761 50.7648 27.3787 50.6991C27.4812 50.6333 27.6018 50.5982 27.7252 50.598H31.6591C31.7935 50.5983 31.9265 50.6239 32.0506 50.6734C32.1746 50.7228 32.2873 50.7952 32.3821 50.8864C32.4769 50.9776 32.5521 51.0858 32.6033 51.2048C32.6545 51.3238 32.6807 51.4513 32.6804 51.58Z" fill="#88C0C2"/>
<path d="M24.6352 72.8836C20.9744 72.8859 17.4054 71.7872 14.4317 69.7425C11.4579 67.6979 9.22971 64.8105 8.06141 61.4879C6.89312 58.1653 6.84375 54.5752 7.92028 51.2242C8.99681 47.8733 11.1449 44.9307 14.0613 42.8118C16.9778 40.6928 20.5154 39.5044 24.1749 39.4144C27.8345 39.3244 31.4311 40.3372 34.4573 42.3099C37.4836 44.2826 39.7866 47.1157 41.0414 50.4092C42.2961 53.7028 42.4393 57.2906 41.4507 60.6663C41.4026 60.8088 41.2987 60.9279 41.1609 60.9985C41.023 61.0692 40.8619 61.0859 40.7115 61.0452C40.561 61.0045 40.4328 60.9095 40.354 60.7802C40.2751 60.6509 40.2516 60.4974 40.2885 60.3518C41.3545 56.6983 40.9914 52.7976 39.2672 49.3823C37.543 45.9671 34.5763 43.272 30.9242 41.8032C27.2722 40.3344 23.1859 40.1929 19.4326 41.4052C15.6793 42.6176 12.5171 45.1004 10.5399 48.3875C8.5626 51.6746 7.90621 55.5399 8.69394 59.2576C9.48168 62.9754 11.6593 66.29 14.8181 68.5789C17.9768 70.8678 21.8993 71.9738 25.8492 71.689C29.799 71.4043 33.5045 69.7485 36.2699 67.0325C36.3818 66.9225 36.5348 66.8596 36.6951 66.8576C36.8555 66.8556 37.0101 66.9147 37.125 67.0219C37.2398 67.1291 37.3055 67.2756 37.3076 67.4292C37.3097 67.5827 37.248 67.7308 37.1361 67.8408C35.5099 69.4387 33.5658 70.7082 31.4187 71.5744C29.2716 72.4405 26.965 72.8857 24.6352 72.8836Z" fill="#262424"/>
<path d="M24.6049 68.7687C21.7033 68.7634 18.8845 67.8415 16.5855 66.1461C14.2864 64.4506 12.6356 62.0762 11.8887 59.3908C11.1419 56.7055 11.3408 53.8592 12.4546 51.2931C13.5684 48.727 15.5349 46.5844 18.0493 45.1975C20.5637 43.8105 23.4856 43.2566 26.3622 43.6216C29.2387 43.9866 31.9091 45.2502 33.9597 47.2164C36.0102 49.1826 37.3263 51.7417 37.7039 54.4971C38.0815 57.2524 37.4995 60.0501 36.0483 62.4565C34.8877 64.3785 33.2191 65.9738 31.2102 67.0819C29.2013 68.19 26.9231 68.7718 24.6049 68.7687ZM24.6472 44.6697C22.5435 44.6661 20.4759 45.1932 18.6524 46.1979C16.8289 47.2026 15.3138 48.6495 14.2595 50.393C13.2053 52.1366 12.6491 54.1153 12.6468 56.1301C12.6446 58.1449 13.1964 60.1247 14.2467 61.8704C15.297 63.6161 16.8089 65.0661 18.6301 66.0746C20.4514 67.083 22.5178 67.6143 24.6215 67.6151C26.7253 67.6158 28.7921 67.086 30.6142 66.0788C32.4362 65.0717 33.9492 63.6227 35.0008 61.8778C36.0519 60.1354 36.6058 58.1589 36.607 56.1466C36.6081 54.1344 36.0564 52.1573 35.0073 50.4139C33.9582 48.6704 32.4486 47.222 30.6301 46.2141C28.8117 45.2062 26.7483 44.6742 24.6472 44.6716V44.6697Z" fill="#262424"/>
<path d="M50.6442 71.1108C50.5381 71.1109 50.4339 71.0843 50.342 71.0336L38.4857 64.4744C38.4169 64.4364 38.3567 64.3858 38.3083 64.3255C38.2599 64.2652 38.2245 64.1964 38.2039 64.1229C38.1833 64.0495 38.178 63.9729 38.1884 63.8975C38.1987 63.8221 38.2245 63.7494 38.2641 63.6835C38.3038 63.6176 38.3567 63.5599 38.4196 63.5136C38.4826 63.4673 38.5545 63.4333 38.6312 63.4136C38.7079 63.3939 38.7879 63.3888 38.8666 63.3987C38.9453 63.4086 39.0212 63.4333 39.09 63.4713L50.9463 70.0304C51.0617 70.0941 51.1519 70.1924 51.203 70.3102C51.254 70.4279 51.263 70.5586 51.2286 70.6818C51.1941 70.8049 51.1182 70.9138 51.0125 70.9913C50.9068 71.0689 50.7773 71.1109 50.6442 71.1108Z" fill="#262424"/>
<path d="M25.2998 121.001L21.9923 122.457C21.8738 122.51 21.7429 122.531 21.613 122.519C21.4831 122.506 21.359 122.461 21.2535 122.388C21.148 122.314 21.0649 122.215 21.0127 122.1C20.9606 121.986 20.9413 121.86 20.957 121.736L21.382 118.263C21.3945 118.162 21.3841 118.06 21.3514 117.964C21.3187 117.867 21.2645 117.778 21.1926 117.704L18.7211 115.152C18.6347 115.059 18.5753 114.947 18.549 114.825C18.5228 114.704 18.5305 114.578 18.5714 114.461C18.6123 114.343 18.685 114.238 18.782 114.156C18.8791 114.074 18.997 114.018 19.1239 113.994L22.6953 113.311C22.799 113.291 22.897 113.25 22.9825 113.19C23.0681 113.131 23.1391 113.054 23.1908 112.966L24.9735 109.925C25.0371 109.816 25.13 109.725 25.2426 109.662C25.3552 109.598 25.4834 109.565 25.6141 109.565C25.7447 109.565 25.8729 109.598 25.9856 109.662C26.0982 109.725 26.1911 109.816 26.2546 109.925L28.0373 112.966C28.089 113.054 28.1601 113.131 28.2456 113.19C28.3311 113.25 28.4291 113.291 28.5328 113.311L32.1042 113.994C32.2311 114.018 32.3491 114.074 32.4461 114.156C32.5432 114.238 32.6158 114.343 32.6568 114.461C32.6977 114.578 32.7054 114.704 32.6791 114.825C32.6528 114.947 32.5935 115.059 32.5071 115.152L30.0214 117.715C29.9495 117.79 29.8953 117.879 29.8626 117.975C29.83 118.072 29.8195 118.174 29.8321 118.275L30.2571 121.747C30.2727 121.871 30.2534 121.997 30.2013 122.112C30.1492 122.226 30.0661 122.326 29.9605 122.399C29.855 122.473 29.7309 122.518 29.601 122.53C29.4711 122.542 29.3402 122.521 29.2217 122.469L25.9142 121.012C25.8188 120.968 25.7144 120.944 25.6084 120.942C25.5023 120.94 25.397 120.96 25.2998 121.001Z" fill="#88C0C2"/>
<path d="M25.6303 132.78C24.1578 132.779 22.6913 132.601 21.2653 132.25C18.6614 131.609 16.2471 130.401 14.2102 128.72C12.1734 127.039 10.5689 124.931 9.52172 122.56C8.47453 120.188 8.01285 117.617 8.1726 115.047C8.33236 112.476 9.10924 109.976 10.4428 107.74C11.7763 105.504 13.6306 103.594 15.8613 102.156C18.0919 100.719 20.6388 99.7937 23.3037 99.453C25.9686 99.1122 28.6797 99.365 31.2259 100.192C33.7722 101.018 36.0849 102.397 37.9842 104.219C38.0434 104.272 38.0909 104.336 38.1237 104.407C38.1565 104.478 38.1741 104.555 38.1753 104.633C38.1766 104.71 38.1615 104.787 38.1309 104.859C38.1003 104.931 38.0549 104.997 37.9974 105.052C37.9399 105.106 37.8715 105.15 37.7961 105.179C37.7208 105.208 37.6402 105.222 37.5591 105.22C37.4779 105.219 37.398 105.201 37.3239 105.17C37.2499 105.138 37.1833 105.092 37.1281 105.035C34.329 102.35 30.6027 100.736 26.649 100.497C22.6953 100.257 18.7863 101.408 15.6561 103.734C12.5259 106.059 10.3899 109.399 9.64913 113.126C8.90841 116.853 9.61398 120.711 11.6333 123.975C13.6527 127.24 16.8469 129.685 20.616 130.854C24.3852 132.022 28.4699 131.832 32.1032 130.319C35.7364 128.807 38.6682 126.076 40.3478 122.64C42.0275 119.204 42.3395 115.299 41.2252 111.658C41.1801 111.51 41.1979 111.352 41.2748 111.217C41.3516 111.082 41.4813 110.982 41.6351 110.939C41.789 110.896 41.9545 110.913 42.0952 110.987C42.2359 111.06 42.3403 111.184 42.3855 111.332C43.1459 113.826 43.2901 116.455 42.8068 119.012C42.3234 121.569 41.2258 123.983 39.6005 126.063C37.9753 128.144 35.8671 129.834 33.4424 130.999C31.0178 132.165 28.3433 132.775 25.6303 132.78Z" fill="#262424"/>
<path d="M25.6303 128.677C24.5179 128.676 23.4101 128.541 22.3328 128.276C20.2321 127.76 18.2966 126.756 16.6978 125.353C15.0989 123.95 13.8861 122.19 13.1666 120.231C12.4472 118.272 12.2433 116.173 12.5732 114.12C12.903 112.067 13.7563 110.124 15.0576 108.463C16.3588 106.801 18.0678 105.472 20.0331 104.595C21.9985 103.717 24.1596 103.317 26.325 103.43C28.4904 103.543 30.5933 104.165 32.4475 105.242C34.3016 106.32 35.8498 107.818 36.9548 109.605C38.1386 111.522 38.7725 113.704 38.7923 115.931C38.8121 118.158 38.2172 120.351 37.0677 122.286C35.9182 124.222 34.255 125.833 32.2465 126.955C30.238 128.077 27.9556 128.671 25.6303 128.677ZM25.588 104.562C22.9467 104.567 20.3813 105.409 18.2909 106.955C16.2006 108.501 14.7025 110.666 14.0298 113.112C13.3571 115.558 13.5476 118.148 14.5715 120.48C15.5955 122.812 17.3956 124.754 19.6915 126.005C21.9875 127.255 24.6507 127.743 27.2666 127.394C29.8826 127.045 32.3045 125.877 34.1556 124.072C36.0067 122.268 37.1831 119.928 37.5017 117.417C37.8203 114.906 37.2634 112.364 35.9174 110.188C34.8535 108.472 33.3412 107.052 31.5295 106.067C29.7178 105.082 27.6693 104.566 25.586 104.57L25.588 104.562Z" fill="#262424"/>
<path d="M39.6761 108.643C39.5437 108.643 39.415 108.601 39.3098 108.524C39.2045 108.447 39.1285 108.339 39.0935 108.217C39.0585 108.095 39.0664 107.965 39.116 107.847C39.1656 107.73 39.2541 107.631 39.368 107.566L51.1497 100.885C51.218 100.845 51.294 100.818 51.3733 100.806C51.4526 100.794 51.5335 100.798 51.6114 100.816C51.6893 100.834 51.7627 100.867 51.8271 100.913C51.8915 100.959 51.9458 101.017 51.9867 101.083C52.0276 101.149 52.0544 101.222 52.0655 101.298C52.0765 101.374 52.0716 101.452 52.0511 101.526C52.0306 101.6 51.9948 101.67 51.9459 101.731C51.8969 101.792 51.8358 101.843 51.7661 101.881L39.9843 108.562C39.8911 108.615 39.7846 108.643 39.6761 108.643Z" fill="#262424"/>
<path d="M30.654 21.6104C32.1392 20.9906 33.3244 19.8555 33.9716 18.4331L34.8236 16.5599L35.6757 18.4331C36.3228 19.8555 37.5081 20.9906 38.9933 21.6104L40.9492 22.4265L38.9933 23.2406C37.5081 23.8604 36.3228 24.9955 35.6757 26.4179L34.8236 28.2911L33.9716 26.4179C33.3244 24.9955 32.1392 23.8604 30.654 23.2406L28.6981 22.4246L30.654 21.6104Z" fill="#88C0C2"/>
<path d="M7.66249 137.034C8.36339 136.742 8.92266 136.206 9.22762 135.535L9.63049 134.651L10.0334 135.535C10.3383 136.206 10.8976 136.742 11.5985 137.034L12.521 137.42L11.5985 137.806C10.8976 138.098 10.3383 138.633 10.0334 139.305L9.63049 140.188L9.22762 139.305C8.92266 138.633 8.36339 138.098 7.66249 137.806L6.73993 137.42L7.66249 137.034Z" fill="#88C0C2"/>
<path d="M23.0358 146.662C24.1442 146.2 25.0287 145.353 25.5114 144.291L26.148 142.893L26.7845 144.291C27.2663 145.352 28.1492 146.199 29.2561 146.662L30.7164 147.272L29.2561 147.88C28.1477 148.342 27.2632 149.189 26.7805 150.251L26.1439 151.649L25.5074 150.251C25.0246 149.189 24.1401 148.342 23.0318 147.88L21.5714 147.27L23.0358 146.662Z" fill="#88C0C2"/>
<path d="M102.6 5.95339C104.161 5.3022 105.407 4.1091 106.086 2.61401L106.983 0.646271L107.879 2.61401C108.559 4.1091 109.805 5.3022 111.366 5.95339L113.421 6.81186L111.366 7.67034C109.805 8.32153 108.559 9.51463 107.879 11.0097L106.983 12.9775L106.086 11.0097C105.407 9.51463 104.161 8.32153 102.6 7.67034L100.545 6.81186L102.6 5.95339Z" fill="#88C0C2"/>
<path d="M12.5794 11.5152C13.2832 12.6774 14.2217 13.6936 15.3402 14.5045C16.4587 15.3153 17.7347 15.9046 19.0937 16.2378L17.1116 20.2176C17.1116 20.2176 11.1633 19.4768 8.74213 13.3691L12.5794 11.5152Z" fill="#DE9244"/>
<path d="M138.722 25.6887C140.122 25.5779 141.484 25.2008 142.729 24.5798C143.974 23.9587 145.077 23.106 145.974 22.0715L148.881 25.4919C148.881 25.4919 145.636 30.3148 138.835 29.8036L138.722 25.6887Z" fill="#DE9244"/>
<path d="M0 85.3865C1.49471 84.6348 2.81801 83.6053 3.89259 82.3582C4.96716 81.1111 5.77146 79.6714 6.2585 78.1232L11.1553 80.608C11.1553 80.608 9.92457 87.4199 2.13115 89.8988L0 85.3865Z" fill="#DE9244"/>
<path d="M67.2664 155.608C68.8847 155.148 70.3912 154.384 71.6978 153.361C73.0045 152.337 74.0851 151.075 74.8765 149.647L79.1751 152.994C79.1751 152.994 76.5927 159.439 68.4428 160.433L67.2664 155.608Z" fill="#DE9244"/>
<path d="M89.2285 4.81518C90.6169 4.81518 91.7424 3.73727 91.7424 2.40759C91.7424 1.07792 90.6169 0 89.2285 0C87.8402 0 86.7147 1.07792 86.7147 2.40759C86.7147 3.73727 87.8402 4.81518 89.2285 4.81518Z" fill="#DE9244"/>
<path d="M55.7545 48.0766C57.1428 48.0766 58.2684 46.9987 58.2684 45.669C58.2684 44.3393 57.1428 43.2614 55.7545 43.2614C54.3661 43.2614 53.2406 44.3393 53.2406 45.669C53.2406 46.9987 54.3661 48.0766 55.7545 48.0766Z" fill="#DE9244"/>
<path d="M54.0745 138.714C55.4629 138.714 56.5884 137.636 56.5884 136.307C56.5884 134.977 55.4629 133.899 54.0745 133.899C52.6861 133.899 51.5606 134.977 51.5606 136.307C51.5606 137.636 52.6861 138.714 54.0745 138.714Z" fill="#DE9244"/>
<path d="M112.677 215.136C114.532 215.136 116.035 213.696 116.035 211.92C116.035 210.144 114.532 208.704 112.677 208.704C110.823 208.704 109.319 210.144 109.319 211.92C109.319 213.696 110.823 215.136 112.677 215.136Z" fill="#88C0C2"/>
</svg>
