<svg width="10" height="11" viewBox="0 0 10 11" fill="none" xmlns="http://www.w3.org/2000/svg">
<path d="M6.99639 0.158871C7.09509 0.057146 7.22894 0 7.3685 0C7.50807 0 7.64191 0.057146 7.74061 0.158871L9.8459 2.32934C9.94457 2.4311 10 2.56909 10 2.71298C10 2.85686 9.94457 2.99485 9.8459 3.09661L3.00372 10.1506C2.90504 10.2524 2.77119 10.3096 2.63161 10.3096H0.526322C0.386733 10.3096 0.25286 10.2525 0.154156 10.1507C0.0554516 10.0489 0 9.91092 0 9.76701V7.59654C2.98095e-05 7.45264 0.0555009 7.31465 0.154212 7.21291L5.41743 1.78673L6.99639 0.158871ZM5.78954 2.93762L1.05264 7.82118V9.22439H2.41371L7.15061 4.34083L5.78954 2.93762ZM7.89483 3.57357L8.72957 2.71298L7.3685 1.30976L6.53376 2.17036L7.89483 3.57357Z" fill="#0D0D0D"/>
</svg>
