<svg width="23" height="24" viewBox="0 0 23 24" fill="none" xmlns="http://www.w3.org/2000/svg">
<path d="M15.8125 8.25024V6.75024C15.8125 5.55677 15.3581 4.41218 14.5494 3.56826C13.7406 2.72435 12.6437 2.25024 11.5 2.25024V2.25024C10.3563 2.25024 9.25935 2.72435 8.4506 3.56826C7.64185 4.41218 7.1875 5.55677 7.1875 6.75024V8.25024M19.4062 8.25024C19.5969 8.25024 19.7797 8.32926 19.9145 8.46991C20.0493 8.61057 20.125 8.80133 20.125 9.00024V19.1252C20.125 20.5427 18.9678 21.7502 17.6094 21.7502H5.39062C4.03219 21.7502 2.875 20.6013 2.875 19.1838V9.00024C2.875 8.80133 2.95072 8.61057 3.08552 8.46991C3.22031 8.32926 3.40313 8.25024 3.59375 8.25024H19.4062Z" stroke="#4A6964" stroke-width="1.63307" stroke-linecap="round" stroke-linejoin="round"/>
</svg>
