<svg width="247" height="293" viewBox="0 0 247 293" fill="none" xmlns="http://www.w3.org/2000/svg">
<path d="M219.724 31.0472L210.577 20.9709L206.189 28.5899H132.038C127.247 28.5899 122.883 32.8843 122.29 38.1812L103.355 207.184L94.5748 222.431L103.089 231.824C104.464 233.591 106.528 234.687 108.949 234.687H191.125C195.916 234.687 200.281 230.393 200.873 225.096L221.816 38.1835C222.121 35.3486 221.295 32.8027 219.724 31.0472Z" fill="#88C0C2"/>
<path d="M182.417 225.07H100.238C95.4477 225.07 92.0445 220.776 92.6475 215.479L113.59 28.5666C114.183 23.2696 118.547 18.9752 123.338 18.9752H205.514C210.305 18.9752 213.708 23.2696 213.105 28.5666L192.162 215.479C191.572 220.776 187.207 225.07 182.417 225.07Z" fill="white"/>
<path d="M182.417 225.77H100.238C97.7504 225.77 95.5216 224.697 93.9654 222.739C92.4093 220.78 91.6987 218.16 92.0108 215.381L112.953 28.4686C113.586 22.8429 118.24 18.2641 123.33 18.2641H205.506C207.994 18.2641 210.223 19.3365 211.779 21.2949C213.335 23.2533 214.045 25.8738 213.733 28.6528L192.791 215.565C192.163 221.193 187.507 225.77 182.417 225.77ZM123.332 19.6746C118.857 19.6746 114.765 23.7009 114.21 28.6528L93.2675 215.565C93.0018 217.938 93.5859 220.16 94.9143 221.823C96.2427 223.485 98.1173 224.368 100.238 224.368H182.414C186.889 224.368 190.982 220.342 191.536 215.39L212.479 28.4779C212.744 26.1046 212.16 23.8804 210.832 22.2205C209.504 20.5605 207.629 19.6746 205.508 19.6746H123.33H123.332Z" fill="#262424"/>
<path d="M182.832 218.423H101.44C101.047 218.43 100.657 218.344 100.297 218.17C99.9371 217.996 99.615 217.738 99.3529 217.414C99.0917 217.082 98.8982 216.693 98.7854 216.271C98.6726 215.849 98.6432 215.406 98.6992 214.971L119.545 28.9256C119.663 28.0222 120.066 27.1942 120.684 26.5886C121.301 25.9829 122.093 25.6388 122.918 25.6173H145.691C145.978 25.6123 146.263 25.6758 146.525 25.8033C146.788 25.9308 147.023 26.1195 147.214 26.3564C147.404 26.5979 147.546 26.882 147.628 27.1893C147.711 27.4967 147.733 27.8201 147.692 28.1376C147.67 28.29 147.677 28.4459 147.714 28.5951C147.75 28.7442 147.815 28.883 147.903 29.0025C147.996 29.1147 148.11 29.2036 148.236 29.2631C148.363 29.3226 148.499 29.3514 148.637 29.3475H177.735C178.071 29.3334 178.392 29.1904 178.642 28.9432C178.893 28.696 179.057 28.36 179.108 27.993C179.186 27.3419 179.474 26.744 179.92 26.3097C180.36 25.8673 180.932 25.6184 181.527 25.6103H204.3C204.693 25.6032 205.082 25.6897 205.443 25.8639C205.803 26.0381 206.125 26.2959 206.387 26.6198C206.648 26.9514 206.842 27.3412 206.954 27.7628C207.067 28.1844 207.097 28.6278 207.041 29.0631L186.195 215.108C186.079 216.011 185.677 216.839 185.061 217.445C184.446 218.052 183.656 218.398 182.832 218.423ZM122.914 26.783C122.346 26.8004 121.801 27.0394 121.377 27.458C120.952 27.8765 120.675 28.4476 120.595 29.0701L99.7493 215.115C99.7123 215.387 99.7286 215.664 99.797 215.928C99.8654 216.191 99.9843 216.436 100.146 216.645C100.309 216.845 100.509 217.003 100.733 217.109C100.957 217.216 101.199 217.267 101.442 217.26H182.834C183.403 217.243 183.947 217.004 184.372 216.585C184.796 216.167 185.073 215.595 185.154 214.973L205.999 28.9279C206.036 28.6564 206.02 28.3793 205.952 28.1154C205.883 27.8515 205.764 27.607 205.603 27.3985C205.439 27.1985 205.239 27.0399 205.015 26.9336C204.791 26.8274 204.549 26.776 204.306 26.783H181.533C181.198 26.7896 180.876 26.9314 180.628 27.1817C180.374 27.4267 180.207 27.7653 180.16 28.1352C180.082 28.7868 179.794 29.3854 179.35 29.822C178.906 30.2585 178.334 30.5039 177.74 30.5132H148.641C148.353 30.5177 148.068 30.4536 147.805 30.3252C147.541 30.1969 147.306 30.0074 147.115 29.7695C146.926 29.5278 146.786 29.2442 146.704 28.9379C146.622 28.6315 146.6 28.3094 146.64 27.993C146.662 27.8393 146.653 27.6824 146.615 27.5327C146.577 27.3831 146.51 27.2443 146.419 27.1257C146.326 27.0134 146.212 26.9245 146.086 26.8649C145.959 26.8054 145.822 26.7767 145.685 26.7807H122.912L122.914 26.783Z" fill="#262424"/>
<path d="M206.522 29.0002L204.272 49.0758H117.82L120.07 29.0002C120.169 28.2377 120.509 27.5386 121.03 27.0266C121.55 26.5146 122.218 26.2227 122.914 26.2025H145.687C145.901 26.1969 146.113 26.2432 146.309 26.3384C146.505 26.4335 146.679 26.575 146.82 26.753C146.961 26.9309 147.064 27.1409 147.124 27.3681C147.183 27.5953 147.196 27.8341 147.163 28.0676C147.133 28.3021 147.148 28.541 147.208 28.7685C147.267 28.996 147.37 29.2069 147.509 29.3872C147.651 29.5624 147.826 29.7018 148.021 29.7959C148.217 29.89 148.428 29.9367 148.641 29.9327H177.74C178.204 29.9202 178.65 29.726 178.998 29.3845C179.345 29.043 179.572 28.5764 179.637 28.0676C179.698 27.5581 179.923 27.0898 180.27 26.748C180.614 26.4037 181.06 26.2097 181.525 26.2025H204.297C204.619 26.1923 204.939 26.2606 205.234 26.4025C205.529 26.5444 205.792 26.7565 206.004 27.0236C206.216 27.2908 206.373 27.6064 206.462 27.948C206.552 28.2896 206.572 28.6489 206.522 29.0002Z" fill="#DE9244"/>
<path d="M204.272 49.7752H117.82C117.73 49.776 117.641 49.7555 117.558 49.715C117.476 49.6746 117.402 49.6152 117.343 49.5409C117.283 49.4665 117.238 49.3788 117.211 49.2837C117.184 49.1887 117.176 49.0884 117.187 48.9895L119.437 28.9139C119.559 27.984 119.974 27.1316 120.609 26.5075C121.244 25.8833 122.058 25.5275 122.908 25.5031H145.681C145.983 25.4981 146.282 25.5649 146.558 25.6988C146.835 25.8328 147.082 26.0308 147.283 26.2794C147.483 26.5325 147.631 26.8299 147.718 27.1516C147.805 27.4733 147.829 27.8119 147.787 28.1446C147.768 28.2814 147.775 28.4212 147.809 28.5546C147.842 28.6881 147.901 28.8121 147.981 28.9186C148.064 29.0184 148.166 29.0973 148.279 29.15C148.392 29.2027 148.514 29.2279 148.637 29.224H177.735C178.045 29.2101 178.341 29.0775 178.571 28.8491C178.802 28.6207 178.954 28.3106 179.001 27.972C179.085 27.2929 179.387 26.6696 179.851 26.2151C180.315 25.7605 180.911 25.5046 181.531 25.4938H204.304C204.712 25.4869 205.118 25.5778 205.492 25.76C205.866 25.9423 206.2 26.2117 206.471 26.5499C206.742 26.8937 206.943 27.298 207.06 27.7352C207.178 28.1725 207.208 28.6326 207.15 29.0841L204.9 49.1644C204.881 49.3333 204.806 49.4886 204.691 49.6011C204.575 49.7135 204.426 49.7754 204.272 49.7752ZM118.535 48.3764H203.722L205.902 28.9139C205.937 28.6591 205.922 28.399 205.858 28.1512C205.794 27.9034 205.682 27.6738 205.531 27.4778C205.377 27.2909 205.189 27.1428 204.979 27.0434C204.769 26.9441 204.543 26.8958 204.314 26.9019H181.542C181.229 26.9059 180.928 27.038 180.698 27.2726C180.463 27.4992 180.309 27.8121 180.266 28.1539C180.183 28.834 179.882 29.4586 179.418 29.9136C178.953 30.3686 178.356 30.6237 177.735 30.6321H148.637C148.334 30.6372 148.034 30.57 147.757 30.4353C147.479 30.3005 147.232 30.1013 147.03 29.8511C146.832 29.5973 146.685 29.2997 146.599 28.9781C146.512 28.6565 146.489 28.3183 146.53 27.986C146.55 27.849 146.542 27.709 146.508 27.5755C146.475 27.442 146.415 27.318 146.334 27.212C146.252 27.1123 146.15 27.0334 146.038 26.9807C145.925 26.928 145.803 26.9027 145.681 26.9066H122.908C122.365 26.9231 121.844 27.1514 121.439 27.5512C121.033 27.951 120.769 28.4964 120.692 29.0911L118.535 48.3764Z" fill="#DE9244"/>
<path d="M187.243 201.057L185.676 215.045C185.577 215.808 185.237 216.507 184.717 217.019C184.196 217.531 183.528 217.823 182.832 217.843H101.44C101.12 217.852 100.801 217.782 100.507 217.64C100.213 217.497 99.951 217.285 99.7396 217.018C99.5281 216.751 99.3723 216.436 99.2833 216.095C99.1942 215.754 99.1741 215.396 99.2243 215.045L100.791 201.057H187.243Z" fill="#DE9244"/>
<path d="M182.832 218.542H101.44C101.033 218.55 100.628 218.46 100.254 218.28C99.8808 218.099 99.5466 217.832 99.2748 217.496C99.0038 217.152 98.8029 216.747 98.6857 216.31C98.5686 215.873 98.5379 215.413 98.5959 214.961L100.163 200.973C100.182 200.803 100.257 200.646 100.373 200.533C100.49 200.42 100.64 200.359 100.795 200.36H187.247C187.337 200.359 187.427 200.38 187.509 200.42C187.591 200.46 187.665 200.52 187.725 200.594C187.785 200.669 187.829 200.756 187.856 200.851C187.883 200.946 187.891 201.047 187.88 201.145L186.313 215.134C186.191 216.065 185.774 216.919 185.137 217.543C184.5 218.166 183.683 218.521 182.832 218.542ZM101.35 201.756L99.8505 215.132C99.8156 215.386 99.8307 215.646 99.8947 215.894C99.9588 216.142 100.07 216.372 100.222 216.568C100.375 216.754 100.563 216.902 100.773 217.002C100.983 217.101 101.21 217.149 101.438 217.144H182.83C183.373 217.127 183.893 216.899 184.299 216.499C184.704 216.099 184.969 215.554 185.046 214.959L186.522 201.756H101.335H101.35Z" fill="#DE9244"/>
<path d="M176.19 26.2025H151.028C150.814 26.2082 150.602 26.1618 150.406 26.0666C150.21 25.9715 150.036 25.83 149.895 25.652C149.754 25.4741 149.651 25.2641 149.591 25.0369C149.532 24.8097 149.519 24.5709 149.552 24.3374C149.618 23.8286 149.844 23.362 150.192 23.0205C150.539 22.679 150.985 22.4848 151.45 22.4723H176.612C176.825 22.4666 177.038 22.513 177.233 22.6082C177.429 22.7033 177.604 22.8448 177.745 23.0228C177.885 23.2007 177.989 23.4107 178.048 23.6379C178.108 23.8651 178.121 24.1039 178.088 24.3374C178.022 24.8462 177.795 25.3128 177.448 25.6543C177.1 25.9958 176.655 26.19 176.19 26.2025Z" fill="#88C0C2"/>
<path d="M136.96 166.114L137.828 167.849C137.889 167.963 137.987 168.046 138.102 168.082L139.857 168.665C140.215 168.783 140.306 169.28 140.03 169.618L138.682 171.273C138.593 171.382 138.537 171.519 138.524 171.665L138.351 173.763C138.34 173.864 138.31 173.96 138.262 174.047C138.214 174.133 138.15 174.207 138.074 174.263C137.998 174.319 137.911 174.356 137.821 174.371C137.73 174.387 137.638 174.381 137.55 174.353L135.846 173.642C135.726 173.594 135.594 173.594 135.473 173.642L133.613 174.36C133.533 174.398 133.444 174.412 133.357 174.399C133.27 174.386 133.188 174.347 133.119 174.287C133.051 174.226 132.998 174.146 132.967 174.055C132.937 173.964 132.929 173.866 132.945 173.77L133.24 171.672C133.261 171.536 133.235 171.397 133.168 171.28L132.19 169.625C132.147 169.536 132.123 169.437 132.121 169.336C132.118 169.236 132.136 169.135 132.173 169.043C132.21 168.951 132.266 168.87 132.337 168.806C132.407 168.741 132.489 168.695 132.578 168.672L134.463 168.089C134.592 168.05 134.707 167.969 134.792 167.856L136.057 166.121C136.31 165.757 136.782 165.757 136.96 166.114Z" fill="#DE9244"/>
<path d="M148.386 166.114L149.255 167.849C149.315 167.963 149.414 168.046 149.529 168.082L151.283 168.665C151.642 168.783 151.732 169.28 151.456 169.618L150.109 171.273C150.019 171.382 149.964 171.519 149.951 171.665L149.778 173.763C149.767 173.864 149.736 173.96 149.689 174.047C149.641 174.133 149.576 174.207 149.5 174.263C149.424 174.319 149.338 174.356 149.247 174.371C149.157 174.387 149.064 174.381 148.976 174.353L147.273 173.642C147.152 173.594 147.02 173.594 146.899 173.642L145.04 174.36C144.959 174.398 144.87 174.412 144.783 174.399C144.696 174.386 144.614 174.347 144.546 174.287C144.477 174.226 144.425 174.146 144.394 174.055C144.363 173.964 144.355 173.866 144.371 173.77L144.666 171.672C144.687 171.536 144.662 171.397 144.595 171.28L143.616 169.625C143.574 169.536 143.55 169.437 143.547 169.336C143.544 169.236 143.562 169.135 143.599 169.043C143.637 168.951 143.693 168.87 143.763 168.806C143.833 168.741 143.916 168.695 144.004 168.672L145.889 168.089C146.018 168.05 146.133 167.969 146.218 167.856L147.484 166.121C147.737 165.757 148.209 165.757 148.386 166.114Z" fill="#DE9244"/>
<path d="M159.812 166.114L160.681 167.849C160.742 167.963 160.84 168.046 160.955 168.082L162.71 168.665C163.068 168.783 163.159 169.28 162.883 169.618L161.535 171.273C161.446 171.382 161.39 171.519 161.377 171.665L161.204 173.763C161.193 173.864 161.163 173.96 161.115 174.047C161.067 174.133 161.003 174.207 160.927 174.263C160.85 174.319 160.764 174.356 160.674 174.371C160.583 174.387 160.491 174.381 160.403 174.353L158.699 173.642C158.579 173.594 158.446 173.594 158.326 173.642L156.466 174.36C156.385 174.398 156.297 174.412 156.21 174.399C156.123 174.386 156.041 174.347 155.972 174.287C155.904 174.226 155.851 174.146 155.82 174.055C155.79 173.964 155.782 173.866 155.798 173.77L156.093 171.672C156.114 171.536 156.088 171.397 156.021 171.28L155.043 169.625C155 169.535 154.977 169.435 154.975 169.334C154.972 169.232 154.992 169.131 155.03 169.039C155.069 168.947 155.126 168.866 155.198 168.802C155.27 168.738 155.354 168.694 155.443 168.672L157.329 168.089C157.457 168.05 157.572 167.969 157.657 167.856L158.923 166.121C159.163 165.757 159.635 165.757 159.812 166.114Z" fill="#DE9244"/>
<path d="M176.002 154.338H122.503C119.882 154.338 118.022 151.99 118.347 149.092L124.974 89.9404C125.299 87.0425 127.686 84.6948 130.307 84.6948H183.806C186.427 84.6948 188.287 87.0425 187.962 89.9404L181.335 149.092C181.01 151.979 178.623 154.338 176.002 154.338Z" fill="#88C0C2"/>
<path d="M171.047 134.281H166.294C165.866 134.294 165.449 134.132 165.123 133.825C164.797 133.518 164.586 133.088 164.529 132.619L162.615 117.495H149.331C147.545 117.495 146.277 115.896 146.499 113.921L147.131 108.326C147.257 107.351 147.691 106.457 148.357 105.802C149.022 105.147 149.876 104.774 150.767 104.749H165.052C167.931 104.749 170.206 106.892 170.596 109.969L171.549 117.495L173.32 131.484C173.501 132.896 172.38 134.281 171.047 134.281Z" fill="white"/>
<path d="M146.507 113.921H141.763C141.669 113.925 141.575 113.906 141.489 113.865C141.403 113.823 141.326 113.762 141.264 113.683C141.202 113.605 141.156 113.513 141.131 113.413C141.105 113.313 141.1 113.208 141.116 113.105L141.561 109.142C141.589 108.919 141.688 108.716 141.84 108.566C141.992 108.417 142.186 108.332 142.389 108.326H147.134L146.507 113.921Z" fill="white"/>
<path d="M133.217 111.783H141.265L141.457 110.074H133.409C133.196 110.08 132.992 110.17 132.833 110.326C132.674 110.483 132.57 110.697 132.54 110.93C132.525 111.037 132.531 111.146 132.558 111.25C132.586 111.354 132.633 111.45 132.698 111.532C132.762 111.613 132.842 111.678 132.932 111.721C133.022 111.765 133.119 111.786 133.217 111.783Z" fill="white"/>
<path d="M135.943 134.281C135.819 134.285 135.696 134.258 135.582 134.204C135.468 134.149 135.367 134.066 135.285 133.963C135.203 133.86 135.143 133.738 135.109 133.606C135.075 133.474 135.067 133.335 135.087 133.199L136.255 122.773C136.293 122.479 136.424 122.208 136.625 122.01C136.827 121.812 137.085 121.699 137.354 121.692C137.478 121.688 137.601 121.714 137.715 121.769C137.829 121.824 137.93 121.906 138.012 122.01C138.094 122.113 138.154 122.235 138.188 122.367C138.223 122.499 138.23 122.638 138.21 122.773L137.042 133.202C137.004 133.496 136.872 133.766 136.671 133.964C136.47 134.161 136.212 134.274 135.943 134.281Z" fill="white"/>
<path d="M142.463 134.281C142.339 134.285 142.215 134.258 142.102 134.203C141.988 134.148 141.886 134.066 141.805 133.963C141.723 133.86 141.663 133.738 141.629 133.606C141.594 133.474 141.587 133.335 141.607 133.199L142.775 122.771C142.813 122.476 142.944 122.206 143.145 122.008C143.346 121.81 143.604 121.697 143.874 121.689C143.998 121.685 144.121 121.712 144.235 121.767C144.349 121.822 144.45 121.904 144.532 122.007C144.614 122.111 144.674 122.233 144.708 122.365C144.742 122.497 144.75 122.636 144.73 122.771L143.562 133.199C143.524 133.494 143.393 133.765 143.191 133.963C142.99 134.161 142.732 134.274 142.463 134.281Z" fill="white"/>
<path d="M176.346 64.6821H142.248C141.981 64.6895 141.715 64.6318 141.47 64.5131C141.225 64.3943 141.007 64.2174 140.83 63.9949C140.654 63.7725 140.524 63.5099 140.45 63.2257C140.376 62.9416 140.359 62.6429 140.401 62.3507C140.483 61.7151 140.766 61.1321 141.2 60.7053C141.634 60.2785 142.19 60.0355 142.771 60.0193H176.869C177.136 60.0119 177.402 60.0697 177.647 60.1884C177.892 60.3072 178.11 60.4841 178.287 60.7065C178.463 60.929 178.593 61.1916 178.667 61.4758C178.741 61.7599 178.758 62.0586 178.716 62.3507C178.634 62.9864 178.351 63.5693 177.917 63.9961C177.483 64.4229 176.927 64.666 176.346 64.6821Z" fill="#88C0C2"/>
<path d="M164.9 77.4279H150.838C150.571 77.4353 150.305 77.3775 150.06 77.2588C149.815 77.14 149.597 76.9632 149.421 76.7407C149.244 76.5182 149.115 76.2556 149.04 75.9715C148.966 75.6873 148.949 75.3886 148.991 75.0965C149.073 74.4608 149.356 73.8779 149.79 73.4511C150.224 73.0243 150.781 72.7812 151.361 72.7651H165.423C165.691 72.7577 165.956 72.8154 166.201 72.9342C166.446 73.0529 166.665 73.2298 166.841 73.4523C167.017 73.6747 167.147 73.9374 167.221 74.2215C167.296 74.5056 167.312 74.8044 167.271 75.0965C167.188 75.7321 166.905 76.3151 166.472 76.7419C166.038 77.1687 165.481 77.4117 164.9 77.4279Z" fill="#88C0C2"/>
<path d="M138.965 36.5888H126.805C126.553 36.5931 126.304 36.5374 126.073 36.4255C125.843 36.3137 125.637 36.1484 125.47 35.9407C125.303 35.7294 125.178 35.4807 125.105 35.2116C125.033 34.9425 125.013 34.6592 125.048 34.381C125.117 33.814 125.367 33.2933 125.754 32.9139C126.142 32.5346 126.639 32.3222 127.157 32.3154H139.313C139.564 32.3112 139.814 32.3669 140.044 32.4787C140.274 32.5905 140.48 32.7559 140.648 32.9635C140.815 33.1751 140.94 33.4242 141.012 33.6937C141.085 33.9633 141.105 34.247 141.069 34.5256C141 35.0913 140.75 35.6109 140.364 35.9897C139.978 36.3684 139.481 36.5811 138.965 36.5888ZM127.157 33.4811C126.899 33.4929 126.653 33.6032 126.461 33.7933C126.268 33.9834 126.142 34.2414 126.102 34.5232C126.086 34.6376 126.093 34.7545 126.121 34.8659C126.149 34.9774 126.199 35.0807 126.267 35.169C126.336 35.2519 126.42 35.3175 126.514 35.3613C126.608 35.4052 126.709 35.4262 126.811 35.4232H138.971C139.229 35.4114 139.475 35.301 139.667 35.1109C139.859 34.9209 139.986 34.6629 140.025 34.381C140.041 34.2666 140.035 34.1498 140.007 34.0384C139.978 33.927 139.929 33.8236 139.861 33.7352C139.792 33.6523 139.708 33.5868 139.614 33.5429C139.52 33.4991 139.419 33.478 139.317 33.4811H127.153H127.157Z" fill="white"/>
<path d="M138.25 42.9629H126.092C125.84 42.9671 125.591 42.9114 125.361 42.7996C125.13 42.6877 124.924 42.5224 124.757 42.3148C124.589 42.1032 124.465 41.8541 124.392 41.5846C124.32 41.315 124.3 41.0313 124.335 40.7527C124.404 40.1858 124.655 39.665 125.042 39.2856C125.429 38.9063 125.927 38.6939 126.444 38.6871H138.604C138.856 38.6829 139.105 38.7386 139.335 38.8504C139.566 38.9623 139.772 39.1276 139.939 39.3352C140.106 39.5466 140.231 39.7952 140.303 40.0643C140.376 40.3335 140.396 40.6167 140.361 40.8949C140.293 41.4627 140.042 41.9844 139.654 42.3642C139.267 42.7441 138.768 42.9566 138.25 42.9629ZM126.442 39.8551C126.184 39.8669 125.938 39.9773 125.746 40.1674C125.554 40.3574 125.427 40.6154 125.388 40.8973C125.372 41.0117 125.378 41.1285 125.406 41.2399C125.435 41.3513 125.484 41.4547 125.552 41.5431C125.621 41.626 125.705 41.6915 125.799 41.7354C125.893 41.7792 125.994 41.8003 126.096 41.7972H138.256C138.514 41.7854 138.76 41.675 138.952 41.485C139.145 41.2949 139.271 41.0369 139.311 40.7551C139.327 40.6407 139.32 40.5238 139.292 40.4124C139.264 40.3009 139.214 40.1976 139.146 40.1093C139.077 40.0264 138.993 39.9608 138.899 39.917C138.805 39.8731 138.704 39.852 138.602 39.8551H126.44H126.442Z" fill="white"/>
<path d="M198.037 41.4079H189.181C189.041 41.4079 188.907 41.3464 188.808 41.2371C188.709 41.1278 188.654 40.9796 188.654 40.825V31.4878C188.654 31.3332 188.709 31.185 188.808 31.0756C188.907 30.9663 189.041 30.9049 189.181 30.9049H200.146C200.226 30.9048 200.305 30.9249 200.377 30.9636C200.449 31.0022 200.512 31.0586 200.561 31.1282C200.611 31.1979 200.645 31.279 200.662 31.3656C200.678 31.4521 200.677 31.5417 200.658 31.6277L198.549 40.9649C198.521 41.0914 198.455 41.2039 198.362 41.2842C198.269 41.3645 198.155 41.408 198.037 41.4079ZM189.708 40.2422H197.615L199.454 32.0706H189.691L189.708 40.2422Z" fill="white"/>
<path d="M189.164 32.0706H186.598C186.458 32.0706 186.324 32.0092 186.225 31.8999C186.126 31.7906 186.071 31.6424 186.071 31.4878C186.071 31.3332 186.126 31.185 186.225 31.0756C186.324 30.9663 186.458 30.9049 186.598 30.9049H189.164C189.304 30.9049 189.438 30.9663 189.537 31.0756C189.636 31.185 189.691 31.3332 189.691 31.4878C189.691 31.6424 189.636 31.7906 189.537 31.8999C189.438 32.0092 189.304 32.0706 189.164 32.0706Z" fill="white"/>
<path d="M190.488 46.833C190.238 46.8371 189.99 46.7816 189.76 46.6701C189.531 46.5587 189.326 46.394 189.16 46.1872C188.993 45.9767 188.868 45.7289 188.796 45.4605C188.723 45.1922 188.703 44.9096 188.738 44.6321C188.806 44.0686 189.055 43.5509 189.439 43.1733C189.823 42.7958 190.318 42.5838 190.832 42.5759C191.082 42.5717 191.331 42.6273 191.56 42.7387C191.789 42.8502 191.994 43.0149 192.16 43.2217C192.328 43.4321 192.452 43.68 192.525 43.9483C192.597 44.2167 192.617 44.4992 192.582 44.7767C192.514 45.34 192.265 45.8575 191.881 46.2349C191.496 46.6124 191.002 46.8246 190.488 46.833ZM190.834 43.7439C190.577 43.7531 190.331 43.8613 190.138 44.0499C189.946 44.2385 189.819 44.4956 189.78 44.7767C189.764 44.8898 189.77 45.0054 189.798 45.1156C189.826 45.2258 189.875 45.3281 189.942 45.4155C190.01 45.4975 190.094 45.5625 190.186 45.6059C190.279 45.6493 190.379 45.6703 190.48 45.6673C190.737 45.6581 190.983 45.5498 191.176 45.3612C191.368 45.1726 191.495 44.9156 191.534 44.6345C191.55 44.5214 191.544 44.4058 191.516 44.2956C191.488 44.1854 191.439 44.0831 191.372 43.9957C191.303 43.9141 191.22 43.8496 191.127 43.8065C191.035 43.7635 190.935 43.7429 190.834 43.7462V43.7439Z" fill="white"/>
<path d="M195.496 46.833C195.246 46.8371 194.998 46.7816 194.768 46.6701C194.539 46.5587 194.334 46.394 194.168 46.1872C194.001 45.9767 193.876 45.7289 193.804 45.4605C193.731 45.1922 193.711 44.9096 193.746 44.6321C193.814 44.0686 194.063 43.5509 194.447 43.1733C194.831 42.7958 195.326 42.5838 195.84 42.5759C196.09 42.5717 196.339 42.6273 196.568 42.7387C196.797 42.8502 197.002 43.0149 197.168 43.2217C197.336 43.4321 197.46 43.68 197.533 43.9483C197.605 44.2167 197.625 44.4992 197.59 44.7767C197.522 45.34 197.273 45.8575 196.889 46.2349C196.504 46.6124 196.01 46.8246 195.496 46.833ZM195.842 43.7439C195.585 43.7531 195.339 43.8613 195.146 44.0499C194.954 44.2385 194.827 44.4956 194.788 44.7767C194.772 44.8898 194.778 45.0054 194.806 45.1156C194.834 45.2258 194.883 45.3281 194.95 45.4155C195.018 45.4975 195.101 45.5625 195.194 45.6059C195.287 45.6493 195.387 45.6703 195.488 45.6673C195.745 45.6581 195.991 45.5498 196.183 45.3612C196.376 45.1726 196.503 44.9156 196.542 44.6345C196.558 44.5214 196.552 44.4058 196.524 44.2956C196.496 44.1854 196.447 44.0831 196.38 43.9957C196.311 43.9141 196.228 43.8496 196.135 43.8065C196.043 43.7635 195.943 43.7429 195.842 43.7462V43.7439Z" fill="white"/>
<path d="M161.51 192.664H128.405C125.611 192.664 123.625 190.158 123.977 187.069C124.323 183.979 126.87 181.473 129.67 181.473H162.775C165.569 181.473 167.555 183.979 167.203 187.069C166.851 190.158 164.3 192.664 161.51 192.664Z" fill="#88C0C2"/>
<path d="M181.227 235.181C181.227 235.181 169.864 238.832 162.777 219.911C154.132 196.83 175.612 189.913 182.809 212.684C188.924 232.034 181.227 235.181 181.227 235.181Z" fill="#DE9244"/>
<path d="M178.921 236.165C177.396 236.159 175.884 235.867 174.448 235.3C170.927 233.927 165.942 230.19 162.191 220.177C159.344 212.574 159.45 205.806 162.476 201.609C164.517 198.781 167.616 197.523 170.98 198.157C176.251 199.147 180.89 204.491 183.403 212.453C189.651 232.225 181.782 235.699 181.445 235.837L181.402 235.853C180.591 236.076 179.757 236.181 178.921 236.165ZM169.307 199.397C168.183 199.38 167.071 199.65 166.056 200.185C165.041 200.721 164.152 201.507 163.456 202.484C160.715 206.27 160.685 212.525 163.351 219.643C166.161 227.147 170.115 232.097 174.783 233.953C178.107 235.272 180.726 234.599 181.014 234.517C181.225 234.414 182.79 233.584 183.756 230.787C184.721 227.989 185.251 222.585 182.195 212.91C179.834 205.438 175.557 200.437 170.754 199.532C170.276 199.443 169.792 199.397 169.307 199.397Z" fill="#262424"/>
<path d="M189.837 258.668C183.981 232.901 168.47 208.254 168.47 208.254C168.47 208.254 182.598 233.899 187.026 260.011L189.837 258.668Z" fill="white"/>
<path d="M187.026 260.71C186.878 260.71 186.735 260.653 186.622 260.549C186.508 260.445 186.431 260.3 186.404 260.139C182.05 234.459 168.07 208.872 167.931 208.615C167.857 208.461 167.838 208.282 167.877 208.113C167.917 207.945 168.011 207.798 168.143 207.703C168.275 207.607 168.435 207.57 168.59 207.598C168.746 207.625 168.887 207.716 168.985 207.853C169.141 208.1 184.628 232.904 190.446 258.495C190.483 258.657 190.467 258.827 190.4 258.976C190.334 259.125 190.221 259.243 190.083 259.309L187.273 260.652C187.195 260.689 187.111 260.709 187.026 260.71ZM178.444 228.448C181.959 237.308 185.56 248.13 187.496 259.025L189.088 258.265C186.598 247.566 182.433 237.037 178.444 228.448Z" fill="#262424"/>
<path d="M213.605 240.091C213.605 240.091 224.856 242.015 237.643 228.227C260.415 203.675 231.036 197.453 217.189 222.042C207.897 238.525 213.605 240.091 213.605 240.091Z" fill="#DE9244"/>
<path d="M215.117 240.884C214.579 240.892 214.041 240.859 213.508 240.784L213.453 240.772C213.326 240.737 212.205 240.387 211.599 238.739C210.404 235.475 212.103 229.74 216.647 221.673C219.709 216.239 223.766 211.861 228.382 209.012C232.388 206.538 236.666 205.37 240.122 205.808C243.304 206.209 245.504 207.883 246.32 210.52C247.715 215.034 244.793 221.501 238.096 228.728C231.399 235.955 225.094 238.853 220.993 240.01C219.075 240.569 217.101 240.862 215.117 240.884ZM213.744 239.406C214.109 239.455 216.782 239.763 220.751 238.63C224.683 237.508 230.731 234.706 237.198 227.726C243.448 220.988 246.324 214.887 245.122 210.963C244.472 208.865 242.646 207.526 239.977 207.188C233.63 206.389 223.952 211.355 217.721 222.403C212.11 232.363 212.196 236.538 212.749 238.14C213.071 239.084 213.615 239.355 213.744 239.406Z" fill="#262424"/>
<path d="M199.608 258.934C211.374 238.264 232.54 218.489 232.54 218.489C232.54 218.489 212.529 239.063 202.111 260.011L199.608 258.934Z" fill="white"/>
<path d="M202.109 260.71C202.03 260.711 201.952 260.695 201.879 260.664L199.376 259.586C199.289 259.549 199.211 259.491 199.147 259.416C199.083 259.341 199.034 259.252 199.005 259.154C198.976 259.056 198.967 258.953 198.978 258.851C198.989 258.748 199.021 258.65 199.07 258.563C210.754 238.047 231.918 218.153 232.129 217.955C232.191 217.894 232.263 217.846 232.342 217.816C232.421 217.786 232.504 217.773 232.587 217.778C232.67 217.784 232.751 217.807 232.826 217.847C232.901 217.887 232.968 217.943 233.024 218.012C233.079 218.081 233.122 218.161 233.149 218.248C233.177 218.335 233.188 218.427 233.183 218.519C233.179 218.61 233.157 218.7 233.121 218.783C233.085 218.866 233.034 218.94 232.972 219.002C232.772 219.207 212.915 239.751 202.665 260.349C202.61 260.459 202.53 260.55 202.432 260.614C202.334 260.678 202.222 260.711 202.109 260.71ZM200.553 258.591L201.818 259.139C205.499 251.851 210.339 244.598 215.062 238.259C209.984 244.381 204.706 251.436 200.555 258.591H200.553Z" fill="#262424"/>
<path d="M200.023 181.054C200.023 181.054 192.011 189.899 189.835 213.182C187.659 236.466 195.777 237.774 195.777 237.774C195.777 237.774 205.525 239.467 209.799 215.952C211.907 204.388 214.123 195.683 215.825 189.859C216.12 188.848 216.194 187.775 216.042 186.726C215.89 185.678 215.515 184.684 214.949 183.826C214.384 182.968 213.642 182.27 212.786 181.789C211.93 181.308 210.983 181.057 210.022 181.058H200.023V181.054Z" fill="#DE9244"/>
<path d="M196.207 238.497C196.03 238.499 195.853 238.487 195.678 238.462C195.33 238.406 186.992 236.788 189.206 213.11C191.382 189.85 199.243 180.937 199.576 180.559C199.695 180.428 199.856 180.354 200.023 180.354H210.022C211.082 180.354 212.127 180.63 213.072 181.161C214.018 181.692 214.836 182.463 215.46 183.41C216.084 184.357 216.497 185.454 216.665 186.611C216.833 187.769 216.751 188.953 216.426 190.069C214.88 195.357 212.584 204.162 210.417 216.085C208.612 226.007 205.634 232.787 201.56 236.233C199.212 238.24 197.145 238.497 196.207 238.497ZM200.302 181.755C199.142 183.205 192.413 192.424 190.465 213.255C188.373 235.61 195.791 237.068 195.867 237.079C195.943 237.091 198.164 237.41 200.903 235.035C203.492 232.789 207.03 227.63 209.179 215.81C211.357 203.822 213.668 194.963 215.224 189.64C215.488 188.734 215.555 187.772 215.418 186.833C215.282 185.893 214.947 185.002 214.44 184.233C213.933 183.464 213.268 182.839 212.501 182.408C211.734 181.977 210.885 181.752 210.024 181.753H200.304L200.302 181.755Z" fill="#262424"/>
<path d="M194.722 259.269C198.043 209.611 210.802 184.087 210.802 184.087H208.603C208.603 184.087 196.198 209.427 191.593 259.02L194.722 259.269Z" fill="white"/>
<path d="M194.722 259.969H194.676L191.547 259.717C191.462 259.71 191.38 259.685 191.304 259.642C191.229 259.6 191.162 259.541 191.107 259.469C191.053 259.397 191.012 259.314 190.987 259.225C190.962 259.135 190.954 259.041 190.963 258.948C193.348 233.27 197.858 214.208 201.221 202.74C204.873 190.288 208.013 183.819 208.044 183.753C208.099 183.642 208.179 183.55 208.277 183.486C208.375 183.421 208.487 183.387 208.601 183.387H210.8C210.91 183.388 211.018 183.419 211.114 183.48C211.209 183.54 211.288 183.627 211.344 183.732C211.4 183.837 211.43 183.956 211.432 184.077C211.433 184.199 211.406 184.318 211.353 184.425C211.321 184.488 208.139 190.925 204.593 203.321C201.32 214.763 197.061 233.766 195.351 259.321C195.339 259.496 195.268 259.661 195.151 259.781C195.035 259.901 194.882 259.968 194.722 259.969ZM192.289 258.372L194.138 258.521C195.888 233.153 200.135 214.264 203.403 202.845C206.172 193.174 208.73 187.083 209.765 184.784H208.987C208.287 186.304 205.544 192.531 202.412 203.22C199.104 214.509 194.676 233.207 192.291 258.372H192.289Z" fill="#262424"/>
<path d="M200.023 181.054H213.681C215.129 181.053 216.53 181.623 217.632 182.66C218.735 183.698 219.468 185.136 219.699 186.716C221.253 197.261 223.051 218.787 211.623 217.936C202.043 217.216 206.775 181.054 200.023 181.054Z" fill="#DE9244"/>
<path d="M212.268 218.657C212.042 218.657 211.812 218.648 211.578 218.631C205.849 218.204 204.869 207.408 203.92 196.968C203.241 189.491 202.539 181.758 200.023 181.758C199.856 181.758 199.695 181.684 199.576 181.553C199.457 181.422 199.391 181.244 199.391 181.058C199.391 180.873 199.457 180.695 199.576 180.564C199.695 180.432 199.856 180.359 200.023 180.359H213.681C215.279 180.353 216.826 180.98 218.044 182.124C219.261 183.269 220.069 184.857 220.321 186.602C221.556 194.995 222.891 209.953 217.932 215.978C216.468 217.754 214.566 218.657 212.268 218.657ZM202.307 181.758C204.047 184.355 204.582 190.258 205.179 196.828C206.033 206.23 207.001 216.878 211.663 217.237C213.896 217.405 215.642 216.684 216.995 215.038C221.598 209.443 220.272 194.963 219.072 186.828C218.868 185.412 218.212 184.122 217.223 183.193C216.235 182.264 214.978 181.755 213.681 181.76H202.307V181.758Z" fill="#262424"/>
<path d="M209.51 181.054C209.51 181.054 213.727 195.818 213.375 212.061C213.375 212.061 216.046 197.683 212.321 181.054H209.51Z" fill="white"/>
<path d="M213.375 212.76H213.303C213.146 212.741 213.002 212.657 212.898 212.525C212.794 212.394 212.739 212.224 212.742 212.049C213.088 196.107 208.947 181.415 208.907 181.275C208.877 181.17 208.87 181.059 208.886 180.951C208.902 180.843 208.941 180.74 209 180.652C209.059 180.563 209.136 180.491 209.224 180.441C209.313 180.392 209.411 180.366 209.51 180.366H212.321C212.462 180.366 212.599 180.418 212.71 180.515C212.821 180.611 212.9 180.746 212.934 180.897C216.652 197.49 214.02 212.068 213.989 212.215C213.957 212.369 213.879 212.507 213.768 212.606C213.656 212.705 213.518 212.76 213.375 212.76ZM210.355 181.753C211.966 188.178 213.065 194.746 213.641 201.383C213.791 194.781 213.181 188.184 211.823 181.753H210.347H210.355Z" fill="#262424"/>
<path d="M216.089 255.814C216.089 255.814 215.654 258.146 214.927 261.759C213.394 269.376 210.56 282.742 207.724 292.301H179.155C178.79 291.072 178.425 289.78 178.064 288.447C177.221 285.365 176.407 282.052 175.635 278.764C172.907 267.147 170.786 255.814 170.786 255.814H216.084H216.089Z" fill="white"/>
<path d="M207.724 293H179.155C179.021 293 178.892 292.954 178.784 292.867C178.676 292.781 178.595 292.659 178.554 292.52C178.195 291.314 177.826 290.011 177.459 288.647C176.681 285.775 175.861 282.509 175.024 278.939C172.323 267.439 170.193 256.068 170.174 255.954C170.155 255.852 170.157 255.747 170.179 255.646C170.201 255.545 170.244 255.451 170.303 255.37C170.362 255.29 170.437 255.225 170.522 255.18C170.607 255.136 170.7 255.112 170.794 255.113H216.093C216.187 255.112 216.28 255.136 216.365 255.18C216.45 255.225 216.525 255.29 216.584 255.37C216.643 255.451 216.686 255.545 216.708 255.646C216.73 255.747 216.732 255.852 216.713 255.954C216.713 255.977 216.27 258.323 215.549 261.909C214.073 269.189 211.197 282.849 208.329 292.515C208.288 292.656 208.207 292.78 208.098 292.867C207.989 292.954 207.858 293.001 207.724 293ZM179.614 291.601H207.264C210.069 282.024 212.873 268.754 214.309 261.608C214.773 259.293 215.121 257.5 215.308 256.514H171.568C172.11 259.351 173.976 268.924 176.247 278.59C177.09 282.14 177.896 285.39 178.67 288.246C178.986 289.417 179.302 290.543 179.612 291.601H179.614Z" fill="#262424"/>
<path d="M200.732 274.365C207.713 285.155 193.854 289.752 178.064 288.447C177.221 285.365 176.407 282.052 175.635 278.764C182.676 280.588 194.414 282.028 189.837 269.686C186.748 261.354 195.429 257.535 205.229 255.814H216.084C216.084 255.814 215.65 258.146 214.923 261.759C207.079 262.573 194.859 265.284 200.732 274.365Z" fill="#88C0C2"/>
<path d="M182.372 268.947C177.588 267.965 177.523 274.465 182.935 275.785C188.348 277.105 189.181 270.346 182.372 268.947Z" fill="#88C0C2"/>
<path d="M64.0804 249.867L63.53 264.287L69.4362 265.352L71.3909 249.867H64.0804Z" fill="white"/>
<path d="M69.4362 266.051C69.4025 266.054 69.3686 266.054 69.335 266.051L63.4309 264.986C63.2783 264.958 63.1402 264.87 63.0426 264.737C62.9451 264.604 62.895 264.436 62.9016 264.266L63.452 249.846C63.4591 249.666 63.5288 249.496 63.6467 249.371C63.7646 249.246 63.9214 249.177 64.0846 249.177H71.3951C71.4861 249.176 71.5763 249.197 71.6595 249.238C71.7426 249.279 71.8168 249.339 71.8768 249.415C71.9369 249.491 71.9815 249.58 72.0075 249.676C72.0335 249.773 72.0404 249.874 72.0276 249.974L70.073 265.459C70.0495 265.626 69.9721 265.779 69.855 265.887C69.7379 265.996 69.5891 266.055 69.4362 266.051ZM64.1858 263.697L68.8985 264.545L70.6634 250.557H64.6855L64.1858 263.697Z" fill="#262424"/>
<path d="M89.4446 166.249C88.6939 170.068 74.6845 252.839 74.6845 252.839L60.5569 251.674L60.9386 210.31L61.044 198.87L61.5669 142.327C61.5669 123.226 89.7841 125.667 90.9691 143.259C91.4815 150.664 90.2058 162.428 89.4446 166.249Z" fill="#88C0C2"/>
<path d="M72.3418 247.333C72.2489 247.334 72.1568 247.313 72.0721 247.271C71.9874 247.228 71.9121 247.166 71.8517 247.088C71.7913 247.01 71.7473 246.918 71.7226 246.819C71.698 246.72 71.6934 246.616 71.7093 246.514L87.4098 146.558C87.4441 146.382 87.5386 146.228 87.6734 146.127C87.8082 146.026 87.9731 145.986 88.1337 146.016C88.2943 146.046 88.4382 146.143 88.5355 146.288C88.6328 146.432 88.676 146.613 88.656 146.791L72.9554 246.748C72.9313 246.909 72.8566 247.056 72.7445 247.163C72.6324 247.27 72.4899 247.33 72.3418 247.333Z" fill="#262424"/>
<path d="M86.0709 159.905C84.4683 159.905 83.199 159.264 82.2965 158.001C79.5406 154.142 81.3223 145.7 81.4003 145.341C81.4392 145.161 81.5414 145.005 81.6843 144.907C81.8273 144.81 81.9993 144.78 82.1626 144.823C82.3259 144.866 82.4671 144.978 82.555 145.137C82.643 145.295 82.6706 145.485 82.6318 145.665C82.6149 145.747 80.9154 153.807 83.2918 157.133C83.9623 158.04 84.8648 158.507 86.0709 158.507C86.2386 158.507 86.3995 158.58 86.5182 158.712C86.6368 158.843 86.7034 159.021 86.7034 159.206C86.7034 159.392 86.6368 159.569 86.5182 159.701C86.3995 159.832 86.2386 159.905 86.0709 159.905Z" fill="#262424"/>
<path d="M71.7029 204.878C71.4182 209.748 68.4746 213.504 65.1262 213.271C63.4393 213.15 61.9633 212.028 60.9533 210.319L61.0587 198.879C62.2923 196.781 64.152 195.492 66.1552 195.636C69.5015 195.867 71.9876 200.005 71.7029 204.878Z" fill="white"/>
<path d="M73.9422 250.326H73.8874L62.2691 249.219C62.1013 249.203 61.9462 249.114 61.8378 248.971C61.7295 248.829 61.6768 248.644 61.6913 248.459C61.7058 248.273 61.7864 248.102 61.9153 247.982C62.0443 247.862 62.2109 247.804 62.3787 247.82L73.997 248.927C74.1648 248.935 74.3228 249.017 74.4363 249.154C74.5498 249.29 74.6095 249.472 74.6022 249.657C74.5949 249.843 74.5213 250.017 74.3975 250.143C74.2738 250.268 74.11 250.334 73.9422 250.326Z" fill="#262424"/>
<path d="M42.7794 289.228V292.301H71.3909C71.3909 292.301 71.4836 290.697 71.5722 287.999C71.7514 282.693 71.9222 273.148 71.3909 263.286L60.9533 262.275C60.9533 262.275 55.608 272.209 48.6349 280.634C47.9117 281.509 45.9971 282.947 45.1937 283.754C43.6523 285.309 42.7794 287.23 42.7794 289.228Z" fill="#88C0C2"/>
<path d="M57.7525 281.336C57.6371 281.336 57.5239 281.301 57.4253 281.235C57.3266 281.168 57.2462 281.074 57.1928 280.96C57.1394 280.847 57.115 280.72 57.1222 280.593C57.1294 280.466 57.168 280.343 57.2338 280.238C62.2079 272.311 64.9723 263.582 64.9997 263.496C65.0274 263.409 65.0703 263.33 65.1259 263.261C65.1815 263.193 65.2488 263.137 65.3239 263.097C65.399 263.057 65.4804 263.034 65.5635 263.03C65.6466 263.025 65.7298 263.038 65.8083 263.068C65.8868 263.099 65.9591 263.146 66.021 263.208C66.083 263.269 66.1334 263.344 66.1693 263.427C66.2052 263.51 66.226 263.6 66.2305 263.692C66.2349 263.784 66.223 263.876 66.1953 263.962C66.1679 264.051 63.3445 272.966 58.2733 281.045C58.214 281.136 58.1358 281.21 58.0451 281.261C57.9544 281.311 57.8541 281.337 57.7525 281.336Z" fill="#262424"/>
<path d="M68.133 281.984C69.1707 281.984 70.0118 280.304 70.0118 278.231C70.0118 276.158 69.1707 274.477 68.133 274.477C67.0954 274.477 66.2543 276.158 66.2543 278.231C66.2543 280.304 67.0954 281.984 68.133 281.984Z" fill="white"/>
<path d="M68.1331 282.684C66.7245 282.684 65.6217 280.728 65.6217 278.231C65.6217 275.734 66.7245 273.778 68.1331 273.778C69.5416 273.778 70.6444 275.734 70.6444 278.231C70.6444 280.728 69.5416 282.684 68.1331 282.684ZM68.1331 275.174C67.6249 275.174 66.8869 276.363 66.8869 278.228C66.8869 280.093 67.6249 281.282 68.1331 281.282C68.7087 281.282 69.3792 279.949 69.3792 278.228C69.3792 276.508 68.7108 275.177 68.1331 275.177V275.174Z" fill="#262424"/>
<path d="M42.7794 289.228V292.301H71.3909C71.3909 292.301 71.4836 290.697 71.5722 287.999H58.4673C58.4673 287.999 59.2053 279.797 48.6349 280.637C47.9117 281.511 45.9971 282.949 45.1937 283.756C43.6523 285.309 42.7794 287.23 42.7794 289.228Z" fill="white"/>
<path d="M71.3909 293H42.7794C42.6116 293 42.4507 292.926 42.3321 292.795C42.2135 292.664 42.1468 292.486 42.1468 292.301V289.228C42.1468 287.069 43.0767 284.943 44.7678 283.241C45.1178 282.889 45.6471 282.441 46.2059 281.966C46.9439 281.341 47.7789 280.634 48.1668 280.166C48.275 280.031 48.4261 279.947 48.5886 279.933C52.5506 279.618 55.471 280.497 57.2717 282.541C58.3803 283.829 59.0304 285.517 59.102 287.293H71.5722C71.6573 287.293 71.7415 287.312 71.8198 287.348C71.8981 287.385 71.9688 287.439 72.0279 287.507C72.087 287.574 72.1331 287.654 72.1634 287.742C72.1938 287.83 72.2079 287.924 72.2048 288.018C72.1162 290.694 72.0234 292.322 72.0213 292.338C72.0127 292.516 71.9425 292.685 71.8253 292.808C71.708 292.931 71.5526 293 71.3909 293ZM43.412 291.601H70.7941C70.8236 291 70.87 290.004 70.9164 288.699H58.4757C58.3871 288.699 58.2993 288.679 58.2181 288.639C58.1369 288.6 58.0641 288.542 58.0045 288.47C57.9449 288.397 57.8997 288.311 57.8719 288.218C57.8441 288.125 57.8343 288.027 57.8432 287.929C57.8432 287.906 58.0329 285.4 56.3672 283.5C54.8722 281.812 52.3714 281.077 48.9344 281.308C48.3154 281.933 47.6664 282.521 46.9902 283.068C46.4526 283.535 45.936 283.954 45.6344 284.267C44.2111 285.7 43.4267 287.458 43.4267 289.221V291.594L43.412 291.601Z" fill="#262424"/>
<path d="M68.8605 247.811L77.2063 257.062L82.8067 254.387L74.1151 242.192L68.8605 247.811Z" fill="white"/>
<path d="M77.2148 257.761C77.0471 257.761 76.8863 257.687 76.7677 257.556L68.4198 248.303C68.3599 248.237 68.3123 248.16 68.2798 248.074C68.2473 247.988 68.2306 247.897 68.2306 247.804C68.2306 247.711 68.2473 247.619 68.2798 247.533C68.3123 247.447 68.3599 247.37 68.4198 247.305L73.6765 241.686C73.7401 241.618 73.816 241.565 73.8992 241.531C73.9824 241.498 74.071 241.484 74.1594 241.49C74.2476 241.497 74.3335 241.524 74.4116 241.57C74.4897 241.616 74.5582 241.679 74.6128 241.756L83.3044 253.952C83.3643 254.036 83.4059 254.134 83.4261 254.239C83.4462 254.344 83.4442 254.452 83.4204 254.556C83.3965 254.66 83.3514 254.756 83.2885 254.838C83.2257 254.919 83.1467 254.984 83.0577 255.026L77.4573 257.703C77.3807 257.74 77.2983 257.759 77.2148 257.761ZM69.7693 247.818L77.3603 256.229L81.8115 254.103L74.0519 243.232L69.7693 247.818Z" fill="#262424"/>
<path d="M79.5932 289.965L81.6871 291.986L100.504 268.154C100.504 268.154 99.473 267.021 97.6934 265.175C94.1952 261.536 87.8062 255.117 80.7382 249.074L73.1852 257.104C73.1852 257.104 76.4367 268.089 77.5922 279.438C77.7124 280.616 77.4319 283.169 77.4551 284.355C77.4973 286.659 78.2311 288.65 79.5932 289.965Z" fill="#88C0C2"/>
<path d="M83.589 272.542C83.448 272.542 83.3111 272.49 83.1999 272.394C83.0888 272.298 83.0097 272.164 82.9754 272.013C80.85 262.662 76.7171 254.614 76.6771 254.527C76.5932 254.366 76.5706 254.175 76.6143 253.995C76.658 253.816 76.7644 253.663 76.9101 253.57C77.0558 253.478 77.2288 253.453 77.3911 253.501C77.5534 253.549 77.6918 253.667 77.7756 253.828C77.8178 253.91 82.0371 262.123 84.2047 271.661C84.2301 271.765 84.2333 271.874 84.2142 271.98C84.1951 272.085 84.1541 272.185 84.0945 272.27C84.0349 272.356 83.9583 272.424 83.8706 272.472C83.7829 272.519 83.6865 272.543 83.589 272.542Z" fill="#262424"/>
<path d="M91.3359 264.07C92.0183 263.206 91.4264 261.4 90.014 260.037C88.6015 258.673 86.9034 258.269 86.221 259.133C85.5386 259.997 86.1305 261.803 87.5429 263.166C88.9553 264.53 90.6535 264.934 91.3359 264.07Z" fill="white"/>
<path d="M90.288 265.238C90.0504 265.236 89.8136 265.206 89.5817 265.149C88.6681 264.899 87.8248 264.402 87.1273 263.704C85.4256 262.072 84.8184 259.857 85.744 258.682C86.6697 257.507 88.7277 257.878 90.4293 259.519C91.1491 260.188 91.7077 261.045 92.055 262.011C92.3861 263.023 92.2996 263.921 91.8126 264.538C91.62 264.771 91.3838 264.954 91.1204 265.075C90.857 265.196 90.5729 265.251 90.288 265.238ZM87.9686 262.652C88.5085 263.194 89.1599 263.583 89.8663 263.783C90.3344 263.895 90.7098 263.834 90.8784 263.622C91.0471 263.41 91.0471 262.988 90.8784 262.491C90.6034 261.749 90.1692 261.091 89.6133 260.575C88.3481 259.349 87.0471 259.176 86.7119 259.605C86.3323 260.085 86.8004 261.522 87.977 262.652H87.9686Z" fill="#262424"/>
<path d="M79.5932 289.965L81.6871 291.986L100.504 268.154C100.504 268.154 99.473 267.021 97.6934 265.175L89.0735 276.09C89.0735 276.09 83.9707 270.08 77.5901 279.438C77.7103 280.616 77.4298 283.169 77.453 284.355C77.4973 286.659 78.2311 288.65 79.5932 289.965Z" fill="white"/>
<path d="M81.6871 292.685C81.5321 292.687 81.3821 292.625 81.2653 292.513L79.1715 290.491C77.6955 289.072 76.8647 286.899 76.8162 284.372C76.8162 283.847 76.85 283.113 76.8942 282.336C76.9533 281.31 77.0208 280.149 76.9575 279.518C76.9397 279.34 76.9843 279.161 77.0819 279.019C79.473 275.522 81.9928 273.656 84.5695 273.503C86.1766 273.424 87.755 273.992 89.0123 275.102L97.2147 264.716C97.271 264.646 97.3394 264.589 97.4158 264.549C97.4922 264.509 97.5752 264.486 97.6596 264.482C97.7445 264.478 97.8293 264.492 97.909 264.525C97.9887 264.557 98.0616 264.607 98.1235 264.671C99.8884 266.504 100.936 267.653 100.947 267.665C101.061 267.79 101.128 267.958 101.134 268.136C101.14 268.313 101.084 268.487 100.979 268.621L82.1636 292.445C82.0524 292.583 81.8962 292.667 81.7292 292.678H81.6871V292.685ZM78.2416 279.648C78.26 280.575 78.2332 281.502 78.1615 282.425C78.1172 283.171 78.0772 283.877 78.0856 284.341C78.1257 286.47 78.8088 288.279 80.0086 289.438L81.6259 291L99.6354 268.192C99.2453 267.772 98.598 267.08 97.7377 266.182L89.55 276.552C89.4913 276.625 89.4195 276.683 89.3393 276.723C89.259 276.763 89.1721 276.784 89.084 276.785C88.9958 276.785 88.9086 276.766 88.8274 276.728C88.7463 276.69 88.6729 276.634 88.6117 276.564C88.5969 276.547 87.0113 274.743 84.6222 274.894C82.4862 275.034 80.3439 276.634 78.2416 279.648Z" fill="#262424"/>
<path d="M76.6328 243.644L65.4383 253.949L40.0213 225.369L39.5574 224.846C37.846 222.923 36.5149 220.626 35.6488 218.103C34.7827 215.581 34.4005 212.886 34.5263 210.191L34.5896 208.841L37.7841 139.988C39.1779 120.948 63.9981 126.252 64.1415 142.653C64.2111 151.328 63.4119 159.885 62.3871 163.636C61.8621 165.552 57.5669 188.612 53.5036 210.634C65.1557 227.679 76.6328 243.644 76.6328 243.644Z" fill="#88C0C2"/>
<path d="M75.5912 242.889C75.4958 242.889 75.4017 242.865 75.3159 242.819C75.2301 242.773 75.1548 242.706 75.0957 242.623C73.1537 239.907 67.9728 232.643 61.8242 223.832C61.7216 223.685 61.6759 223.499 61.6973 223.315C61.7186 223.131 61.8052 222.964 61.9381 222.851C62.0709 222.737 62.239 222.687 62.4055 222.71C62.572 222.734 62.7232 222.83 62.8258 222.977C68.9702 231.78 74.1468 239.042 76.0867 241.754C76.161 241.857 76.2074 241.981 76.2207 242.112C76.234 242.243 76.2136 242.375 76.1618 242.494C76.11 242.612 76.029 242.712 75.928 242.782C75.8271 242.852 75.7103 242.889 75.5912 242.889Z" fill="#262424"/>
<path d="M40.4072 225.245C40.2786 225.292 40.1499 225.334 40.0213 225.369L39.5574 224.846C37.846 222.923 36.5149 220.626 35.6488 218.103C34.7827 215.581 34.4005 212.886 34.5263 210.191L34.5896 208.841C34.8163 208.705 35.0534 208.591 35.2981 208.501C38.4778 207.314 42.1974 210.103 43.608 214.726C45.0187 219.349 43.5848 224.061 40.4072 225.245Z" fill="white"/>
<path d="M70.9754 241.737C70.8823 241.737 70.7904 241.714 70.7062 241.67C70.622 241.627 70.5476 241.563 70.4883 241.483C70.3829 241.343 59.8526 227.262 49.5585 212.506C49.5037 212.428 49.4647 212.337 49.444 212.241C49.4232 212.144 49.4213 212.044 49.4383 211.947C52.1795 196.352 57.5058 172.805 60.0656 161.491L60.4768 159.675C60.5208 159.499 60.6252 159.349 60.7676 159.257C60.91 159.166 61.0793 159.139 61.2393 159.183C61.3992 159.227 61.5373 159.338 61.6241 159.493C61.7109 159.648 61.7396 159.835 61.704 160.013L61.2928 161.831C58.7625 173.062 53.491 196.336 50.7351 211.905C60.9596 226.558 71.3592 240.455 71.4625 240.595C71.5382 240.697 71.5862 240.821 71.6008 240.952C71.6154 241.084 71.5961 241.217 71.5452 241.336C71.4942 241.456 71.4136 241.557 71.3128 241.628C71.212 241.699 71.095 241.737 70.9754 241.737Z" fill="#262424"/>
<path d="M61.0883 160.533C60.9441 160.533 60.8043 160.478 60.6919 160.379L59.0493 158.922C58.6134 158.536 58.2616 158.047 58.02 157.491C57.7783 156.935 57.653 156.326 57.6534 155.709V141.487C57.6534 141.302 57.72 141.124 57.8386 140.993C57.9573 140.862 58.1182 140.788 58.286 140.788C58.4537 140.788 58.6146 140.862 58.7333 140.993C58.8519 141.124 58.9185 141.302 58.9185 141.487V155.709C58.9175 156.118 59 156.522 59.16 156.891C59.3199 157.26 59.553 157.584 59.8421 157.84L60.4557 158.383V140.483C60.4557 140.297 60.5223 140.119 60.641 139.988C60.7596 139.857 60.9205 139.783 61.0883 139.783C61.256 139.783 61.4169 139.857 61.5356 139.988C61.6542 140.119 61.7208 140.297 61.7208 140.483V159.833C61.7208 160.019 61.6542 160.197 61.5356 160.328C61.4169 160.459 61.256 160.533 61.0883 160.533Z" fill="#262424"/>
<path d="M64.715 251.033C64.5843 251.033 64.4568 250.988 64.35 250.904C64.2433 250.821 64.1625 250.703 64.1188 250.567C64.0751 250.431 64.0707 250.283 64.1061 250.144C64.1415 250.005 64.215 249.881 64.3165 249.79L73.3645 241.658C73.4948 241.541 73.6619 241.486 73.8289 241.505C73.996 241.524 74.1494 241.615 74.2554 241.759C74.3614 241.904 74.4112 242.088 74.394 242.273C74.3768 242.458 74.294 242.627 74.1637 242.744L65.1157 250.876C65.0024 250.978 64.8609 251.033 64.715 251.033Z" fill="#262424"/>
<path d="M7.93915 96.03L13.4911 102.868L20.519 98.5176L19.606 92.5329L7.93915 96.03Z" fill="white"/>
<path d="M13.4911 103.567C13.4023 103.567 13.3145 103.546 13.2335 103.506C13.1525 103.466 13.08 103.407 13.0208 103.334L7.46681 96.4916C7.39464 96.4027 7.34427 96.2949 7.3205 96.1784C7.29672 96.0618 7.30034 95.9405 7.33099 95.826C7.36165 95.7114 7.41833 95.6075 7.49562 95.524C7.57292 95.4406 7.66826 95.3804 7.77255 95.3493L19.4394 91.8522C19.5246 91.8268 19.6137 91.8213 19.7009 91.8362C19.7881 91.8512 19.8715 91.8861 19.9458 91.9388C20.0201 91.9915 20.0835 92.0608 20.1321 92.1422C20.1807 92.2237 20.2134 92.3155 20.228 92.4117L21.141 98.3964C21.1629 98.5387 21.1445 98.6849 21.0882 98.8152C21.032 98.9454 20.9407 99.0532 20.8268 99.1238L13.7989 103.486C13.7042 103.541 13.5983 103.569 13.4911 103.567ZM9.09464 96.4077L13.6239 101.984L19.821 98.1469L19.0978 93.4095L9.09464 96.4077Z" fill="#262424"/>
<path d="M40.403 123.373C39.512 124.679 38.4922 125.871 37.3624 126.928C36.4708 127.781 35.4433 128.443 34.3324 128.879C34.1574 128.945 33.9781 129.003 33.7989 129.059C30.4251 130.458 26.1679 129.952 22.0414 125.981C17.9149 122.011 13.8769 114.471 11.0767 101.831L20.8669 97.4661L25.9592 103.595C29.6492 92.7287 39.9012 64.428 45.9001 66.6475C57.9844 71.1284 50.6655 108.699 40.403 123.373Z" fill="#DE9244"/>
<path d="M37.3624 126.928C36.4708 127.781 35.4433 128.443 34.3324 128.879C34.1574 128.945 33.9781 129.003 33.7989 129.059C30.4252 130.458 26.1679 129.952 22.0414 125.981C22.882 124.526 24.0577 123.344 25.4479 122.557C26.8381 121.769 28.3927 121.405 29.9522 121.502C31.5117 121.598 33.02 122.151 34.3222 123.105C35.6244 124.058 36.6737 125.378 37.3624 126.928Z" fill="white"/>
<path d="M26.9861 117.285C26.826 117.286 26.6718 117.219 26.5544 117.099C26.437 116.979 26.3652 116.814 26.3535 116.637L25.6155 105.563C25.6032 105.378 25.658 105.194 25.7679 105.053C25.8779 104.913 26.0339 104.826 26.2017 104.812C26.3694 104.799 26.5352 104.859 26.6625 104.981C26.7899 105.102 26.8683 105.275 26.8806 105.46L27.6186 116.535C27.6308 116.719 27.5762 116.902 27.4666 117.042C27.3571 117.183 27.2017 117.269 27.0345 117.283H26.9882L26.9861 117.285Z" fill="#262424"/>
<path d="M14.6508 105.862C14.5032 105.861 14.3604 105.804 14.247 105.699C14.1337 105.595 14.057 105.449 14.0302 105.289C14.0034 105.129 14.0283 104.963 14.1004 104.82C14.1725 104.678 14.2874 104.568 14.4252 104.509L22.4378 101.129C22.5155 101.096 22.5983 101.081 22.6814 101.083C22.7645 101.086 22.8463 101.106 22.9221 101.144C22.998 101.182 23.0665 101.235 23.1236 101.302C23.1807 101.369 23.2253 101.447 23.2549 101.533C23.2845 101.619 23.2986 101.711 23.2962 101.803C23.2939 101.894 23.2752 101.985 23.2412 102.069C23.2072 102.153 23.1587 102.228 23.0982 102.291C23.0378 102.355 22.9667 102.404 22.8891 102.437L14.8764 105.817C14.8043 105.847 14.7278 105.862 14.6508 105.862Z" fill="#262424"/>
<path d="M7.315 98.2029L17.2886 95.2094C17.5647 95.1265 17.8008 94.9281 17.9468 94.6561C18.0928 94.3841 18.1374 94.0599 18.0709 93.7523L13.354 71.8372C13.3199 71.6784 13.2573 71.5289 13.1698 71.3975C13.0824 71.266 12.972 71.1554 12.8451 71.0721C12.7182 70.9888 12.5775 70.9345 12.4313 70.9126C12.2851 70.8906 12.1363 70.9014 11.994 70.9443L2.02033 73.9471C1.74424 74.0299 1.50817 74.2284 1.36215 74.5004C1.21612 74.7724 1.1716 75.0965 1.23804 75.4042L5.95496 97.3193C5.99001 97.4772 6.05331 97.6257 6.14114 97.7561C6.22896 97.8865 6.33953 97.9961 6.4663 98.0785C6.59308 98.1608 6.7335 98.2143 6.87926 98.2357C7.02503 98.257 7.17319 98.2459 7.315 98.2029Z" fill="white"/>
<path d="M7.02397 98.9466C6.63405 98.9459 6.25566 98.8002 5.94969 98.533C5.64373 98.2657 5.42796 97.8924 5.3371 97.4731L0.620185 75.5581C0.513999 75.0736 0.58336 74.5625 0.813454 74.1338C1.04355 73.7052 1.41613 73.393 1.8516 73.264L11.8231 70.2705C12.0468 70.2031 12.2804 70.1861 12.5101 70.2203C12.7399 70.2545 12.9611 70.3394 13.1606 70.4698C13.3602 70.6002 13.534 70.7736 13.6719 70.9796C13.8098 71.1857 13.9089 71.4202 13.9633 71.6693L18.6803 93.5844C18.7864 94.0688 18.7171 94.58 18.487 95.0086C18.2569 95.4373 17.8843 95.7495 17.4488 95.8785L7.47732 98.872C7.32983 98.9188 7.1774 98.9439 7.02397 98.9466ZM12.2828 71.611C12.2408 71.6111 12.1989 71.6174 12.1584 71.6297L2.18687 74.6232C2.06898 74.6578 1.96806 74.7421 1.90577 74.858C1.84349 74.974 1.82479 75.1123 1.85371 75.2433L6.57063 97.1584C6.58511 97.2259 6.61171 97.2894 6.64883 97.3453C6.68596 97.4011 6.73286 97.4482 6.78674 97.4836C6.84063 97.5191 6.90041 97.5422 6.96254 97.5516C7.02466 97.561 7.08786 97.5565 7.14838 97.5384L17.1199 94.5333C17.2378 94.4987 17.3387 94.4143 17.401 94.2984C17.4633 94.1825 17.482 94.0441 17.4531 93.9131L12.7361 71.998C12.71 71.8871 12.6513 71.789 12.5693 71.7189C12.4872 71.6489 12.3865 71.6109 12.2828 71.611Z" fill="#262424"/>
<path d="M9.87271 97.4592L19.8442 94.4657C20.1203 94.3828 20.3564 94.1844 20.5024 93.9124C20.6484 93.6404 20.693 93.3162 20.6265 93.0085L15.9096 71.0935C15.8755 70.9347 15.8129 70.7852 15.7254 70.6538C15.638 70.5223 15.5276 70.4117 15.4007 70.3284C15.2738 70.2451 15.1331 70.1908 14.9869 70.1689C14.8407 70.1469 14.6919 70.1577 14.5496 70.2005L4.57804 73.1941C4.30195 73.2769 4.06588 73.4754 3.91985 73.7473C3.77382 74.0193 3.72931 74.3435 3.79575 74.6512L8.51267 96.5663C8.54678 96.725 8.60941 96.8745 8.69683 97.006C8.78425 97.1374 8.89469 97.248 9.02156 97.3313C9.14844 97.4146 9.28918 97.4689 9.43539 97.4908C9.58161 97.5128 9.73033 97.502 9.87271 97.4592Z" fill="white"/>
<path d="M9.58174 98.2029C9.19172 98.2026 8.81315 98.0571 8.50711 97.7898C8.20106 97.5224 7.98539 97.1489 7.89487 96.7295L3.17795 74.8144C3.07177 74.3299 3.14113 73.8188 3.37122 73.3901C3.60132 72.9615 3.9739 72.6493 4.40937 72.5203L14.3788 69.5361C14.6024 69.4688 14.8361 69.4517 15.0658 69.4859C15.2955 69.5202 15.5167 69.605 15.7163 69.7354C15.9158 69.8659 16.0897 70.0392 16.2276 70.2453C16.3654 70.4513 16.4645 70.6858 16.519 70.9349L21.2359 92.85C21.3427 93.3345 21.2736 93.8459 21.0434 94.2747C20.8132 94.7036 20.4403 95.0156 20.0045 95.1441L10.0393 98.1236C9.89065 98.1724 9.73677 98.1991 9.58174 98.2029ZM14.8406 70.8673C14.7985 70.8674 14.7567 70.8737 14.7162 70.886L4.74464 73.8772C4.62675 73.9118 4.52583 73.9961 4.46354 74.112C4.40125 74.228 4.38256 74.3663 4.41148 74.4973L9.1284 96.4124C9.14288 96.4798 9.16948 96.5434 9.2066 96.5993C9.24373 96.6551 9.29063 96.7022 9.34451 96.7376C9.3984 96.7731 9.45818 96.7962 9.5203 96.8056C9.58242 96.815 9.64562 96.8105 9.70615 96.7924L19.6777 93.7989C19.7956 93.7643 19.8965 93.68 19.9588 93.564C20.0211 93.4481 20.0397 93.3098 20.0108 93.1788L15.2939 71.2637C15.2694 71.151 15.2114 71.0508 15.1292 70.9789C15.047 70.907 14.9454 70.8678 14.8406 70.8673Z" fill="#262424"/>
<path d="M9.87271 97.4592L19.8442 94.4657C20.1203 94.3828 20.3564 94.1844 20.5024 93.9124C20.6484 93.6404 20.693 93.3162 20.6265 93.0085L15.9096 71.0935C15.8755 70.9347 15.8129 70.7852 15.7254 70.6538C15.638 70.5223 15.5276 70.4117 15.4007 70.3284C15.2738 70.2451 15.1331 70.1908 14.9869 70.1689C14.8407 70.1469 14.6919 70.1577 14.5496 70.2005L4.57804 73.1941C4.30195 73.2769 4.06588 73.4754 3.91985 73.7473C3.77382 74.0193 3.72931 74.3435 3.79575 74.6512L8.51267 96.5663C8.54678 96.725 8.60941 96.8745 8.69683 97.006C8.78425 97.1374 8.89469 97.248 9.02156 97.3313C9.14844 97.4146 9.28918 97.4689 9.43539 97.4908C9.58161 97.5128 9.73033 97.502 9.87271 97.4592Z" fill="white"/>
<path d="M9.58174 98.2029C9.19172 98.2026 8.81315 98.0571 8.50711 97.7898C8.20106 97.5224 7.98539 97.1489 7.89487 96.7295L3.17795 74.8144C3.07177 74.3299 3.14113 73.8188 3.37122 73.3901C3.60132 72.9615 3.9739 72.6493 4.40937 72.5203L14.3788 69.5361C14.6024 69.4688 14.8361 69.4517 15.0658 69.4859C15.2955 69.5202 15.5167 69.605 15.7163 69.7354C15.9158 69.8659 16.0897 70.0392 16.2276 70.2453C16.3654 70.4513 16.4645 70.6858 16.519 70.9349L21.2359 92.85C21.3427 93.3345 21.2736 93.8459 21.0434 94.2747C20.8132 94.7036 20.4403 95.0156 20.0045 95.1441L10.0393 98.1236C9.89065 98.1724 9.73677 98.1991 9.58174 98.2029ZM14.8406 70.8673C14.7985 70.8674 14.7567 70.8737 14.7162 70.886L4.74464 73.8772C4.62675 73.9118 4.52583 73.9961 4.46354 74.112C4.40125 74.228 4.38256 74.3663 4.41148 74.4973L9.1284 96.4124C9.14288 96.4798 9.16948 96.5434 9.2066 96.5993C9.24373 96.6551 9.29063 96.7022 9.34451 96.7376C9.3984 96.7731 9.45818 96.7962 9.5203 96.8056C9.58242 96.815 9.64562 96.8105 9.70615 96.7924L19.6777 93.7989C19.7956 93.7643 19.8965 93.68 19.9588 93.564C20.0211 93.4481 20.0397 93.3098 20.0108 93.1788L15.2939 71.2637C15.2694 71.151 15.2114 71.0508 15.1292 70.9789C15.047 70.907 14.9454 70.8678 14.8406 70.8673Z" fill="#262424"/>
<path d="M5.69562 74.924L14.3324 72.3291L18.7288 92.7475L10.092 95.34L5.69562 74.924Z" fill="white"/>
<path d="M10.092 96.0393C9.94949 96.0394 9.81116 95.9862 9.69942 95.8885C9.58767 95.7907 9.50904 95.6541 9.47627 95.5008L5.07985 75.0848C5.04177 74.9081 5.06735 74.722 5.15117 74.5658C5.235 74.4096 5.37049 74.2955 5.52898 74.2478L14.1742 71.6553C14.2559 71.6309 14.3412 71.6249 14.4251 71.6376C14.5089 71.6504 14.5896 71.6816 14.6624 71.7294C14.7351 71.7772 14.7985 71.8407 14.8486 71.9161C14.8988 71.9915 14.9347 72.0772 14.9544 72.1682L19.3508 92.5866C19.3889 92.7632 19.3633 92.9494 19.2795 93.1056C19.1957 93.2618 19.0602 93.3758 18.9017 93.4235L10.2564 96.0184C10.2027 96.0333 10.1474 96.0403 10.092 96.0393ZM6.45255 75.4205L10.5559 94.4773L17.9633 92.2508L13.86 73.194L6.45255 75.4205Z" fill="#262424"/>
<path d="M3.55538 85.4735C1.20641 86.821 2.41885 91.4115 3.84004 95.2653C5.73777 100.394 10.4442 97.9954 10.3092 94.6335C10.1827 91.4419 9.80103 81.8878 3.55538 85.4735Z" fill="white"/>
<path d="M7.12939 98.928C5.75037 98.928 4.17737 98.049 3.2538 95.5311C1.86003 91.7473 0.346057 86.525 3.2538 84.851C5.044 83.8229 6.57905 83.704 7.81679 84.4943C10.598 86.2708 10.8321 92.1087 10.9312 94.6009C11.0113 96.5779 9.69976 98.3964 7.88427 98.837C7.63626 98.8968 7.38322 98.9273 7.12939 98.928ZM3.84842 86.0937C2.37241 86.9446 2.56219 89.9428 4.42618 95.0042C5.12201 96.895 6.28807 97.8019 7.62491 97.4709C8.82892 97.1794 9.7335 95.9485 9.67868 94.6732C9.59644 92.6029 9.37504 87.1055 7.19476 85.7136C6.35132 85.1774 5.22955 85.308 3.84842 86.1007V86.0937Z" fill="#262424"/>
<path d="M2.31552 82.3424C-0.569028 83.4732 0.386167 87.3736 4.14368 86.2382C9.60914 84.5876 9.65553 79.4725 2.31552 82.3424Z" fill="white"/>
<path d="M2.88273 87.1405C1.34979 87.1405 0.386165 86.2545 0.0972876 85.231C-0.252739 83.9954 0.325014 82.3797 2.10256 81.6827C4.98289 80.5543 7.12733 80.4843 8.13734 81.4868C8.36513 81.7113 8.53222 82.0011 8.62006 82.3241C8.70791 82.6472 8.71307 82.9909 8.63497 83.317C8.31657 84.8021 6.61916 86.2149 4.31025 86.912C3.84572 87.058 3.36565 87.1348 2.88273 87.1405ZM6.01821 82.1792C5.21484 82.1792 4.06144 82.4124 2.52427 83.0022C1.451 83.4219 1.13893 84.2355 1.3034 84.8137C1.4995 85.5131 2.41885 86.033 3.97499 85.5644C6.23118 84.8837 7.26017 83.655 7.40145 82.9999C7.42815 82.9189 7.43175 82.8307 7.41176 82.7474C7.39178 82.664 7.34918 82.5894 7.28969 82.5336C7.08516 82.3238 6.66766 82.1792 6.02032 82.1792H6.01821Z" fill="#262424"/>
<path d="M92.7045 69.5874L93.5774 147.528C93.5774 147.528 91.7071 147.815 88.4789 148.144V139.655C88.4794 139.492 88.4508 139.33 88.3946 139.18C88.3384 139.029 88.2558 138.892 88.1515 138.777C88.0473 138.661 87.9234 138.57 87.787 138.508C87.6507 138.446 87.5046 138.414 87.3571 138.415C87.2097 138.414 87.0637 138.446 86.9275 138.508C86.7913 138.571 86.6675 138.662 86.5633 138.777C86.459 138.893 86.3764 139.029 86.3201 139.18C86.2639 139.331 86.235 139.492 86.2353 139.655V148.358C75.6333 149.312 55.2201 150.223 36.2617 145.85C36.2617 145.85 38.6803 83.8881 44.7867 66.5379C44.7867 66.5379 55.5132 59.7769 67.821 60.045C80.1288 60.3131 92.7045 69.5874 92.7045 69.5874Z" fill="#DE9244"/>
<path d="M37.3266 126.403H37.2823C37.1151 126.39 36.9595 126.304 36.8496 126.164C36.7397 126.025 36.6845 125.842 36.6961 125.657C37.879 106.852 39.9792 81.8272 43.2601 69.3939C43.3071 69.2158 43.4161 69.0656 43.5632 68.9765C43.7103 68.8873 43.8835 68.8663 44.0445 68.9183C44.2056 68.9702 44.3414 69.0908 44.4221 69.2534C44.5027 69.4161 44.5217 69.6075 44.4747 69.7856C41.2232 82.0976 39.1357 107.018 37.957 125.753C37.9458 125.929 37.8746 126.095 37.7576 126.215C37.6406 126.336 37.4866 126.403 37.3266 126.403Z" fill="#262424"/>
<path d="M69.9654 146.162C59.5105 146.13 49.0674 145.387 38.695 143.938C38.6159 143.926 38.5398 143.896 38.471 143.851C38.4022 143.807 38.3421 143.747 38.294 143.677C38.2459 143.606 38.2109 143.526 38.1909 143.441C38.1709 143.355 38.1662 143.266 38.1773 143.179C38.1884 143.092 38.2149 143.007 38.2554 142.931C38.2959 142.855 38.3496 142.789 38.4133 142.736C38.477 142.682 38.5496 142.644 38.6269 142.622C38.7041 142.599 38.7846 142.594 38.8637 142.607C39.0914 142.642 61.9169 146.12 83.3549 144.283C83.4357 144.273 83.5174 144.282 83.5951 144.308C83.6729 144.333 83.7452 144.376 83.8077 144.434C83.8701 144.491 83.9216 144.562 83.959 144.641C83.9963 144.721 84.0189 144.808 84.0252 144.898C84.0316 144.987 84.0216 145.078 83.9959 145.163C83.9703 145.248 83.9294 145.327 83.8757 145.394C83.8221 145.461 83.7567 145.516 83.6836 145.555C83.6104 145.594 83.5309 145.617 83.4498 145.621C78.9395 146.008 74.3723 146.162 69.9654 146.162Z" fill="#262424"/>
<path d="M76.9343 63.9757C76.3134 65.5897 75.3795 67.0332 74.1987 68.2043C73.0178 69.3754 71.6188 70.2455 70.1004 70.7531C69.5901 67.6617 68.1879 63.7729 68.1879 63.7729C66.6275 66.1463 65.8031 69.2843 65.6006 70.7181C60.5506 69.1841 59.9749 63.8149 59.9749 63.8149C60.5906 58.4387 64.7741 54.3891 68.3587 54.5266C76.2996 54.8227 76.9343 63.9757 76.9343 63.9757Z" fill="white"/>
<path d="M70.1004 71.4525C69.9506 71.4552 69.8048 71.399 69.689 71.294C69.5731 71.189 69.4947 71.0419 69.4678 70.879C69.1142 68.9906 68.6328 67.1342 68.0276 65.3256C67.1561 67.0379 66.5442 68.8966 66.2164 70.8277C66.2026 70.925 66.1704 71.0181 66.1219 71.1008C66.0733 71.1834 66.0095 71.2538 65.9347 71.3073C65.8598 71.3608 65.7756 71.3961 65.6875 71.4111C65.5994 71.4261 65.5095 71.4203 65.4235 71.3942C60.0255 69.7622 59.3634 64.1389 59.3381 63.8988C59.3319 63.8423 59.3319 63.7851 59.3381 63.7286C60.0276 57.7183 64.6581 53.6826 68.3777 53.8248C76.7825 54.1396 77.5479 63.8265 77.5563 63.9244C77.5644 64.0367 77.5477 64.1495 77.5079 64.2532C76.8482 65.9578 75.8597 67.4826 74.6115 68.7209C73.3634 69.9592 71.8857 70.8811 70.2817 71.4222C70.2229 71.442 70.1618 71.4522 70.1004 71.4525ZM68.1879 63.0735H68.2659C68.3779 63.089 68.4841 63.1375 68.5734 63.2137C68.6628 63.29 68.7321 63.3913 68.7741 63.5071C69.5059 65.5629 70.1076 67.6725 70.5748 69.8205C71.8368 69.2932 72.9915 68.494 73.9721 67.4695C74.9526 66.445 75.7395 65.2154 76.287 63.8522C76.1605 62.6235 75.1251 55.4591 68.3439 55.212C65.181 55.0954 61.2359 58.7371 60.6138 63.8032C60.7024 64.4257 61.394 68.2888 65.1178 69.8042C65.4551 68.1839 66.2585 65.5121 67.6755 63.3532C67.7353 63.2658 67.8128 63.1952 67.9018 63.147C67.9908 63.0988 68.0888 63.0744 68.1879 63.0758V63.0735Z" fill="#262424"/>
<path d="M30.8005 81.7829C30.0103 80.9999 29.0073 80.5292 27.949 80.4449C26.8907 80.3605 25.837 80.6671 24.9533 81.3166C21.9465 83.5314 17.5501 86.7767 15.5975 88.2688C15.3129 88.4873 15.1086 88.8114 15.0218 89.1824C14.9351 89.5533 14.9716 89.9463 15.1249 90.2899C15.2781 90.6336 15.5378 90.905 15.8567 91.0548C16.1757 91.2046 16.5326 91.2228 16.8627 91.1061L22.8701 88.9566L23.4204 90.5256C24.0528 92.3275 25.1953 93.855 26.6775 94.8798C28.1596 95.9047 29.9018 96.3719 31.6439 96.2119L34.4652 95.9508L40.1584 91.0548L30.8005 81.7829Z" fill="white"/>
<path d="M30.9881 96.9416C29.2271 96.9357 27.5084 96.3451 26.0545 95.2465C24.6007 94.1478 23.4788 92.5917 22.8342 90.7798L22.4989 89.8262L17.0588 91.7729C16.5839 91.9434 16.0695 91.9193 15.6094 91.7049C15.1494 91.4906 14.7744 91.1004 14.5531 90.6056C14.3318 90.1108 14.2789 89.5445 14.404 89.0102C14.5292 88.4758 14.8241 88.0091 15.2348 87.6953C17.1515 86.2312 21.3856 83.1025 24.5991 80.7361C25.5992 80 26.7922 79.652 27.9907 79.747C29.1891 79.8419 30.3251 80.3744 31.2201 81.2607L40.5843 90.535C40.6532 90.6033 40.7077 90.6875 40.7439 90.7817C40.7802 90.8758 40.7973 90.9776 40.7941 91.0799C40.7909 91.1822 40.7674 91.2824 40.7253 91.3735C40.6832 91.4647 40.6236 91.5445 40.5506 91.6074L34.8574 96.5033C34.7606 96.5864 34.6442 96.6366 34.5221 96.6479L31.7008 96.909C31.4583 96.9323 31.2243 96.9416 30.9881 96.9416ZM22.8743 88.2572C23.002 88.2571 23.1269 88.2999 23.2322 88.3798C23.3376 88.4597 23.4187 88.573 23.4647 88.7048L24.015 90.2738C24.6041 91.9325 25.6601 93.3375 27.0271 94.2813C28.3941 95.2251 29.9995 95.6576 31.6059 95.5148L34.2396 95.2817L39.1863 91.0269L30.3851 82.3121C29.6991 81.6326 28.8284 81.2243 27.9097 81.1513C26.9911 81.0783 26.0765 81.3447 25.3097 81.9088C22.0983 84.2728 17.8706 87.3946 15.9623 88.854C15.8007 88.9765 15.6844 89.1595 15.6349 89.3691C15.5855 89.5788 15.6061 89.8012 15.693 89.9954C15.78 90.1896 15.9274 90.3427 16.1082 90.4263C16.2889 90.51 16.491 90.5188 16.6771 90.451L22.6845 88.3015C22.7454 88.2768 22.8094 88.2627 22.8743 88.2595V88.2572Z" fill="#262424"/>
<path d="M69.4024 121.153C66.6613 122.946 64.0782 123.923 61.919 123.774C59.0914 123.578 56.152 122.316 53.2738 120.447C42.4125 113.387 32.3988 97.6457 32.3988 97.6457L38.7794 87.8655L59.9749 100.145C59.9749 100.145 87.6206 65.1577 93.5774 70.7554C103.285 79.8781 83.8631 111.748 69.4024 121.153Z" fill="#DE9244"/>
<path d="M69.4024 121.153C66.6613 122.946 64.0782 123.923 61.919 123.774C59.0914 123.578 56.1521 122.316 53.2738 120.447C54.0214 118.743 55.2022 117.316 56.6717 116.343C58.1411 115.369 59.8354 114.891 61.5472 114.966C63.2589 115.041 64.9136 115.666 66.3089 116.765C67.7041 117.864 68.7792 119.389 69.4024 121.153Z" fill="white"/>
<path d="M60.7235 112.506C60.5632 112.506 60.4086 112.439 60.2912 112.319C60.1737 112.198 60.1022 112.032 60.0909 111.856L59.3424 100.199C59.3306 100.013 59.386 99.83 59.4964 99.6897C59.6067 99.5493 59.7629 99.4632 59.9307 99.4502C60.0985 99.4372 60.264 99.4984 60.391 99.6204C60.5179 99.7424 60.5958 99.9152 60.6075 100.101L61.3561 111.758C61.3621 111.849 61.3517 111.941 61.3255 112.029C61.2993 112.116 61.2578 112.197 61.2034 112.266C61.1489 112.336 61.0826 112.393 61.0082 112.434C60.9339 112.475 60.8529 112.499 60.7699 112.506H60.7235Z" fill="#262424"/>
<path d="M62.3429 124.487C62.1847 124.487 62.0308 124.487 61.879 124.471C56.1225 124.072 49.3139 119.491 41.6365 110.848C38.1105 106.847 34.8499 102.569 31.8801 98.049C31.8038 97.9305 31.7628 97.7887 31.7628 97.6433C31.7628 97.4979 31.8038 97.3561 31.8801 97.2377L38.2607 87.4621C38.3498 87.326 38.4802 87.2299 38.6281 87.1914C38.776 87.1529 38.9315 87.1745 39.0662 87.2523L59.821 99.2753C61.297 97.4405 67.4478 89.8378 74.0983 82.846C84.6792 71.7229 91.1779 67.594 93.9781 70.2215C97.5226 73.5507 97.7609 79.7802 94.6718 88.2595C91.7809 96.1862 86.1911 105.318 79.7177 112.69C73.1115 120.223 66.8152 124.487 62.3429 124.487ZM33.1769 97.6573C35.3002 100.877 49.8347 122.249 61.957 123.086C66.0287 123.37 72.3271 119.122 78.8258 111.727C85.1895 104.477 90.6802 95.5124 93.5142 87.7466C95.5131 82.2655 97.0777 74.9636 93.1747 71.2963C92.1858 70.3637 88.4346 69.7319 74.986 83.8695C67.4394 91.7962 60.5274 100.532 60.4578 100.618C60.3642 100.736 60.2374 100.816 60.0978 100.845C59.9582 100.874 59.8139 100.85 59.6882 100.777L38.9776 88.7794L33.1769 97.6573Z" fill="#262424"/>
<path d="M38.7794 99.7999C38.6643 99.7999 38.5514 99.7653 38.4528 99.6997C38.3542 99.634 38.2737 99.5399 38.2199 99.4274C38.1661 99.3149 38.1411 99.1884 38.1475 99.0613C38.1539 98.9343 38.1916 98.8116 38.2564 98.7065L43.3424 90.43C43.4366 90.2754 43.5825 90.1686 43.748 90.1329C43.9135 90.0973 44.085 90.1358 44.2248 90.24C44.3646 90.3442 44.4613 90.5055 44.4935 90.6885C44.5257 90.8715 44.4909 91.0611 44.3966 91.2157L39.3023 99.4921C39.2445 99.5867 39.1666 99.6642 39.0754 99.7179C38.9843 99.7715 38.8826 99.7997 38.7794 99.7999Z" fill="#262424"/>
<path d="M36.2639 98.3708C36.9335 98.3708 37.4763 97.7706 37.4763 97.0302C37.4763 96.2898 36.9335 95.6897 36.2639 95.6897C35.5942 95.6897 35.0514 96.2898 35.0514 97.0302C35.0514 97.7706 35.5942 98.3708 36.2639 98.3708Z" fill="white"/>
<path d="M36.2638 99.0702C35.8989 99.0702 35.5422 98.9505 35.2388 98.7264C34.9354 98.5022 34.6989 98.1836 34.5593 97.8109C34.4196 97.4381 34.3831 97.0279 34.4543 96.6322C34.5255 96.2365 34.7012 95.873 34.9592 95.5877C35.2172 95.3024 35.546 95.1081 35.9039 95.0294C36.2618 94.9507 36.6328 94.9911 36.9699 95.1455C37.307 95.2999 37.5952 95.5614 37.7979 95.8969C38.0006 96.2323 38.1089 96.6267 38.1089 97.0302C38.1083 97.571 37.9137 98.0896 37.5678 98.472C37.222 98.8544 36.753 99.0695 36.2638 99.0702ZM36.2638 96.3891C36.1492 96.3891 36.037 96.4267 35.9417 96.4971C35.8463 96.5676 35.772 96.6677 35.7281 96.7848C35.6842 96.902 35.6727 97.0309 35.6951 97.1553C35.7175 97.2796 35.7727 97.3939 35.8538 97.4835C35.9349 97.5732 36.0382 97.6343 36.1507 97.659C36.2632 97.6837 36.3798 97.6711 36.4857 97.6225C36.5917 97.574 36.6823 97.4918 36.746 97.3864C36.8097 97.281 36.8437 97.157 36.8437 97.0302C36.8437 96.8602 36.7826 96.6971 36.6739 96.5768C36.5651 96.4566 36.4176 96.3891 36.2638 96.3891Z" fill="#262424"/>
<path d="M73.0124 43.6809L72.8837 49.0758L72.6729 58.3034C69.8664 60.4716 67.1357 60.7024 64.5021 58.5156L64.888 54.2282L65.472 47.7352L73.0124 43.6809Z" fill="white"/>
<path d="M68.3018 60.7491C66.8567 60.7491 65.4601 60.1903 64.112 59.0728C64.0251 59.0004 63.9565 58.9044 63.9129 58.7942C63.8693 58.6839 63.8522 58.563 63.8632 58.4433L64.8332 47.6653C64.8438 47.5466 64.8818 47.4328 64.9434 47.3349C65.005 47.2369 65.0883 47.1581 65.1853 47.1058L72.7361 43.0515C72.8339 42.999 72.9422 42.9752 73.0507 42.9824C73.1592 42.9896 73.2642 43.0277 73.3555 43.0928C73.4468 43.1579 73.5214 43.248 73.5721 43.3543C73.6228 43.4605 73.6479 43.5795 73.6449 43.6996L73.2949 58.3198C73.2923 58.4291 73.2666 58.5363 73.2197 58.6327C73.1728 58.7291 73.1061 58.8119 73.025 58.8746C71.4077 60.1219 69.8347 60.7491 68.3018 60.7491ZM65.1558 58.1845C67.3086 59.8165 69.5669 59.7279 72.0361 57.9281L72.3503 44.8163L66.054 48.1969L65.1558 58.1845Z" fill="#262424"/>
<path d="M70.404 45.0821C70.366 47.5184 70.5685 55.8065 64.6539 56.7134L65.4615 47.7376L70.404 45.0821Z" fill="#262424"/>
<path d="M58.0034 47.0055C59.2222 51.2556 61.3476 56.1865 65.9064 54.2864C71.3276 52.0273 74.1194 46.8073 73.0524 40.9019C71.9855 34.9965 68.8985 32.2408 62.6423 34.395C62.1097 34.58 61.592 34.814 61.0946 35.0944C57.6281 37.0411 56.4199 40.8343 57.3961 44.7324C57.5733 45.4342 57.7715 46.2035 58.0034 47.0055Z" fill="white"/>
<path d="M63.9918 55.4032C63.259 55.4064 62.5361 55.2162 61.8832 54.8483C59.0914 53.2817 57.7904 48.8963 56.7889 44.9073C55.5237 39.8272 57.7904 35.3323 62.4568 33.7166C62.5361 33.6892 62.6195 33.6794 62.7023 33.6876C62.7851 33.6959 62.8656 33.7221 62.9392 33.7647C63.0128 33.8074 63.0781 33.8656 63.1314 33.9362C63.1846 34.0067 63.2248 34.0882 63.2496 34.1759C63.2744 34.2636 63.2833 34.3559 63.2758 34.4474C63.2683 34.5389 63.2447 34.6279 63.2061 34.7093C63.1675 34.7907 63.1148 34.8629 63.051 34.9218C62.9872 34.9807 62.9135 35.0251 62.8342 35.0525C58.8068 36.4513 56.9133 40.1582 58.0097 44.5249C58.676 47.206 59.9243 52.1812 62.4546 53.5941C63.4014 54.1256 64.4578 54.1349 65.685 53.6244C67.6818 52.7921 69.3033 51.5564 70.5073 49.9501C70.5604 49.8794 70.6255 49.8209 70.699 49.778C70.7724 49.7351 70.8528 49.7086 70.9355 49.7C71.0183 49.6915 71.1017 49.701 71.1811 49.7281C71.2605 49.7552 71.3343 49.7994 71.3982 49.858C71.4622 49.9166 71.5151 49.9886 71.5539 50.0698C71.5927 50.1511 71.6166 50.24 71.6244 50.3314C71.6321 50.4229 71.6235 50.5152 71.599 50.6029C71.5745 50.6907 71.5345 50.7723 71.4815 50.843C70.0482 52.6952 68.2051 54.1049 66.132 54.9346C65.4502 55.2328 64.725 55.3916 63.9918 55.4032Z" fill="#262424"/>
<path d="M74.9312 41.62C74.5553 42.6089 74.1023 43.5598 73.5774 44.462L70.7878 45.3106L69.7651 43.238C69.7651 43.238 67.9559 43.5644 67.3318 42.3054C67.3161 42.2769 67.302 42.2473 67.2896 42.2168C67.1125 41.7995 66.3745 39.9298 66.0666 36.8313C66.0666 36.8313 62.1552 39.9344 59.8611 40.7527C59.0366 41.0465 57.9823 40.9159 56.9702 40.6292C54.9438 40.051 52.7108 37.1158 52.6075 34.8007V34.7564C52.4894 31.3619 54.4652 33.2736 54.4652 33.2736C54.4652 33.2736 54.4061 30.5319 55.8653 29.9957C57.3244 29.4595 58.7393 31.679 58.7393 31.679C61.4704 30.2739 64.4158 29.4483 67.4225 29.245C73.3877 28.8813 72.7867 33.6257 72.7867 33.6257C72.7867 33.6257 77.3223 34.1526 74.9312 41.62Z" fill="#262424"/>
<path d="M71.3381 44.8327C70.6296 42.4267 71.7598 39.7759 73.9338 38.9762C74.3935 38.804 74.8787 38.7304 75.3634 38.7594C78.2775 38.9436 78.9016 46.2199 72.0466 47.2363L71.3381 44.8327Z" fill="white"/>
<path d="M72.0466 47.9381C71.8789 47.9504 71.7135 47.8886 71.587 47.7662C71.4604 47.6438 71.3831 47.4708 71.3719 47.2853C71.3607 47.0998 71.4166 46.917 71.5273 46.7771C71.6381 46.6372 71.7945 46.5516 71.9623 46.5392C75.6418 45.989 76.8711 43.5924 76.812 41.7039C76.7741 40.6292 76.2554 39.5101 75.336 39.4541C74.9307 39.43 74.5249 39.4918 74.1405 39.636C73.2544 39.9781 72.5264 40.6933 72.1149 41.6259C71.7034 42.5586 71.6417 43.6332 71.9433 44.6158C71.9953 44.7924 71.9818 44.9845 71.9056 45.15C71.8295 45.3155 71.6971 45.4408 71.5374 45.4983C71.3777 45.5558 71.204 45.5408 71.0543 45.4566C70.9046 45.3725 70.7913 45.226 70.7393 45.0495C69.9127 42.2518 71.258 39.221 73.7356 38.3141C74.2715 38.1149 74.8369 38.0302 75.4014 38.0646C76.8774 38.1579 78.0013 39.6686 78.0709 41.6573C78.1636 44.3267 76.365 47.3016 72.1331 47.9334L72.0466 47.9381Z" fill="#262424"/>
<path d="M81.9633 12.0953C80.8879 12.0949 79.8497 12.5303 79.045 13.3192C78.7148 11.6225 77.8308 10.1198 76.562 9.09806C75.2932 8.07631 73.7284 7.60715 72.1665 7.78018C70.6047 7.95322 69.1552 8.75632 68.095 10.0361C67.0347 11.3159 66.438 12.9827 66.4188 14.7181C65.9592 14.3953 65.438 14.1954 64.8964 14.1343C64.3547 14.0732 63.8077 14.1526 63.2987 14.366C62.7896 14.5795 62.3326 14.9213 61.9639 15.3642C61.5952 15.8071 61.325 16.3389 61.1746 16.9175C61.0243 17.496 60.998 18.1053 61.0979 18.6971C61.1977 19.2888 61.421 19.8467 61.7499 20.3263C62.0788 20.806 62.5044 21.1943 62.9927 21.4604C63.4811 21.7264 64.0188 21.863 64.5632 21.8591H81.9718C82.5631 21.8787 83.1519 21.7667 83.7034 21.5299C84.2549 21.2931 84.7577 20.9362 85.182 20.4804C85.6064 20.0246 85.9436 19.4793 86.1736 18.8767C86.4037 18.2741 86.522 17.6265 86.5214 16.9724C86.5209 16.3183 86.4015 15.671 86.1704 15.0688C85.9392 14.4667 85.6011 13.9221 85.176 13.4672C84.7508 13.0123 84.2474 12.6565 83.6955 12.4208C83.1437 12.1851 82.5546 12.0744 81.9633 12.0953Z" fill="#88C0C2"/>
<path d="M224.16 0C222.304 0 220.524 0.815239 219.212 2.26637C217.899 3.71751 217.162 5.68567 217.162 7.73789V8.09459C216.706 7.59683 216.147 7.23079 215.533 7.02879C214.919 6.82679 214.269 6.79505 213.642 6.93637C213.014 7.0777 212.428 7.38774 211.934 7.83911C211.44 8.29048 211.055 8.86929 210.812 9.52443C210.568 10.1796 210.475 10.8909 210.539 11.5955C210.603 12.3001 210.823 12.9764 211.18 13.5647C211.537 14.1529 212.019 14.635 212.584 14.9683C213.149 15.3016 213.78 15.4759 214.421 15.4758H224.152C226.008 15.477 227.788 14.663 229.102 13.2127C230.415 11.7624 231.153 9.79477 231.154 7.74255C231.156 5.69034 230.419 3.72168 229.108 2.26967C227.796 0.817662 226.016 0.00123669 224.16 0Z" fill="#88C0C2"/>
<path d="M242.984 156.331C242.984 156.217 242.984 156.098 242.984 155.989C242.984 152.526 241.74 149.205 239.525 146.757C237.311 144.308 234.307 142.933 231.176 142.933C228.044 142.933 225.04 144.308 222.826 146.757C220.612 149.205 219.367 152.526 219.367 155.989C217.802 155.989 216.3 156.677 215.193 157.901C214.085 159.125 213.463 160.785 213.463 162.517C213.463 164.248 214.085 165.908 215.193 167.133C216.3 168.357 217.802 169.045 219.367 169.045H241.086C242.487 169.047 243.843 168.499 244.912 167.498C245.981 166.497 246.693 165.108 246.921 163.58C247.149 162.051 246.878 160.483 246.157 159.156C245.436 157.828 244.311 156.827 242.984 156.331Z" fill="#88C0C2"/>
<path d="M105.485 7.73883L110.257 2.46349L115.028 7.73883L110.257 13.0142L105.485 7.73883Z" fill="#88C0C2"/>
<path d="M13.3286 165.107L18.0998 159.832L22.871 165.107L18.0998 170.383L13.3286 165.107Z" fill="#88C0C2"/>
<path d="M235.796 93.6119L240.567 88.3365L245.338 93.6119L240.567 98.8872L235.796 93.6119Z" fill="#88C0C2"/>
<path d="M228.062 187.07L232.834 181.794L237.605 187.07L232.834 192.345L228.062 187.07Z" fill="#DE9244"/>
<path d="M99.0977 26.2468C100.408 26.2468 101.47 25.0725 101.47 23.624C101.47 22.1754 100.408 21.0012 99.0977 21.0012C97.7876 21.0012 96.7256 22.1754 96.7256 23.624C96.7256 25.0725 97.7876 26.2468 99.0977 26.2468Z" fill="#DE9244"/>
<path d="M231.159 83.9185C232.469 83.9185 233.531 82.7442 233.531 81.2956C233.531 79.8471 232.469 78.6728 231.159 78.6728C229.849 78.6728 228.786 79.8471 228.786 81.2956C228.786 82.7442 229.849 83.9185 231.159 83.9185Z" fill="#DE9244"/>
<path d="M37.4763 58.842C39.5434 58.842 41.219 56.9892 41.219 54.7038C41.219 52.4183 39.5434 50.5655 37.4763 50.5655C35.4092 50.5655 33.7335 52.4183 33.7335 54.7038C33.7335 56.9892 35.4092 58.842 37.4763 58.842Z" fill="#DE9244"/>
</svg>
