<svg width="20" height="20" viewBox="0 0 20 20" fill="none" xmlns="http://www.w3.org/2000/svg">
<g clip-path="url(#clip0_107_1069)">
<path d="M15 0H5C2.23858 0 0 2.23858 0 5V15C0 17.7614 2.23858 20 5 20H15C17.7614 20 20 17.7614 20 15V5C20 2.23858 17.7614 0 15 0Z" fill="#274591"/>
<path fill-rule="evenodd" clip-rule="evenodd" d="M5 0C2.23858 0 0 2.23858 0 5V15C0 17.7614 2.23858 20 5 20H15C17.7614 20 20 17.7614 20 15V5C20 2.23858 17.7614 0 15 0H5ZM10.5532 5C7.5 9.5 5.30741 16 10.5532 16C15.799 16 13.5 9 10.5532 5Z" fill="white"/>
<path d="M12.5 12.5C12.5 13 12.5635 14.7797 10.5 15" stroke="white" stroke-width="0.5" stroke-linecap="round"/>
</g>
<defs>
<clipPath id="clip0_107_1069">
<rect width="20" height="20" fill="white"/>
</clipPath>
</defs>
</svg>
