<svg width="13" height="13" viewBox="0 0 13 13" fill="none" xmlns="http://www.w3.org/2000/svg">
<path d="M13 12.3201L9.36866 8.68875C10.2413 7.64114 10.6764 6.29743 10.5836 4.93715C10.4907 3.57687 9.87704 2.30476 8.87014 1.38545C7.86325 0.466131 6.54069 -0.0296034 5.1776 0.00136857C3.81451 0.0323405 2.51583 0.587635 1.55173 1.55173C0.587635 2.51583 0.0323405 3.81451 0.00136857 5.1776C-0.0296034 6.54069 0.466131 7.86325 1.38545 8.87014C2.30476 9.87704 3.57687 10.4907 4.93715 10.5836C6.29743 10.6764 7.64114 10.2413 8.68875 9.36866L12.3201 13L13 12.3201ZM0.978884 5.30649C0.978884 4.45057 1.23269 3.61387 1.70822 2.9022C2.18374 2.19053 2.85962 1.63585 3.65038 1.3083C4.44115 0.980758 5.31129 0.895057 6.15076 1.06204C6.99023 1.22902 7.76134 1.64118 8.36656 2.24641C8.97179 2.85164 9.38395 3.62274 9.55093 4.46221C9.71792 5.30169 9.63222 6.17182 9.30467 6.96259C8.97712 7.75335 8.42244 8.42923 7.71077 8.90476C6.9991 9.38028 6.1624 9.63409 5.30649 9.63409C4.15912 9.63282 3.05912 9.17646 2.24782 8.36516C1.43651 7.55385 0.980157 6.45385 0.978884 5.30649Z" fill="#4A6964"/>
</svg>
