<svg width="19" height="14" viewBox="0 0 19 14" fill="none" xmlns="http://www.w3.org/2000/svg">
<path d="M0 1.75C0 1.28587 0.200178 0.840752 0.556497 0.512563C0.912816 0.184374 1.39609 0 1.9 0H17.1C17.6039 0 18.0872 0.184374 18.4435 0.512563C18.7998 0.840752 19 1.28587 19 1.75V12.25C19 12.7141 18.7998 13.1592 18.4435 13.4874C18.0872 13.8156 17.6039 14 17.1 14H1.9C1.39609 14 0.912816 13.8156 0.556497 13.4874C0.200178 13.1592 0 12.7141 0 12.25V1.75ZM3.34305 1.75L9.5 6.71212L15.657 1.75H3.34305ZM17.1 2.91287L10.126 8.53387C9.95281 8.67368 9.73033 8.75075 9.5 8.75075C9.26967 8.75075 9.04719 8.67368 8.87395 8.53387L1.9 2.91287V12.25H17.1V2.91287Z" fill="#6F9C95"/>
</svg>
