<svg width="16" height="17" viewBox="0 0 16 17" fill="none" xmlns="http://www.w3.org/2000/svg">
<path d="M2.16943 5.69492C2.16943 2.5497 4.71913 0 7.86435 0C11.0095 0 13.5592 2.5497 13.5592 5.69491V10.08V14H2.16943V10.08V5.69492Z" fill="#4A6964"/>
<path d="M13.5593 14C14.6229 14 15.2721 12.831 14.71 11.9281L13.5593 10.08V14Z" fill="#4A6964"/>
<path d="M1.05044 12.1018C0.578693 12.9542 1.19518 14 2.1694 14V10.08L1.05044 12.1018Z" fill="#4A6964"/>
<path d="M5 15C5 15.5304 5.31607 16.0391 5.87868 16.4142C6.44129 16.7893 7.20435 17 8 17C8.79565 17 9.55871 16.7893 10.1213 16.4142C10.6839 16.0391 11 15.5304 11 15H5Z" fill="#4A6964"/>
</svg>
