<svg width="185" height="229" viewBox="0 0 185 229" fill="none" xmlns="http://www.w3.org/2000/svg">
<path d="M105.444 155.105L98.4868 219.224C98.4576 219.504 98.4838 219.787 98.5634 220.055C98.6431 220.324 98.7746 220.571 98.9493 220.782C99.124 220.992 99.3381 221.161 99.5776 221.277C99.8171 221.393 100.077 221.453 100.339 221.455C100.765 221.452 101.177 221.295 101.507 221.008C101.838 220.721 102.068 220.323 102.16 219.877L115.27 155.103H105.444V155.105Z" fill="white"/>
<path d="M100.339 222.002C100.004 222.001 99.6736 221.924 99.3684 221.776C99.0631 221.629 98.7903 221.414 98.5676 221.146C98.345 220.878 98.1775 220.562 98.0762 220.22C97.9748 219.878 97.9418 219.516 97.9794 219.16L104.937 155.041C104.951 154.907 105.012 154.783 105.106 154.694C105.2 154.605 105.322 154.556 105.448 154.557H115.27C115.347 154.557 115.422 154.575 115.491 154.611C115.56 154.646 115.62 154.697 115.668 154.761C115.716 154.825 115.75 154.899 115.768 154.979C115.785 155.059 115.786 155.141 115.769 155.221L102.658 219.994C102.542 220.561 102.249 221.07 101.828 221.435C101.406 221.8 100.881 222 100.339 222.002ZM105.906 155.652L99.001 219.286C98.9841 219.644 99.0905 219.996 99.3002 220.275C99.5098 220.555 99.8079 220.741 100.138 220.8C100.468 220.859 100.806 220.786 101.089 220.594C101.372 220.403 101.579 220.107 101.671 219.762L114.646 155.652H105.906Z" fill="#262424"/>
<path d="M131.15 155.105L138.107 219.224C138.136 219.504 138.11 219.787 138.03 220.055C137.951 220.324 137.819 220.571 137.645 220.782C137.47 220.992 137.256 221.161 137.016 221.277C136.777 221.393 136.517 221.453 136.255 221.455C135.829 221.453 135.416 221.296 135.085 221.01C134.753 220.724 134.523 220.325 134.431 219.879L121.32 155.105H131.148H131.15Z" fill="white"/>
<path d="M136.253 222.002C135.71 222.001 135.185 221.801 134.762 221.436C134.34 221.071 134.047 220.562 133.93 219.994L120.82 155.221C120.803 155.141 120.804 155.059 120.821 154.979C120.839 154.899 120.873 154.825 120.921 154.761C120.968 154.697 121.029 154.646 121.098 154.611C121.167 154.575 121.242 154.557 121.318 154.557H131.146C131.272 154.556 131.394 154.605 131.488 154.694C131.582 154.783 131.643 154.907 131.657 155.041L138.615 219.16C138.652 219.517 138.619 219.878 138.518 220.22C138.416 220.563 138.249 220.878 138.026 221.146C137.803 221.415 137.53 221.629 137.224 221.777C136.919 221.924 136.588 222.001 136.253 222.002ZM121.95 155.652L134.925 219.762C135.017 220.107 135.224 220.403 135.507 220.594C135.79 220.786 136.128 220.859 136.458 220.8C136.788 220.741 137.086 220.555 137.295 220.275C137.505 219.996 137.612 219.644 137.595 219.286L130.69 155.652H121.955H121.95Z" fill="#262424"/>
<path d="M167.845 149.02H161.932L166.926 114.361H172.839L167.845 149.02Z" fill="white"/>
<path d="M167.845 149.567H161.925C161.851 149.568 161.777 149.552 161.709 149.519C161.642 149.487 161.581 149.439 161.533 149.378C161.484 149.318 161.448 149.248 161.428 149.171C161.407 149.095 161.403 149.014 161.414 148.936L166.408 114.279C166.427 114.149 166.489 114.03 166.583 113.945C166.677 113.86 166.796 113.814 166.919 113.815H172.832C172.907 113.814 172.98 113.831 173.048 113.863C173.116 113.896 173.176 113.944 173.224 114.004C173.273 114.064 173.309 114.135 173.329 114.212C173.35 114.288 173.355 114.368 173.343 114.447L168.351 149.096C168.334 149.227 168.273 149.347 168.18 149.433C168.087 149.52 167.968 149.567 167.845 149.567ZM162.528 148.472H167.408L172.245 114.911H167.365L162.528 148.472Z" fill="#262424"/>
<path d="M170.336 118.916C169.533 118.916 168.74 118.73 168.011 118.37C167.282 118.01 166.634 117.485 166.112 116.832C165.59 116.178 165.206 115.411 164.987 114.583C164.767 113.755 164.718 112.886 164.841 112.035L169.417 80.2415C169.62 78.8349 170.285 77.5525 171.293 76.626C172.3 75.6995 173.584 75.1901 174.911 75.1898C175.713 75.1901 176.506 75.3762 177.234 75.7355C177.963 76.0948 178.61 76.6188 179.132 77.2715C179.654 77.9243 180.038 78.6903 180.258 79.5171C180.478 80.3439 180.528 81.2119 180.406 82.0616L175.833 113.861C175.63 115.269 174.965 116.552 173.957 117.479C172.949 118.407 171.664 118.916 170.336 118.916Z" fill="#88C0C2"/>
<path d="M142.429 155.105L135.471 219.224C135.442 219.504 135.468 219.787 135.548 220.055C135.628 220.324 135.759 220.571 135.934 220.782C136.109 220.992 136.323 221.161 136.562 221.277C136.802 221.393 137.061 221.453 137.324 221.455C137.75 221.453 138.162 221.296 138.494 221.01C138.825 220.724 139.056 220.325 139.148 219.879L152.258 155.105H142.429Z" fill="white"/>
<path d="M137.326 222.002C136.991 222.001 136.66 221.924 136.355 221.776C136.049 221.629 135.777 221.414 135.554 221.146C135.331 220.878 135.164 220.562 135.062 220.22C134.961 219.878 134.928 219.516 134.966 219.16L141.923 155.041C141.938 154.907 141.998 154.783 142.092 154.694C142.186 154.605 142.308 154.556 142.434 154.557H152.262C152.338 154.557 152.414 154.575 152.482 154.611C152.551 154.646 152.612 154.697 152.66 154.761C152.708 154.825 152.741 154.899 152.759 154.979C152.776 155.059 152.777 155.141 152.761 155.221L139.65 219.994C139.534 220.562 139.24 221.071 138.817 221.436C138.395 221.802 137.868 222.001 137.326 222.002ZM142.883 155.652L135.979 219.286C135.962 219.644 136.068 219.996 136.278 220.275C136.488 220.555 136.786 220.741 137.116 220.8C137.445 220.859 137.784 220.786 138.067 220.594C138.349 220.403 138.557 220.107 138.649 219.762L151.623 155.652H142.883Z" fill="#262424"/>
<path d="M168.135 155.105L175.092 219.224C175.121 219.504 175.095 219.787 175.015 220.055C174.936 220.324 174.804 220.571 174.629 220.782C174.455 220.992 174.241 221.161 174.001 221.277C173.762 221.393 173.502 221.453 173.239 221.455C172.814 221.453 172.401 221.296 172.07 221.01C171.738 220.724 171.507 220.325 171.416 219.879L158.305 155.105H168.133H168.135Z" fill="white"/>
<path d="M173.238 222.002C172.695 222.001 172.169 221.801 171.747 221.436C171.325 221.071 171.031 220.562 170.915 219.994L157.804 155.22C157.788 155.14 157.789 155.057 157.806 154.977C157.824 154.897 157.858 154.823 157.905 154.759C157.953 154.696 158.014 154.644 158.083 154.609C158.151 154.573 158.227 154.555 158.303 154.555H168.131C168.257 154.554 168.379 154.603 168.473 154.692C168.567 154.781 168.627 154.905 168.642 155.039L175.599 219.158C175.637 219.515 175.604 219.877 175.503 220.219C175.402 220.562 175.234 220.877 175.011 221.146C174.788 221.414 174.515 221.629 174.21 221.777C173.904 221.924 173.573 222.001 173.238 222.002ZM158.935 155.652L171.91 219.762C172.002 220.107 172.209 220.403 172.492 220.595C172.774 220.786 173.113 220.859 173.443 220.8C173.772 220.742 174.071 220.555 174.28 220.275C174.49 219.996 174.596 219.644 174.579 219.286L167.68 155.652H158.94H158.935Z" fill="#262424"/>
<path d="M143.888 145.474H105.754C102.959 145.474 100.693 147.903 100.693 150.9C100.693 153.897 102.959 156.326 105.754 156.326H143.888C146.683 156.326 148.948 153.897 148.948 150.9C148.948 147.903 146.683 145.474 143.888 145.474Z" fill="#DE9244"/>
<path d="M167.833 145.474H142.732C139.937 145.474 137.671 147.903 137.671 150.9C137.671 153.897 139.937 156.326 142.732 156.326H167.833C170.628 156.326 172.894 153.897 172.894 150.9C172.894 147.903 170.628 145.474 167.833 145.474Z" fill="white"/>
<path d="M167.833 156.874H142.732C141.254 156.874 139.837 156.244 138.792 155.124C137.747 154.004 137.161 152.484 137.161 150.9C137.161 149.316 137.747 147.796 138.792 146.676C139.837 145.556 141.254 144.926 142.732 144.926H167.833C169.311 144.926 170.728 145.556 171.773 146.676C172.818 147.796 173.405 149.316 173.405 150.9C173.405 152.484 172.818 154.004 171.773 155.124C170.728 156.244 169.311 156.874 167.833 156.874ZM142.732 146.022C141.525 146.022 140.368 146.536 139.515 147.451C138.661 148.365 138.182 149.606 138.182 150.9C138.182 152.194 138.661 153.435 139.515 154.349C140.368 155.264 141.525 155.778 142.732 155.778H167.833C169.04 155.778 170.197 155.264 171.05 154.349C171.904 153.435 172.383 152.194 172.383 150.9C172.383 149.606 171.904 148.365 171.05 147.451C170.197 146.536 169.04 146.022 167.833 146.022H142.732Z" fill="#262424"/>
<path d="M40.889 194.081C40.889 194.081 27.3524 150.265 54.1701 122.062C54.1701 122.062 69.2375 158.756 40.889 194.081Z" fill="#88C0C2"/>
<path d="M53.1484 129.182C53.1484 129.182 44.5446 161.255 41.5802 192.304C41.5802 192.304 50.339 159.304 53.1484 129.182Z" fill="white"/>
<path d="M40.1245 194.738C40.1245 194.738 46.8928 153.843 27.5415 127.053C27.5398 127.055 19.3804 161.255 40.1245 194.738Z" fill="#DE9244"/>
<path d="M28.5902 133.742C28.5902 133.742 35.9902 163.921 39.571 193.064C39.571 193.064 32.0212 162.015 28.5902 133.742Z" fill="white"/>
<path d="M41.0133 192.912C25.0078 187.678 16.6083 158.59 16.6083 158.59L22.1319 160.032L24.5463 160.66L25.5407 160.419L30.5637 159.199C36.5862 170.884 41.0133 192.912 41.0133 192.912Z" fill="#88C0C2"/>
<path d="M38.8542 191.086C38.684 190.814 28.0522 173.905 22.1387 160.034L24.5531 160.662L25.5475 160.421C27.962 165.441 35.4522 181.255 38.8542 191.086Z" fill="white"/>
<path d="M30.5705 159.199C30.5705 159.199 19.4739 169.861 15.275 191.295C15.2189 191.581 15.0861 191.844 14.8929 192.052C14.6996 192.259 14.4542 192.401 14.1867 192.461C13.9192 192.521 13.6411 192.496 13.3866 192.39C13.132 192.283 12.912 192.099 12.7533 191.861C11.3554 189.745 9.6731 185.715 9.22869 178.309C8.43522 165.042 13.0887 157.617 15.8131 156.401C15.8131 156.401 17.3132 157.542 20.2742 158.409C21.1379 158.66 22.0139 158.86 22.8981 159.008C25.4378 159.418 28.0157 159.482 30.5705 159.199Z" fill="#88C0C2"/>
<path d="M22.8981 159.008C20.1397 163.106 14.2704 173.049 13.4293 184.576C13.4293 184.576 11.5955 170.643 20.2742 158.409C21.1379 158.66 22.0139 158.86 22.8981 159.008Z" fill="white"/>
<path d="M63.496 166.659C56.3021 189.991 42.3619 193.179 42.3619 193.179L39.8402 192.697C46.1403 181.41 49.3754 165.892 49.3754 165.892L55.0506 166.203L57.3748 166.33L63.496 166.659Z" fill="#DE9244"/>
<path d="M57.3781 166.327C53.8739 182.61 42.5491 191.585 42.3652 191.731C50.1977 182.957 53.8109 171.148 55.0539 166.201L57.3781 166.327Z" fill="white"/>
<path d="M63.3172 197.903C63.3172 197.903 61.7882 180.353 49.3754 165.892C49.3754 165.892 52.8523 164.888 58.1069 165.058C59.0178 165.087 59.9799 165.153 60.9913 165.264C63.1753 165.505 65.3367 165.941 67.4531 166.568C67.4531 166.568 72.3995 184.981 63.3172 197.903Z" fill="#DE9244"/>
<path d="M64.6657 188.165C63.9539 178.321 59.8078 168.66 58.1068 165.054C59.0178 165.084 59.9798 165.149 60.9912 165.261C66.2322 176.574 64.6657 188.165 64.6657 188.165Z" fill="white"/>
<path d="M56.4518 190.966C56.4518 190.966 55.8422 201.792 52.6939 211.366C52.0789 213.274 51.3316 215.131 50.4583 216.92C49.6722 218.545 48.7122 220.067 47.5977 221.455H34.3165C30.6284 216.974 28.4405 209.745 27.1651 203.45C26.3297 199.336 25.7608 195.164 25.4624 190.966H56.4518Z" fill="#DE9244"/>
<path d="M52.6939 211.366C52.0789 213.274 51.3316 215.131 50.4583 216.92C49.28 214.21 46.3717 210.822 39.2544 209.679C33.4362 208.746 29.5132 206.471 27.1651 203.45C26.3297 199.336 25.7608 195.164 25.4624 190.966H32.7364C33.3971 194.595 35.5391 200.867 42.4896 202.65C48.8645 204.288 51.6536 207.873 52.6939 211.366Z" fill="white"/>
<path d="M43.8517 193.476C39.234 193.319 37.8071 197.447 46.1504 200.094C54.4937 202.742 50.5775 193.704 43.8517 193.476Z" fill="white"/>
<path d="M84.3764 187.724L81.1412 201.142L86.0791 202.238L90.5062 189.002L84.3764 187.724Z" fill="white"/>
<path d="M86.0792 202.785C86.0443 202.785 86.0095 202.782 85.9753 202.774L81.0374 201.679C80.9696 201.664 80.9053 201.634 80.8485 201.592C80.7916 201.55 80.7435 201.495 80.7068 201.432C80.6702 201.369 80.6459 201.299 80.6354 201.225C80.6249 201.152 80.6285 201.077 80.6458 201.005L83.881 187.587C83.9137 187.452 83.9932 187.335 84.1033 187.261C84.2134 187.187 84.3458 187.16 84.4735 187.187L90.6033 188.465C90.6764 188.48 90.7456 188.512 90.8061 188.558C90.8665 188.605 90.9168 188.665 90.9533 188.734C90.9898 188.804 91.0116 188.881 91.0174 188.961C91.0231 189.04 91.0125 189.12 90.9864 189.195L86.5593 202.431C86.5225 202.536 86.4568 202.626 86.371 202.689C86.2852 202.752 86.1833 202.786 86.0792 202.785ZM81.7696 200.722L85.7471 201.604L89.8234 189.416L84.7493 188.359L81.7696 200.722Z" fill="#262424"/>
<path d="M60.9725 219.048V221.455H88.7081C88.7081 221.455 88.7983 220.198 88.8783 218.086C89.0486 213.931 89.2495 206.95 88.7353 199.225L79.8812 197.705C79.8812 197.705 72.282 206.183 65.5205 212.781C64.819 213.465 64.0783 214.132 63.307 214.765C61.8188 215.979 60.9725 217.484 60.9725 219.048Z" fill="#88C0C2"/>
<path d="M74.075 213.064C73.9748 213.064 73.8769 213.032 73.7933 212.973C73.7098 212.914 73.6444 212.829 73.6052 212.73C73.566 212.632 73.5548 212.523 73.5729 212.417C73.591 212.311 73.6377 212.214 73.7072 212.136C79.6309 205.551 82.2786 200.122 82.3042 200.069C82.3338 200.003 82.3754 199.944 82.4266 199.895C82.4778 199.847 82.5376 199.81 82.6023 199.787C82.6671 199.763 82.7355 199.754 82.8036 199.76C82.8717 199.766 82.9381 199.786 82.9988 199.819C83.0595 199.853 83.1133 199.899 83.157 199.955C83.2007 200.012 83.2334 200.077 83.2533 200.147C83.2732 200.217 83.2797 200.291 83.2726 200.363C83.2654 200.436 83.2447 200.507 83.2117 200.571C83.1027 200.797 80.4687 206.196 74.441 212.896C74.3936 212.949 74.3368 212.991 74.2739 213.02C74.211 213.048 74.1434 213.064 74.075 213.064Z" fill="#262424"/>
<path d="M84.3217 213.376C85.6815 213.376 86.7839 212.06 86.7839 210.437C86.7839 208.813 85.6815 207.497 84.3217 207.497C82.9619 207.497 81.8596 208.813 81.8596 210.437C81.8596 212.06 82.9619 213.376 84.3217 213.376Z" fill="white"/>
<path d="M84.3219 213.924C82.6822 213.924 81.349 212.359 81.349 210.437C81.349 208.514 82.6822 206.95 84.3219 206.95C85.9616 206.95 87.2949 208.514 87.2949 210.437C87.2949 212.359 85.9616 213.924 84.3219 213.924ZM84.3219 208.043C83.2458 208.043 82.3706 209.117 82.3706 210.435C82.3706 211.753 83.2458 212.826 84.3219 212.826C85.398 212.826 86.2732 211.753 86.2732 210.435C86.2732 209.117 85.398 208.045 84.3219 208.045V208.043Z" fill="#262424"/>
<path d="M60.9725 219.048V221.455H88.7081C88.7081 221.455 88.7983 220.198 88.8783 218.086H74.235C74.235 218.086 73.2985 211.092 65.5222 212.779C64.8207 213.464 64.08 214.13 63.3087 214.763C61.8188 215.979 60.9725 217.484 60.9725 219.048Z" fill="white"/>
<path d="M88.708 222.002H60.9725C60.837 222.002 60.7071 221.945 60.6113 221.842C60.5155 221.739 60.4617 221.6 60.4617 221.455V219.048C60.4617 217.338 61.3641 215.662 63.0038 214.329C63.7343 213.736 64.4699 213.078 65.1884 212.376C65.2565 212.309 65.34 212.264 65.4302 212.244C68.1171 211.66 70.3306 212.009 72.0078 213.276C73.7939 214.627 74.4461 216.633 74.6589 217.538H88.8885C88.9575 217.538 89.0258 217.553 89.0892 217.582C89.1527 217.611 89.21 217.654 89.2578 217.707C89.3055 217.761 89.3426 217.824 89.367 217.893C89.3913 217.962 89.4023 218.036 89.3993 218.11C89.3142 220.208 89.229 221.484 89.229 221.497C89.2191 221.636 89.1595 221.767 89.0625 221.861C88.9656 221.955 88.8387 222.005 88.708 222.002ZM61.4782 220.907H88.2364C88.2653 220.438 88.3096 219.658 88.3538 218.634H74.2452C74.1215 218.635 74.0015 218.588 73.9075 218.502C73.8136 218.416 73.7521 218.296 73.7343 218.165C73.7343 218.141 73.3648 215.638 71.405 214.163C69.9952 213.102 68.0984 212.808 65.7656 213.288C65.059 213.973 64.3354 214.616 63.6168 215.202C62.2376 216.323 61.4782 217.69 61.4782 219.048V220.907Z" fill="#262424"/>
<path d="M161.339 121.027C161.339 121.027 158.841 137.458 158.274 139.526C157.707 141.595 151.804 145.125 147.603 145.368C143.403 145.611 108.669 145.368 108.669 145.368L93.571 191.983L80.2898 188.819C80.2898 188.819 87.7204 153.502 91.3013 138.055C92.2343 134.038 92.9052 131.358 93.1164 131.006C93.3649 130.591 96.3192 129.728 100.641 128.632C114.031 125.282 140.566 119.926 140.566 119.926C140.566 119.926 144.879 111.04 152.825 111.04C160.772 111.04 162.247 115.185 161.339 121.027Z" fill="#88C0C2"/>
<path d="M97.4753 137.324C95.3418 138.575 93.0193 138.785 91.3013 138.055C92.2344 134.038 92.9052 131.358 93.1164 131.006C93.365 130.591 96.3192 129.728 100.641 128.632C100.778 128.813 100.899 129.007 101.003 129.211C102.313 131.782 100.733 135.404 97.4753 137.324Z" fill="white"/>
<path d="M152.257 133.045C152.224 133.045 152.192 133.041 152.16 133.032C150.753 132.68 149.776 131.899 149.236 130.71C147.969 127.888 149.747 123.802 149.829 123.628C149.877 123.519 149.964 123.435 150.071 123.394C150.177 123.353 150.295 123.36 150.397 123.412C150.499 123.464 150.577 123.557 150.615 123.672C150.653 123.786 150.647 123.911 150.598 124.021C150.581 124.059 148.913 127.889 150.004 130.316C150.426 131.254 151.196 131.853 152.354 132.141C152.459 132.164 152.552 132.228 152.614 132.32C152.677 132.413 152.705 132.527 152.693 132.641C152.681 132.755 152.629 132.859 152.548 132.934C152.468 133.009 152.364 133.049 152.257 133.045Z" fill="#262424"/>
<path d="M90.1657 185.867C90.0989 185.867 90.0331 185.85 89.9736 185.818C89.914 185.786 89.8623 185.739 89.8227 185.681C89.7831 185.624 89.7567 185.557 89.7456 185.487C89.7345 185.416 89.739 185.344 89.7587 185.275L102.926 139.391C102.951 139.303 103 139.226 103.067 139.168C103.134 139.111 103.215 139.077 103.3 139.07L151.438 135.201L153.311 123.019C153.318 122.958 153.336 122.899 153.365 122.846C153.394 122.792 153.432 122.746 153.478 122.709C153.524 122.672 153.577 122.646 153.632 122.631C153.688 122.617 153.746 122.614 153.802 122.624C153.859 122.634 153.913 122.656 153.961 122.689C154.01 122.722 154.051 122.765 154.084 122.816C154.116 122.867 154.139 122.924 154.15 122.984C154.162 123.044 154.162 123.106 154.15 123.166L152.219 135.705C152.204 135.806 152.157 135.899 152.087 135.968C152.017 136.037 151.926 136.079 151.831 136.087L103.644 139.959L90.5624 185.546C90.536 185.637 90.4835 185.717 90.4123 185.775C90.3411 185.832 90.2548 185.865 90.1657 185.867Z" fill="#262424"/>
<path d="M92.975 188.271C92.9441 188.271 92.9133 188.268 92.8831 188.26L82.9222 185.887C82.8147 185.858 82.7219 185.785 82.6636 185.684C82.6053 185.583 82.5861 185.462 82.61 185.346C82.634 185.23 82.6992 185.128 82.7919 185.063C82.8845 184.998 82.9972 184.974 83.1061 184.996L93.067 187.369C93.1692 187.394 93.2595 187.458 93.3204 187.549C93.3814 187.641 93.4088 187.753 93.3974 187.864C93.386 187.976 93.3367 188.079 93.2587 188.154C93.1808 188.229 93.0798 188.271 92.975 188.271Z" fill="#262424"/>
<path d="M110.261 153.472L114.448 166.584L119.132 164.585L116.035 150.922L110.261 153.472Z" fill="white"/>
<path d="M114.448 167.132C114.342 167.132 114.239 167.097 114.152 167.032C114.065 166.967 114 166.874 113.964 166.767L109.777 153.655C109.735 153.523 109.742 153.378 109.795 153.251C109.849 153.124 109.946 153.023 110.067 152.97L115.841 150.414C115.909 150.384 115.982 150.37 116.056 150.373C116.129 150.376 116.201 150.396 116.267 150.432C116.333 150.468 116.39 150.518 116.436 150.58C116.482 150.642 116.515 150.714 116.532 150.79L119.629 164.454C119.659 164.582 119.643 164.718 119.587 164.835C119.53 164.953 119.436 165.044 119.321 165.093L114.637 167.101C114.576 167.124 114.512 167.134 114.448 167.132ZM110.901 153.783L114.76 165.863L118.531 164.249L115.679 151.672L110.901 153.783Z" fill="#262424"/>
<path d="M106.8 193.436L108.034 195.444L131.191 179.075C131.191 179.075 130.621 177.98 129.609 176.154C127.62 172.583 124.201 166.634 119.808 160.49L111.635 164.445C111.635 164.445 109.643 176.006 107.378 185.505C107.143 186.491 106.868 187.484 106.544 188.472C105.931 190.374 105.996 192.131 106.8 193.436Z" fill="#88C0C2"/>
<path d="M114.387 180.801C114.355 180.801 114.324 180.798 114.293 180.792C114.227 180.778 114.164 180.751 114.108 180.712C114.052 180.673 114.003 180.622 113.965 180.563C113.927 180.504 113.901 180.437 113.887 180.366C113.873 180.296 113.872 180.223 113.884 180.153C115.451 171.158 114.875 165.063 114.869 165C114.854 164.854 114.895 164.709 114.98 164.595C115.066 164.482 115.19 164.41 115.326 164.394C115.461 164.379 115.597 164.422 115.703 164.514C115.809 164.606 115.876 164.739 115.89 164.885C115.916 165.138 116.488 171.2 114.894 180.352C114.872 180.479 114.81 180.593 114.717 180.675C114.624 180.758 114.507 180.802 114.387 180.801Z" fill="#262424"/>
<path d="M122.493 174.055C123.622 173.253 123.862 171.51 123.029 170.163C122.196 168.816 120.606 168.374 119.478 169.175C118.349 169.977 118.109 171.72 118.942 173.067C119.775 174.414 121.365 174.857 122.493 174.055Z" fill="white"/>
<path d="M122.131 175.871C121.87 175.871 121.61 175.835 121.358 175.764C120.548 175.528 119.847 174.98 119.391 174.225C118.923 173.477 118.729 172.571 118.846 171.68C118.898 171.251 119.036 170.84 119.249 170.474C119.463 170.108 119.748 169.795 120.084 169.558C120.421 169.321 120.801 169.164 121.199 169.098C121.597 169.033 122.004 169.06 122.391 169.179C123.198 169.421 123.896 169.967 124.357 170.717C124.819 171.467 125.012 172.37 124.901 173.261C124.848 173.689 124.71 174.1 124.497 174.466C124.284 174.833 124 175.146 123.665 175.386C123.209 175.706 122.676 175.875 122.131 175.871ZM121.62 170.164C121.274 170.162 120.935 170.27 120.646 170.473C120.431 170.628 120.25 170.831 120.114 171.067C119.978 171.304 119.891 171.569 119.858 171.844C119.778 172.468 119.915 173.101 120.244 173.622C120.562 174.151 121.051 174.536 121.617 174.703C121.865 174.782 122.127 174.802 122.383 174.761C122.64 174.72 122.885 174.62 123.102 174.467C123.318 174.314 123.501 174.112 123.637 173.875C123.773 173.638 123.859 173.373 123.89 173.096C123.963 172.473 123.826 171.842 123.504 171.317C123.181 170.793 122.694 170.409 122.131 170.236C121.964 170.189 121.792 170.165 121.62 170.164Z" fill="#262424"/>
<path d="M106.799 193.436L108.034 195.444L131.191 179.075C131.191 179.075 130.62 177.98 129.609 176.154L117.382 184.795C117.382 184.795 113.009 179.501 107.383 185.505C107.148 186.491 106.873 187.484 106.549 188.472C105.931 190.374 105.996 192.131 106.799 193.436Z" fill="white"/>
<path d="M108.034 195.994C107.949 195.994 107.866 195.971 107.792 195.928C107.718 195.885 107.655 195.823 107.608 195.747L106.374 193.739C105.495 192.311 105.39 190.378 106.074 188.299C106.379 187.373 106.655 186.391 106.895 185.378C106.917 185.282 106.964 185.194 107.029 185.124C108.97 183.054 111.002 182.033 113.057 182.104C115.242 182.177 116.817 183.468 117.458 184.1L129.34 175.702C129.398 175.661 129.463 175.634 129.531 175.621C129.599 175.608 129.669 175.61 129.737 175.627C129.804 175.644 129.867 175.676 129.923 175.72C129.979 175.764 130.025 175.82 130.06 175.884C131.065 177.686 131.644 178.805 131.651 178.816C131.715 178.938 131.733 179.082 131.701 179.218C131.669 179.353 131.59 179.471 131.48 179.546L108.323 195.915C108.236 195.972 108.136 195.999 108.034 195.994ZM107.848 185.792C107.608 186.783 107.338 187.746 107.036 188.657C106.461 190.405 106.525 191.996 107.225 193.129L108.179 194.681L130.517 178.895C130.3 178.486 129.936 177.808 129.449 176.928L117.668 185.255C117.565 185.328 117.442 185.359 117.32 185.342C117.198 185.325 117.085 185.261 117.004 185.162C116.988 185.144 115.398 183.271 113.004 183.196C111.291 183.149 109.549 184.019 107.848 185.792Z" fill="#262424"/>
<path d="M114.79 125.396L119.537 151.714L107.852 155.975C107.852 155.975 96.6801 134.279 93.6987 124.435C93.2117 122.834 92.9427 121.545 92.975 120.716C93.2015 114.79 98.6502 109.602 101.942 109.724C102.334 109.758 102.723 109.823 103.106 109.919C109.696 111.395 136.261 120.8 136.261 120.8L114.79 125.396Z" fill="#88C0C2"/>
<path d="M107.852 156.432C107.776 156.432 107.701 156.41 107.635 156.369C107.57 156.327 107.516 156.268 107.479 156.196C107.412 156.068 100.859 143.32 96.4945 133.038C96.4699 132.983 96.4557 132.923 96.4528 132.863C96.4499 132.802 96.4584 132.741 96.4777 132.684C96.497 132.627 96.5267 132.575 96.5652 132.53C96.6037 132.485 96.6501 132.449 96.7017 132.424C96.7533 132.399 96.8091 132.385 96.8658 132.383C96.9224 132.381 96.9789 132.392 97.0317 132.414C97.0846 132.436 97.1329 132.469 97.1737 132.511C97.2144 132.553 97.247 132.604 97.2693 132.66C101.225 141.971 106.988 153.339 108.053 155.42L119.049 151.404L114.371 125.48C114.361 125.42 114.361 125.36 114.373 125.301C114.384 125.242 114.406 125.186 114.438 125.136C114.469 125.086 114.51 125.044 114.557 125.011C114.604 124.978 114.657 124.956 114.712 124.945L135.744 120.444C135.799 120.432 135.855 120.432 135.91 120.443C135.965 120.455 136.017 120.478 136.064 120.511C136.11 120.544 136.15 120.586 136.182 120.636C136.213 120.686 136.235 120.742 136.246 120.8C136.257 120.859 136.258 120.92 136.247 120.978C136.236 121.037 136.215 121.093 136.184 121.143C136.153 121.193 136.114 121.236 136.067 121.27C136.021 121.303 135.969 121.327 135.914 121.339L115.287 125.753L119.955 151.627C119.974 151.735 119.956 151.847 119.905 151.942C119.853 152.038 119.771 152.11 119.674 152.145L107.988 156.399C107.944 156.418 107.898 156.429 107.852 156.432Z" fill="#262424"/>
<path d="M100.183 122.155C97.4208 124.727 94.8293 124.066 93.3718 123.314C93.0891 122.23 92.9427 121.343 92.9665 120.716C93.193 114.79 98.6416 109.602 101.933 109.724C102.325 109.758 102.715 109.823 103.098 109.919C103.098 109.919 103.098 109.938 103.106 109.974C103.215 110.697 104.184 118.425 100.183 122.155Z" fill="white"/>
<path d="M107.901 152.718C107.8 152.718 107.703 152.679 107.626 152.609C107.549 152.539 107.498 152.442 107.482 152.335C107.466 152.228 107.486 152.119 107.538 152.026C107.59 151.933 107.671 151.864 107.767 151.829L117.246 148.421C117.352 148.384 117.468 148.394 117.568 148.448C117.668 148.502 117.744 148.596 117.779 148.71C117.815 148.824 117.807 148.948 117.758 149.056C117.709 149.164 117.622 149.246 117.516 149.286L108.037 152.695C107.993 152.71 107.947 152.718 107.901 152.718Z" fill="#262424"/>
<path d="M113.861 148.884C113.759 148.885 113.661 148.846 113.584 148.775C113.507 148.704 113.456 148.607 113.44 148.499L109.241 120.141C109.229 120.063 109.237 119.984 109.262 119.91C109.288 119.836 109.331 119.771 109.387 119.72C109.444 119.669 109.511 119.635 109.583 119.62C109.656 119.606 109.73 119.612 109.8 119.637L120.814 123.705C120.921 123.744 121.009 123.828 121.059 123.937C121.108 124.046 121.115 124.171 121.078 124.286C121.042 124.4 120.964 124.494 120.862 124.547C120.761 124.6 120.644 124.608 120.537 124.569L110.193 120.749L114.279 148.357C114.288 148.416 114.286 148.477 114.273 148.535C114.26 148.593 114.236 148.648 114.203 148.697C114.17 148.745 114.129 148.786 114.081 148.817C114.033 148.849 113.98 148.87 113.925 148.879C113.904 148.883 113.882 148.884 113.861 148.884Z" fill="#262424"/>
<path d="M114.79 125.852C114.68 125.852 114.573 125.807 114.494 125.724L107.79 118.763C107.75 118.721 107.717 118.671 107.695 118.616C107.672 118.561 107.66 118.502 107.659 118.442C107.658 118.381 107.668 118.322 107.688 118.265C107.709 118.209 107.739 118.158 107.779 118.115C107.818 118.072 107.864 118.037 107.916 118.013C107.968 117.99 108.023 117.977 108.079 117.976C108.135 117.976 108.191 117.987 108.243 118.009C108.295 118.032 108.343 118.065 108.383 118.107L115.086 125.069C115.147 125.132 115.189 125.213 115.206 125.302C115.223 125.391 115.216 125.483 115.184 125.567C115.152 125.651 115.098 125.723 115.027 125.774C114.957 125.825 114.875 125.852 114.79 125.852Z" fill="#262424"/>
<path d="M81.6077 41.3604C81.5243 41.5555 81.5067 41.7756 81.5579 41.9831C81.6092 42.1905 81.7261 42.3725 81.8887 42.4977L89.4061 48.2778C89.5519 48.3895 89.6532 48.5558 89.6901 48.7437C89.727 48.9317 89.6968 49.1277 89.6054 49.2929C89.5545 49.3857 89.4859 49.4661 89.4041 49.5286C89.3223 49.5912 89.2291 49.6345 89.1306 49.6559C89.0321 49.6772 88.9306 49.6761 88.8325 49.6526C88.7345 49.629 88.6422 49.5836 88.5616 49.5192L86.154 47.5895C85.9539 47.4301 85.7101 47.3463 85.4609 47.3513C85.2116 47.3562 84.9709 47.4497 84.7765 47.6169C84.569 47.7946 84.4267 48.0452 84.3747 48.3244C84.3226 48.6036 84.3642 48.8936 84.4921 49.1432L86.5558 53.1779C87.199 54.4352 88.2511 55.395 89.5117 55.8744L91.0748 56.4695L92.832 59.2737L98.1666 58.056L96.2936 53.9173L94.9757 47.0948C94.8756 46.5769 94.6525 46.0956 94.3279 45.6974C94.0033 45.2992 93.5884 44.9976 93.1232 44.8218L82.677 40.8711C82.474 40.7952 82.2518 40.8033 82.054 40.8938C81.8562 40.9843 81.6971 41.1507 81.6077 41.3604Z" fill="white"/>
<path d="M92.8321 59.8214C92.7484 59.8216 92.666 59.7997 92.5921 59.7576C92.5181 59.7156 92.455 59.6548 92.4081 59.5804L90.7514 56.9314L89.3483 56.3965C87.9689 55.8729 86.8174 54.8234 86.1132 53.448L84.0427 49.4151C83.8621 49.0638 83.7991 48.6568 83.8642 48.2618C83.9292 47.8667 84.1185 47.5075 84.4005 47.2438C84.6824 46.9801 85.0401 46.8278 85.4139 46.8124C85.7878 46.7969 86.1553 46.9191 86.4554 47.1586L88.8648 49.0774C88.8888 49.0968 88.9165 49.1103 88.9459 49.117C88.9753 49.1236 89.0058 49.1232 89.035 49.1157C89.0744 49.1075 89.1106 49.0871 89.1392 49.057C89.1678 49.0268 89.1875 48.9884 89.1958 48.9463C89.2042 48.9043 89.2008 48.8606 89.1861 48.8206C89.1715 48.7806 89.1462 48.7461 89.1134 48.7214L81.5908 42.9414C81.332 42.7418 81.1459 42.4522 81.0643 42.1218C80.9826 41.7915 81.0104 41.4411 81.1429 41.1303C81.2835 40.7949 81.537 40.5287 81.8526 40.3849C82.1682 40.241 82.5229 40.2301 82.8457 40.3544L93.2952 44.3033C93.8425 44.512 94.3307 44.8678 94.7129 45.3368C95.0951 45.8057 95.3586 46.3721 95.4781 46.9815L96.7841 53.7365L98.6264 57.8132C98.6601 57.888 98.6775 57.97 98.6773 58.0531C98.6771 58.1362 98.6592 58.2181 98.6251 58.2927C98.591 58.3672 98.5415 58.4325 98.4803 58.4836C98.4192 58.5346 98.3481 58.5701 98.2723 58.5873L92.9377 59.805C92.9031 59.8144 92.8677 59.8199 92.8321 59.8214ZM85.473 47.9072C85.3656 47.9068 85.26 47.9365 85.1666 47.9934C85.0733 48.0502 84.9954 48.1322 84.9407 48.2313C84.886 48.3303 84.8564 48.443 84.8548 48.5581C84.8531 48.6732 84.8796 48.7868 84.9315 48.8875L87.0054 52.9222C87.5884 54.0613 88.5417 54.9307 89.6838 55.365L91.2469 55.9601C91.3502 55.9991 91.4392 56.0727 91.5006 56.1701L93.0671 58.6621L97.426 57.6671L95.8357 54.1619C95.8172 54.1212 95.8035 54.0783 95.7948 54.0341L94.4769 47.2116C94.3936 46.7866 94.2098 46.3916 93.9433 46.0646C93.6768 45.7376 93.3363 45.4894 92.9547 45.3439L82.5085 41.3822C82.4258 41.3505 82.3351 41.3534 82.2543 41.3903C82.1735 41.4272 82.1086 41.4954 82.0726 41.5812C82.0387 41.6607 82.0315 41.7504 82.0523 41.835C82.0731 41.9195 82.1206 41.9938 82.1867 42.045L89.7042 47.825C89.9686 48.0308 90.1459 48.3408 90.1972 48.6867C90.2484 49.0327 90.1694 49.3863 89.9775 49.6698C89.7856 49.9533 89.4965 50.1435 89.1738 50.1984C88.8511 50.2534 88.5213 50.1686 88.2569 49.9628L85.8476 48.0386C85.7395 47.952 85.6079 47.9058 85.473 47.9072Z" fill="#262424"/>
<path d="M126.859 57.8753L126.093 79.4181C126.093 79.4181 113.472 83.252 104.41 85.4263C104.009 85.5237 103.615 85.6168 103.229 85.7057C101.143 86.1973 98.9618 85.8396 97.1088 84.702C95.2557 83.5645 93.8635 81.7286 93.2032 79.5514C90.4652 70.5198 89.0979 58.8338 89.0979 58.8338C89.0979 58.8338 93.3155 55.6845 98.6791 56.5973L104.298 67.8251L126.859 57.8753Z" fill="#DE9244"/>
<path d="M104.41 85.4263C104.009 85.5237 103.615 85.6168 103.229 85.7057C101.418 86.1281 99.5281 85.9139 97.8395 85.0948C96.1509 84.2757 94.7533 82.8953 93.8536 81.1579C94.7273 80.3467 95.7891 79.8036 96.9269 79.5859C98.0647 79.3683 99.2361 79.4842 100.318 79.9214C101.399 80.3587 102.35 81.101 103.071 82.07C103.791 83.0389 104.254 84.1986 104.41 85.4263Z" fill="white"/>
<path d="M102.34 77.4098C102.276 77.4099 102.213 77.3945 102.155 77.3648C102.097 77.335 102.047 77.2917 102.007 77.238C101.967 77.1843 101.939 77.1216 101.924 77.0546C101.91 76.9877 101.91 76.9181 101.925 76.8512L103.627 68.9096C103.638 68.8495 103.66 68.7923 103.692 68.7415C103.724 68.6908 103.765 68.6474 103.813 68.614C103.861 68.5807 103.915 68.558 103.971 68.5473C104.027 68.5366 104.085 68.5382 104.141 68.5519C104.196 68.5657 104.249 68.5912 104.295 68.6272C104.341 68.6631 104.38 68.7087 104.41 68.7611C104.439 68.8136 104.459 68.8719 104.467 68.9325C104.475 68.9931 104.471 69.0549 104.457 69.114L102.754 77.0557C102.732 77.1561 102.68 77.2458 102.605 77.3101C102.529 77.3744 102.436 77.4096 102.34 77.4098Z" fill="#262424"/>
<path d="M91.2433 63.6864C91.1473 63.6864 91.0541 63.6515 90.9788 63.5876C90.9036 63.5236 90.8507 63.4343 90.8288 63.334C90.8069 63.2338 90.8173 63.1285 90.8582 63.0354C90.8992 62.9423 90.9683 62.8667 91.0543 62.821C91.2024 62.7425 94.7441 60.8968 99.6802 60.7014C99.7931 60.697 99.903 60.741 99.9857 60.8235C100.068 60.906 100.117 61.0203 100.121 61.1414C100.125 61.2624 100.084 61.3803 100.007 61.4689C99.9304 61.5576 99.8238 61.6099 99.7109 61.6142C96.8566 61.7221 94.0474 62.4097 91.4323 63.6407C91.3734 63.6714 91.3087 63.687 91.2433 63.6864Z" fill="#262424"/>
<path d="M91.8667 61.1578C92.4779 61.1578 92.9734 60.6265 92.9734 59.9711C92.9734 59.3157 92.4779 58.7845 91.8667 58.7845C91.2554 58.7845 90.7599 59.3157 90.7599 59.9711C90.7599 60.6265 91.2554 61.1578 91.8667 61.1578Z" fill="white"/>
<path d="M91.8666 61.7055C91.5467 61.7055 91.2339 61.6038 90.9679 61.4132C90.7019 61.2227 90.4946 60.9518 90.3722 60.6349C90.2497 60.318 90.2177 59.9692 90.2801 59.6328C90.3425 59.2964 90.4966 58.9873 90.7228 58.7448C90.949 58.5022 91.2373 58.337 91.551 58.2701C91.8648 58.2032 92.19 58.2375 92.4856 58.3688C92.7812 58.5001 93.0338 58.7224 93.2116 59.0076C93.3893 59.2928 93.4842 59.6281 93.4842 59.9712C93.4837 60.431 93.3132 60.8719 93.0099 61.197C92.7066 61.5222 92.2955 61.705 91.8666 61.7055ZM91.8666 59.3322C91.7487 59.3322 91.6335 59.3696 91.5355 59.4399C91.4375 59.5101 91.3611 59.6099 91.316 59.7266C91.2709 59.8434 91.2591 59.9719 91.2821 60.0958C91.3051 60.2198 91.3619 60.3336 91.4452 60.423C91.5285 60.5123 91.6347 60.5732 91.7503 60.5979C91.8659 60.6225 91.9858 60.6099 92.0947 60.5615C92.2036 60.5131 92.2966 60.4312 92.3621 60.3261C92.4276 60.2211 92.4626 60.0975 92.4626 59.9712C92.4626 59.8017 92.3998 59.6392 92.288 59.5193C92.1762 59.3995 92.0247 59.3322 91.8666 59.3322Z" fill="#262424"/>
<path d="M168.15 62.1656C168.15 62.1656 155.209 52.946 145.674 53.1286C136.139 53.3111 126.859 57.8753 126.859 57.8753C119.112 75.2191 116.709 114.031 116.709 114.031C116.709 114.031 120.966 115.603 133.021 119.661C139.663 122.48 146.591 124.455 153.662 125.545L154.872 117.815C154.917 117.53 155.063 117.274 155.28 117.101C155.497 116.928 155.767 116.852 156.035 116.888C156.172 116.906 156.304 116.954 156.424 117.027C156.544 117.101 156.649 117.199 156.734 117.316C156.818 117.433 156.88 117.567 156.916 117.71C156.952 117.853 156.961 118.003 156.943 118.149L155.991 125.859C160.29 126.356 162.711 126.171 162.711 126.171C168.332 104.811 168.15 62.1656 168.15 62.1656Z" fill="#DE9244"/>
<path d="M120.932 79.7869C120.869 79.7872 120.806 79.7723 120.749 79.7434C120.692 79.7145 120.641 79.6723 120.601 79.6199C120.561 79.5674 120.532 79.506 120.517 79.4402C120.502 79.3743 120.5 79.3056 120.513 79.2392C122.103 70.6348 123.941 63.7704 125.975 58.8356C125.995 58.7767 126.026 58.7228 126.066 58.6772C126.106 58.6317 126.154 58.5954 126.208 58.5706C126.261 58.5459 126.319 58.5332 126.377 58.5334C126.436 58.5336 126.493 58.5466 126.547 58.5717C126.6 58.5967 126.648 58.6333 126.688 58.6791C126.728 58.725 126.758 58.7791 126.778 58.838C126.797 58.897 126.805 58.9597 126.801 59.0221C126.797 59.0844 126.781 59.1453 126.754 59.2007C124.744 64.0734 122.926 70.874 121.347 79.4126C121.33 79.5171 121.278 79.6116 121.203 79.6799C121.127 79.7482 121.031 79.7861 120.932 79.7869Z" fill="#262424"/>
<path d="M155.725 58.0725C153.885 62.2824 150.617 63.8981 148.586 64.5061C148.16 61.4445 146.851 57.5686 146.851 57.5686C145.197 59.8507 144.266 62.9123 144.017 64.3235C138.935 62.6348 138.511 57.3294 138.511 57.3294C139.296 52.0551 143.665 48.2139 147.307 48.4731C155.354 49.0354 155.725 58.0725 155.725 58.0725Z" fill="white"/>
<path d="M148.586 65.0538C148.462 65.0552 148.342 65.0087 148.249 64.9227C148.155 64.8368 148.093 64.7173 148.075 64.5864C147.79 62.5453 147.096 60.0989 146.684 58.7571C145.661 60.4953 144.927 62.4101 144.513 64.4166C144.499 64.4926 144.471 64.5646 144.43 64.6281C144.389 64.6915 144.336 64.7449 144.274 64.7847C144.212 64.8246 144.143 64.8499 144.072 64.8592C144 64.8684 143.928 64.8613 143.859 64.8384C138.511 63.0602 137.998 57.4243 137.995 57.3677C137.99 57.3235 137.99 57.2787 137.995 57.2345C138.861 51.4143 143.614 47.6534 147.329 47.9236C151.727 48.2358 153.917 50.9889 154.979 53.2418C155.68 54.7447 156.104 56.3789 156.226 58.0542C156.23 58.1429 156.213 58.2312 156.178 58.3116C155.466 59.9486 154.428 61.3989 153.139 62.5613C151.849 63.7236 150.338 64.5699 148.712 65.041C148.67 65.0508 148.628 65.0551 148.586 65.0538ZM146.851 57.0209C146.956 57.0212 147.059 57.0565 147.145 57.1218C147.231 57.1872 147.296 57.2795 147.331 57.386C147.382 57.5357 148.497 60.8548 148.994 63.805C150.345 63.3324 151.592 62.571 152.659 61.5669C153.727 60.5627 154.594 59.3367 155.208 57.9629C155.127 56.842 154.336 49.5101 147.271 49.0062C144.01 48.7744 139.812 52.2815 139.025 57.3312C139.088 57.91 139.67 61.9593 143.644 63.5914C144.009 62.0414 144.904 59.3541 146.447 57.2253C146.495 57.1607 146.556 57.1085 146.626 57.0727C146.695 57.037 146.772 57.0187 146.849 57.019L146.851 57.0209Z" fill="#262424"/>
<path d="M174.552 85.5633C174.526 93.0393 174.32 102.637 172.892 109.043C171.986 113.096 170.593 115.875 168.444 116.026C166.672 116.152 164.812 115.752 162.957 115.006C154.986 111.789 145.667 101.373 144.737 99.305C143.588 96.7619 145.419 90.2954 148.228 89.8116C151.038 89.3278 159.125 94.1932 159.125 94.1932C159.125 94.1932 162.822 73.408 163.685 69.1615C164.549 64.915 168.15 62.1528 168.15 62.1528C173.241 64.6083 174.595 73.3678 174.552 85.5633Z" fill="#DE9244"/>
<path d="M148.164 100.573C148.702 100.46 149.052 99.9009 148.947 99.3241C148.841 98.7472 148.319 98.3714 147.781 98.4845C147.243 98.5977 146.893 99.1571 146.998 99.7339C147.104 100.311 147.626 100.687 148.164 100.573Z" fill="white"/>
<path d="M147.973 101.142C147.586 101.143 147.214 100.985 146.933 100.699C146.653 100.414 146.485 100.024 146.465 99.6105C146.445 99.1965 146.575 98.7902 146.827 98.4759C147.079 98.1615 147.434 97.9631 147.819 97.9219C148.203 97.8806 148.588 97.9997 148.893 98.2543C149.198 98.509 149.4 98.8797 149.457 99.2897C149.514 99.6997 149.422 100.117 149.199 100.456C148.977 100.795 148.641 101.03 148.262 101.111C148.167 101.131 148.07 101.141 147.973 101.142ZM147.973 99.0111C147.901 99.011 147.831 99.0279 147.766 99.0605C147.702 99.0931 147.645 99.1405 147.6 99.1995C147.554 99.2585 147.521 99.3275 147.504 99.4016C147.486 99.4757 147.484 99.5531 147.498 99.6282C147.51 99.6948 147.534 99.7582 147.569 99.8148C147.604 99.8714 147.649 99.92 147.702 99.9579C147.755 99.9958 147.814 100.022 147.876 100.036C147.938 100.049 148.002 100.049 148.064 100.036C148.126 100.023 148.185 99.9971 148.238 99.9595C148.291 99.9219 148.336 99.8736 148.371 99.8172C148.407 99.7608 148.431 99.6976 148.444 99.631C148.456 99.5644 148.457 99.4958 148.444 99.4292C148.423 99.312 148.365 99.2063 148.279 99.1301C148.193 99.0539 148.086 99.0119 147.974 99.0111H147.973Z" fill="#262424"/>
<path d="M162.252 115.259C162.184 115.259 162.117 115.244 162.054 115.216C154.343 111.738 145.293 101.804 144.276 99.557C143.411 97.6418 144.043 94.3483 145.078 92.2214C145.902 90.5254 146.992 89.483 148.143 89.284C150.683 88.8476 156.701 92.174 158.751 93.3625C159.418 89.6144 162.419 72.8074 163.178 69.0575C163.725 66.3719 165.291 64.2633 166.509 62.967C166.605 62.8646 166.735 62.8074 166.87 62.8079C167.006 62.8084 167.136 62.8667 167.231 62.9698C167.327 63.0729 167.38 63.2125 167.38 63.3578C167.379 63.5032 167.325 63.6424 167.229 63.7448C166.108 64.9369 164.675 66.8667 164.176 69.2911C163.324 73.4902 159.657 94.1 159.619 94.3027C159.604 94.3881 159.57 94.4683 159.52 94.5368C159.47 94.6053 159.406 94.6602 159.333 94.6967C159.259 94.7333 159.178 94.7506 159.097 94.7471C159.016 94.7437 158.937 94.7196 158.867 94.677C156.653 93.3497 150.462 89.9868 148.3 90.3593C147.472 90.5017 146.648 91.3397 145.975 92.7217C144.93 94.8723 144.576 97.7222 145.187 99.0731C145.994 100.859 154.578 110.655 162.441 114.201C162.553 114.247 162.646 114.333 162.704 114.446C162.762 114.558 162.782 114.689 162.759 114.815C162.737 114.941 162.673 115.055 162.581 115.136C162.488 115.217 162.372 115.261 162.252 115.259Z" fill="#262424"/>
<path d="M150.214 102.969C150.113 102.969 150.015 102.937 149.931 102.878C149.848 102.818 149.782 102.734 149.743 102.635C149.704 102.535 149.693 102.426 149.712 102.32C149.73 102.215 149.778 102.117 149.847 102.04C153.885 97.5962 151.525 90.8832 151.501 90.8157C151.452 90.6801 151.455 90.5292 151.51 90.3962C151.565 90.2632 151.666 90.159 151.793 90.1064C151.919 90.0539 152.06 90.0574 152.184 90.1161C152.308 90.1748 152.405 90.2839 152.454 90.4195C152.563 90.7208 155.071 97.8627 150.581 102.805C150.533 102.857 150.476 102.899 150.413 102.927C150.35 102.955 150.282 102.97 150.214 102.969Z" fill="#262424"/>
<path d="M166.978 100.63C166.895 100.63 166.812 100.608 166.738 100.566C166.664 100.523 166.601 100.462 166.554 100.388C165.047 98.2724 162.965 96.7099 160.595 95.9147C160.479 95.8753 160.38 95.7926 160.315 95.6816C160.251 95.5706 160.226 95.4386 160.244 95.3095C160.263 95.1803 160.324 95.0625 160.416 94.9773C160.509 94.8921 160.626 94.8452 160.748 94.8449C160.919 94.8449 164.814 94.8632 168.07 96.4752C168.131 96.5054 168.186 96.5482 168.231 96.6011C168.277 96.654 168.312 96.716 168.335 96.7836C168.358 96.8512 168.369 96.9229 168.366 96.9949C168.363 97.0668 168.348 97.1374 168.319 97.2027C168.291 97.2681 168.251 97.3268 168.202 97.3756C168.153 97.4244 168.095 97.4623 168.032 97.4871C167.969 97.512 167.902 97.5233 167.835 97.5204C167.768 97.5175 167.702 97.5004 167.641 97.4702C166.404 96.8865 165.102 96.4778 163.767 96.2543C166.151 97.8006 167.343 99.6756 167.413 99.7815C167.464 99.8646 167.493 99.9611 167.496 100.061C167.5 100.16 167.479 100.259 167.434 100.346C167.389 100.433 167.323 100.506 167.243 100.556C167.163 100.606 167.071 100.632 166.978 100.63Z" fill="#262424"/>
<path d="M172.892 109.05C171.986 113.103 170.593 115.882 168.445 116.034C166.672 116.16 164.813 115.76 162.957 115.013C162.917 114.777 162.89 114.54 162.875 114.301C162.796 113.022 163.074 111.746 163.673 110.637C164.272 109.528 165.166 108.635 166.24 108.072C167.314 107.509 168.521 107.301 169.705 107.475C170.89 107.65 171.999 108.198 172.892 109.05Z" fill="white"/>
<path d="M142.376 74.465L131.403 76.7731C130.865 76.8863 130.515 77.4457 130.62 78.0225L134.412 98.7449C134.518 99.3217 135.039 99.6976 135.577 99.5844L146.55 97.2762C147.088 97.1631 147.438 96.6037 147.333 96.0269L143.541 75.3045C143.435 74.7277 142.914 74.3518 142.376 74.465Z" fill="white"/>
<path d="M135.383 100.152C135.035 100.151 134.697 100.021 134.429 99.7829C134.16 99.5452 133.977 99.215 133.91 98.8486L130.118 78.1273C130.08 77.9191 130.081 77.7048 130.12 77.4968C130.159 77.2888 130.237 77.0912 130.347 76.9153C130.458 76.7394 130.6 76.5887 130.765 76.4718C130.93 76.3549 131.116 76.2742 131.31 76.2341L142.282 73.9265C142.476 73.8859 142.676 73.8868 142.87 73.9291C143.064 73.9714 143.248 74.0543 143.412 74.1729C143.576 74.2916 143.717 74.4438 143.826 74.6208C143.935 74.7978 144.01 74.9962 144.048 75.2045L147.84 95.9257C147.878 96.134 147.877 96.3481 147.837 96.556C147.798 96.7639 147.721 96.9614 147.61 97.1373C147.499 97.3131 147.357 97.4638 147.192 97.5808C147.027 97.6978 146.842 97.7787 146.648 97.8189L135.676 100.127C135.579 100.145 135.481 100.154 135.383 100.152ZM142.567 74.9927C142.535 74.9924 142.504 74.9955 142.473 75.0018L131.501 77.3094C131.438 77.3225 131.379 77.3487 131.327 77.3863C131.274 77.424 131.228 77.4725 131.193 77.5289C131.158 77.5854 131.133 77.6488 131.121 77.7155C131.109 77.7821 131.109 77.8507 131.121 77.9174L134.913 98.6386C134.938 98.7731 135.012 98.8914 135.118 98.9677C135.224 99.044 135.354 99.0721 135.48 99.0458L146.452 96.7381C146.578 96.7112 146.688 96.6322 146.759 96.5182C146.83 96.4043 146.856 96.2648 146.832 96.1302L143.04 75.4089C143.018 75.2917 142.959 75.1861 142.873 75.1103C142.786 75.0344 142.678 74.9929 142.567 74.9927Z" fill="#262424"/>
<path d="M133.989 80.4742C134.527 80.361 134.878 79.8016 134.772 79.2248C134.666 78.648 134.145 78.2721 133.607 78.3853C133.069 78.4984 132.718 79.0578 132.824 79.6346C132.929 80.2115 133.451 80.5873 133.989 80.4742Z" fill="white"/>
<path d="M133.796 81.0447C133.511 81.0438 133.233 80.9562 132.993 80.7922C132.753 80.6281 132.561 80.3943 132.44 80.118C132.319 79.8417 132.273 79.5343 132.309 79.2314C132.344 78.9285 132.459 78.6427 132.641 78.4072C132.822 78.1717 133.061 77.9961 133.332 77.901C133.602 77.8058 133.893 77.795 134.169 77.8697C134.445 77.9444 134.695 78.1016 134.891 78.3231C135.087 78.5445 135.221 78.821 135.276 79.1205C135.352 79.541 135.269 79.9766 135.045 80.3317C134.822 80.6867 134.476 80.932 134.084 81.0137C133.989 81.0338 133.893 81.0442 133.796 81.0447ZM133.796 78.9142C133.765 78.914 133.733 78.9171 133.702 78.9233C133.581 78.9481 133.474 79.0218 133.402 79.1291C133.331 79.2365 133.3 79.3692 133.317 79.5C133.334 79.6307 133.397 79.7495 133.493 79.8317C133.59 79.914 133.712 79.9534 133.835 79.9418C133.957 79.9303 134.071 79.8687 134.153 79.7697C134.234 79.6708 134.277 79.542 134.272 79.4101C134.268 79.2782 134.216 79.1531 134.128 79.0609C134.04 78.9686 133.923 78.9161 133.799 78.9142H133.796Z" fill="#262424"/>
<path d="M138.768 84.3309C137.012 84.8786 137.193 87.754 139.364 87.754C141.535 87.754 147.962 87.3433 147.026 84.5591C146.09 81.775 142.253 83.2355 138.768 84.3309Z" fill="white"/>
<path d="M139.359 88.3017C137.969 88.3017 137.215 87.3195 137.086 86.3464C137.01 85.7957 137.124 85.2344 137.406 84.7669C137.688 84.2995 138.119 83.9577 138.618 83.8051L139.371 83.566C142.696 82.5053 146.468 81.3021 147.501 84.3729C147.609 84.6621 147.648 84.9757 147.614 85.2851C147.58 85.5945 147.473 85.8897 147.305 86.1438C145.962 88.1977 140.45 88.3017 139.359 88.3017ZM138.906 84.8567C138.642 84.9336 138.413 85.1122 138.264 85.3584C138.115 85.6046 138.055 85.9011 138.097 86.1913C138.162 86.6824 138.528 87.2063 139.359 87.2063C141.771 87.2063 145.659 86.7554 146.471 85.5139C146.544 85.4037 146.59 85.2746 146.602 85.1397C146.614 85.0048 146.593 84.8688 146.541 84.7453C145.885 82.7974 143.278 83.4674 139.663 84.6175L138.906 84.8585V84.8567Z" fill="#262424"/>
<path d="M139.79 87.5715C138.1 88.3018 138.129 91.4054 139.023 94.7372C139.917 98.069 142.131 99.6665 145.238 98.845C148.346 98.0234 150.176 96.1065 149.197 91.4054C148.218 86.7043 146.893 84.5135 139.79 87.5715Z" fill="white"/>
<path d="M143.706 99.6026C141.222 99.6026 139.338 97.9285 138.523 94.8887C137.397 90.6897 137.785 87.8398 139.59 87.0639C143.181 85.5194 145.475 85.2218 147.026 86.0982C148.516 86.9398 149.149 88.707 149.686 91.2867C150.621 95.7778 149.243 98.3483 145.351 99.378C144.813 99.5238 144.261 99.5992 143.706 99.6026ZM139.97 88.0808C138.766 88.5993 138.582 91.1534 139.505 94.5875C140.346 97.724 142.335 99.0476 145.107 98.3155C148.426 97.4373 149.498 95.4072 148.683 91.5277C148.209 89.2529 147.687 87.7139 146.544 87.0694C145.298 86.3665 143.207 86.6879 139.965 88.0827L139.97 88.0808Z" fill="#262424"/>
<path d="M152.345 37.95L152.049 43.2572L151.555 52.3362C148.64 54.3737 145.861 54.5033 143.253 52.2577L143.764 48.0587L144.55 41.6871L152.345 37.95Z" fill="white"/>
<path d="M147.263 54.4503C145.749 54.4503 144.303 53.8607 142.934 52.6831C142.866 52.6243 142.813 52.5475 142.78 52.4602C142.747 52.3729 142.736 52.278 142.747 52.1847L144.051 41.605C144.063 41.5121 144.096 41.4239 144.148 41.3488C144.2 41.2737 144.27 41.2142 144.349 41.176L152.138 37.4498C152.218 37.4113 152.306 37.3957 152.393 37.4043C152.481 37.413 152.565 37.4457 152.637 37.4993C152.709 37.5529 152.767 37.6256 152.806 37.7103C152.844 37.795 152.861 37.8889 152.856 37.9829L152.068 52.3673C152.063 52.453 152.04 52.5363 151.999 52.6105C151.959 52.6847 151.903 52.7477 151.836 52.7945C150.254 53.899 148.727 54.4503 147.263 54.4503ZM143.799 52.0149C146.013 53.7968 148.397 53.7986 151.063 52.0149L151.787 38.8081L145.027 42.0432L143.799 52.0149Z" fill="#262424"/>
<path d="M149.655 39.2371C149.544 41.636 149.504 49.8132 143.471 50.4887L144.557 41.678L149.655 39.2371Z" fill="#262424"/>
<path d="M137.3 38.0815C137.711 42.4539 138.894 47.6826 143.786 46.8684C149.602 45.9008 153.362 41.4918 153.416 35.5584C153.471 29.625 150.918 26.2786 144.292 26.9577C143.728 27.0142 143.17 27.1211 142.623 27.2772C138.809 28.3726 136.892 31.7665 137.128 35.7428C137.171 36.4621 137.22 37.2581 137.3 38.0815Z" fill="white"/>
<path d="M142.812 47.5001C141.706 47.5281 140.626 47.1406 139.759 46.4047C137.321 44.3051 136.864 39.8213 136.617 35.7811C136.473 33.3457 137.079 31.1732 138.369 29.499C139.732 27.7373 141.76 26.6711 144.242 26.4155C144.378 26.4017 144.513 26.4462 144.617 26.5391C144.722 26.6321 144.789 26.7659 144.801 26.9112C144.814 27.0564 144.773 27.2012 144.686 27.3137C144.599 27.4261 144.475 27.4971 144.339 27.5109C139.997 27.9564 137.358 31.1768 137.637 35.7154C137.807 38.4649 138.107 43.5822 140.399 45.5539C141.271 46.3042 142.354 46.5598 143.707 46.3335C145.872 45.9683 147.739 45.134 149.258 43.8396C149.364 43.7493 149.5 43.7079 149.634 43.7245C149.769 43.7411 149.892 43.8144 149.976 43.9281C150.06 44.0419 150.099 44.1869 150.083 44.3312C150.068 44.4756 149.999 44.6074 149.893 44.6977C148.257 46.0925 146.173 47.0327 143.864 47.4161C143.516 47.473 143.164 47.5011 142.812 47.5001Z" fill="#262424"/>
<path d="M155.146 36.6757C154.586 37.545 153.957 38.3605 153.265 39.113L150.331 39.3083L149.706 37.0828C149.706 37.0828 147.845 36.9934 147.46 35.6478C147.45 35.6168 147.442 35.5851 147.436 35.5529C147.338 35.1111 146.956 33.143 147.235 30.0869C147.235 30.0869 142.761 32.2047 140.326 32.4803C139.451 32.5807 138.427 32.2193 137.476 31.7135C135.568 30.704 133.9 27.3721 134.24 25.1211V25.0773C134.765 21.7765 136.369 24.064 136.369 24.064C136.369 24.064 136.828 21.4059 138.38 21.216C139.931 21.0261 140.92 23.4798 140.92 23.4798C143.9 22.7352 146.985 22.5971 150.013 23.0727C156.015 24.0549 154.52 28.4876 154.52 28.4876C154.52 28.4876 158.933 30.0066 155.146 36.6757Z" fill="#262424"/>
<path d="M150.97 38.9687C150.718 36.4895 152.344 34.1873 154.654 33.9025C155.144 33.8395 155.64 33.8773 156.117 34.0139C158.981 34.8428 158.228 41.992 151.222 41.4462L150.97 38.9687Z" fill="white"/>
<path d="M151.952 42.0249C151.703 42.0249 151.447 42.0146 151.182 41.9939C151.047 41.9832 150.921 41.9153 150.832 41.805C150.743 41.6948 150.699 41.5513 150.709 41.406C150.719 41.2607 150.782 41.1257 150.885 41.0305C150.988 40.9353 151.122 40.8878 151.257 40.8985C155.107 41.1997 156.823 39.0947 157.123 37.2015C157.327 35.9108 156.847 34.7916 155.982 34.5415C155.568 34.4228 155.136 34.3899 154.71 34.4448C152.703 34.693 151.25 36.694 151.475 38.9085C151.482 38.9804 151.476 39.0532 151.458 39.1226C151.439 39.192 151.407 39.2568 151.365 39.3132C151.322 39.3695 151.27 39.4164 151.211 39.4511C151.152 39.4859 151.087 39.5077 151.02 39.5155C150.953 39.5233 150.885 39.5169 150.82 39.4965C150.755 39.4762 150.695 39.4424 150.642 39.3971C150.59 39.3517 150.546 39.2957 150.514 39.2322C150.481 39.1688 150.461 39.0991 150.454 39.0272C150.169 36.2175 152.024 33.6743 154.588 33.3585C155.142 33.288 155.704 33.3314 156.243 33.4863C157.627 33.8879 158.419 35.5274 158.116 37.3877C157.755 39.7611 155.705 42.0249 151.952 42.0249Z" fill="#262424"/>
<path d="M177.064 222.002H25.8625C25.727 222.002 25.5971 221.945 25.5013 221.842C25.4055 221.739 25.3517 221.6 25.3517 221.455C25.3517 221.309 25.4055 221.17 25.5013 221.067C25.5971 220.965 25.727 220.907 25.8625 220.907H177.064C177.199 220.907 177.329 220.965 177.425 221.067C177.521 221.17 177.574 221.309 177.574 221.455C177.574 221.6 177.521 221.739 177.425 221.842C177.329 221.945 177.199 222.002 177.064 222.002Z" fill="#262424"/>
<path d="M21.2805 222.002H13.2675C13.1321 222.002 13.0021 221.945 12.9063 221.842C12.8105 221.739 12.7567 221.6 12.7567 221.455C12.7567 221.309 12.8105 221.17 12.9063 221.067C13.0021 220.965 13.1321 220.907 13.2675 220.907H21.2805C21.416 220.907 21.5459 220.965 21.6417 221.067C21.7375 221.17 21.7913 221.309 21.7913 221.455C21.7913 221.6 21.7375 221.739 21.6417 221.842C21.5459 221.945 21.416 222.002 21.2805 222.002Z" fill="#262424"/>
<path d="M184.488 222.002H180.484C180.349 222.002 180.219 221.945 180.123 221.842C180.027 221.739 179.974 221.6 179.974 221.455C179.974 221.309 180.027 221.17 180.123 221.067C180.219 220.965 180.349 220.907 180.484 220.907H184.491C184.626 220.907 184.756 220.965 184.852 221.069C184.947 221.172 185.001 221.311 185 221.456C185 221.602 184.945 221.741 184.849 221.843C184.753 221.945 184.623 222.003 184.488 222.002Z" fill="#262424"/>
<path d="M135.459 229H67.4666C67.3311 229 67.2012 228.942 67.1054 228.84C67.0096 228.737 66.9558 228.598 66.9558 228.452C66.9558 228.307 67.0096 228.168 67.1054 228.065C67.2012 227.962 67.3311 227.905 67.4666 227.905H135.459C135.595 227.905 135.725 227.962 135.821 228.065C135.916 228.168 135.97 228.307 135.97 228.452C135.97 228.598 135.916 228.737 135.821 228.84C135.725 228.942 135.595 229 135.459 229Z" fill="#262424"/>
<path d="M58.8202 229H44.5174C44.3819 229 44.252 228.942 44.1562 228.84C44.0604 228.737 44.0066 228.598 44.0066 228.452C44.0066 228.307 44.0604 228.168 44.1562 228.065C44.252 227.962 44.3819 227.905 44.5174 227.905H58.8202C58.9557 227.905 59.0856 227.962 59.1814 228.065C59.2772 228.168 59.331 228.307 59.331 228.452C59.331 228.598 59.2772 228.737 59.1814 228.84C59.0856 228.942 58.9557 229 58.8202 229Z" fill="#262424"/>
<path d="M150.324 229H145.623C145.488 229 145.358 228.942 145.262 228.84C145.166 228.737 145.112 228.598 145.112 228.452C145.112 228.307 145.166 228.168 145.262 228.065C145.358 227.962 145.488 227.905 145.623 227.905H150.324C150.46 227.905 150.59 227.962 150.685 228.065C150.781 228.168 150.835 228.307 150.835 228.452C150.835 228.598 150.781 228.737 150.685 228.84C150.59 228.942 150.46 229 150.324 229Z" fill="#262424"/>
<path d="M84.5381 120.225H25.2836C24.5792 120.206 23.902 119.929 23.3648 119.441C22.8276 118.952 22.4628 118.28 22.3311 117.538L6.32558 10.0977C6.10423 8.61345 7.06796 7.41034 8.47781 7.41034H67.7323C68.4367 7.42915 69.1139 7.70609 69.6511 8.19505C70.1883 8.684 70.5531 9.35548 70.6848 10.0977L86.6903 117.538C86.9117 119.02 85.948 120.225 84.5381 120.225Z" fill="white"/>
<path d="M84.5381 120.773H25.2836C23.6354 120.773 22.0859 119.36 21.8271 117.624L5.82161 10.1835C5.74828 9.77062 5.76259 9.34529 5.86346 8.93911C5.96434 8.53292 6.1492 8.15629 6.40433 7.83714C6.65946 7.518 6.97832 7.26452 7.33727 7.09551C7.69622 6.9265 8.08604 6.8463 8.47784 6.86084H67.7323C69.3806 6.86084 70.93 8.2739 71.1888 10.0101L87.1944 117.45C87.2677 117.863 87.2534 118.289 87.1525 118.695C87.0516 119.101 86.8668 119.478 86.6116 119.797C86.3565 120.116 86.0377 120.369 85.6787 120.538C85.3198 120.707 84.9299 120.788 84.5381 120.773ZM8.47784 7.95623C8.23294 7.94791 7.98933 7.99739 7.76423 8.10118C7.53914 8.20498 7.33808 8.36054 7.17527 8.55688C7.02181 8.75848 6.91173 8.99391 6.85286 9.24636C6.794 9.49882 6.78781 9.76209 6.83472 10.0174L22.8402 117.458C22.9492 118.073 23.2516 118.63 23.6972 119.035C24.1428 119.441 24.7046 119.67 25.2888 119.685H84.5432C84.7881 119.693 85.0318 119.644 85.2569 119.54C85.4819 119.436 85.683 119.281 85.8458 119.084C85.9993 118.883 86.1094 118.647 86.1682 118.395C86.2271 118.142 86.2333 117.879 86.1864 117.624L70.1808 10.1835C70.0719 9.56798 69.7694 9.01107 69.3238 8.60574C68.8783 8.2004 68.3165 7.97115 67.7323 7.95623H8.47784Z" fill="#262424"/>
<path d="M78.2347 110.487H68.5292C67.8248 110.468 67.1476 110.191 66.6104 109.702C66.0732 109.214 65.7084 108.542 65.5767 107.8L62.7042 88.5354C62.4829 87.0512 63.4466 85.8481 64.8565 85.8481H74.5619C75.2664 85.8669 75.9436 86.1438 76.4808 86.6328C77.018 87.1217 77.3828 87.7932 77.5145 88.5354L80.3869 107.8C80.6083 109.284 79.6446 110.487 78.2347 110.487Z" fill="#DE9244"/>
<path d="M58.3145 110.487H48.6091C47.9046 110.468 47.2275 110.191 46.6903 109.702C46.1531 109.214 45.7882 108.542 45.6566 107.8L42.7841 88.5354C42.5627 87.0512 43.5265 85.8481 44.9363 85.8481H54.6418C55.3462 85.8669 56.0234 86.1438 56.5606 86.6328C57.0978 87.1217 57.4626 87.7932 57.5943 88.5354L60.4668 107.8C60.6864 109.284 59.7244 110.487 58.3145 110.487Z" fill="#88C0C2"/>
<path d="M38.3928 110.487H28.6873C27.9829 110.468 27.3057 110.191 26.7685 109.702C26.2313 109.214 25.8665 108.542 25.7348 107.8L22.8623 88.5354C22.641 87.0512 23.6047 85.8481 25.0146 85.8481H34.72C35.4245 85.8669 36.1017 86.1438 36.6389 86.6328C37.1761 87.1217 37.5409 87.7932 37.6725 88.5354L40.545 107.8C40.7664 109.284 39.8026 110.487 38.3928 110.487Z" fill="white"/>
<path d="M38.3928 111.035H28.6873C27.0391 111.035 25.4896 109.622 25.2308 107.886L22.3584 88.6231C22.285 88.2101 22.2993 87.7848 22.4002 87.3786C22.5011 86.9724 22.6859 86.5958 22.9411 86.2767C23.1962 85.9575 23.5151 85.704 23.874 85.535C24.233 85.366 24.6228 85.2858 25.0146 85.3004H34.7201C36.3683 85.3004 37.9178 86.7134 38.1766 88.4496L41.0491 107.712C41.1224 108.125 41.1081 108.55 41.0072 108.957C40.9063 109.363 40.7215 109.739 40.4663 110.059C40.2112 110.378 39.8923 110.631 39.5334 110.8C39.1744 110.969 38.7846 111.049 38.3928 111.035ZM25.0146 86.3885C24.7697 86.3801 24.5261 86.4296 24.301 86.5334C24.0759 86.6372 23.8748 86.7928 23.712 86.9891C23.5586 87.1907 23.4485 87.4261 23.3896 87.6786C23.3307 87.931 23.3246 88.1943 23.3715 88.4496L26.2405 107.712C26.3495 108.328 26.6519 108.885 27.0975 109.29C27.5431 109.695 28.1049 109.925 28.689 109.939H38.3945C38.6394 109.948 38.883 109.898 39.1081 109.795C39.3332 109.691 39.5343 109.535 39.6971 109.339C39.8506 109.137 39.9606 108.902 40.0195 108.649C40.0784 108.397 40.0846 108.134 40.0376 107.878L37.172 88.6231C37.0634 88.009 36.7621 87.4532 36.3183 87.0481C35.8744 86.6429 35.3147 86.4127 34.732 86.3957H25.0265L25.0146 86.3885Z" fill="#262424"/>
<path d="M80.0685 73.0903H15.7092L7.68945 19.2443H72.0487L80.0685 73.0903Z" fill="white"/>
<path d="M80.0684 73.638H15.7058C15.5831 73.6397 15.464 73.5939 15.3702 73.5091C15.2764 73.4243 15.2142 73.3061 15.195 73.1762L7.18539 19.3301C7.17373 19.2513 7.17826 19.1708 7.19865 19.0941C7.21905 19.0174 7.25482 18.9464 7.30347 18.8861C7.35212 18.8257 7.41247 18.7775 7.48031 18.7448C7.54814 18.7121 7.62183 18.6956 7.69621 18.6966H72.0588C72.1815 18.695 72.3007 18.7408 72.3944 18.8256C72.4882 18.9104 72.5504 19.0286 72.5696 19.1585L80.5911 73.0045C80.603 73.0844 80.5982 73.1661 80.5772 73.2437C80.5561 73.3214 80.5192 73.3931 80.4693 73.4536C80.4193 73.5142 80.3574 73.5621 80.2881 73.594C80.2188 73.6259 80.1438 73.6409 80.0684 73.638ZM16.1451 72.5427H79.4691L71.6127 19.792H8.28875L16.1451 72.5427Z" fill="#262424"/>
<path d="M44.2809 62.1948C33.753 57.0537 22.4861 62.1948 22.4861 62.1948L18.0454 32.4183C18.0454 32.4183 29.3123 27.2772 39.8402 32.4183L44.2809 62.1948Z" fill="#DE9244"/>
<path d="M48.2532 62.1948C57.2503 57.0537 70.048 62.1948 70.048 62.1948L65.6124 32.4183C65.6124 32.4183 52.8148 27.2772 43.8176 32.4183L48.2532 62.1948Z" fill="#DE9244"/>
<path d="M48.2533 62.2003H44.2809L39.8453 32.4183H43.8178L48.2533 62.2003Z" fill="#88C0C2"/>
<path d="M16.8007 15.7025H12.8044C12.6499 15.6976 12.5003 15.6427 12.3754 15.5449C12.2505 15.4471 12.1561 15.3112 12.1046 15.1548L10.9893 11.7299C10.9542 11.6418 10.9406 11.5456 10.9498 11.4504C10.9589 11.3551 10.9906 11.264 11.0417 11.1854C11.0928 11.1069 11.1617 11.0436 11.2419 11.0015C11.3221 10.9594 11.411 10.9399 11.5001 10.9448H16.7088C16.9023 10.9485 17.0871 11.0323 17.2245 11.1785C17.3619 11.3248 17.4412 11.5223 17.446 11.7299L17.3507 15.1548C17.3509 15.2304 17.3365 15.3052 17.3084 15.3746C17.2803 15.4439 17.2392 15.5063 17.1875 15.5577C17.1358 15.6092 17.0748 15.6486 17.0082 15.6735C16.9417 15.6984 16.871 15.7083 16.8007 15.7025Z" fill="#88C0C2"/>
<path d="M66.0619 12.3853H61.2602C61.0721 12.3804 60.8912 12.3066 60.7477 12.176C60.6042 12.0454 60.5069 11.866 60.4719 11.6678C60.4553 11.5785 60.4578 11.4863 60.4793 11.3983C60.5008 11.3102 60.5407 11.2285 60.596 11.1594C60.6513 11.0903 60.7205 11.0355 60.7984 10.9993C60.8763 10.9631 60.9608 10.9463 61.0457 10.9503H65.8558C66.044 10.9551 66.2249 11.029 66.3684 11.1596C66.5118 11.2902 66.6092 11.4695 66.6442 11.6678C66.661 11.7579 66.6583 11.8509 66.6364 11.9397C66.6144 12.0285 66.5737 12.1107 66.5175 12.18C66.4613 12.2493 66.3909 12.3038 66.3119 12.3394C66.233 12.375 66.1474 12.3907 66.0619 12.3853Z" fill="#88C0C2"/>
<path d="M66.5728 15.7025H61.7541C61.566 15.6977 61.3851 15.6238 61.2416 15.4932C61.0981 15.3627 61.0008 15.1833 60.9658 14.985C60.9492 14.8957 60.9517 14.8036 60.9732 14.7155C60.9947 14.6274 61.0346 14.5457 61.0899 14.4766C61.1452 14.4075 61.2144 14.3528 61.2923 14.3166C61.3702 14.2803 61.4547 14.2636 61.5396 14.2675H66.3515C66.5396 14.2724 66.7205 14.3462 66.864 14.4768C67.0074 14.6074 67.1048 14.7868 67.1398 14.985C67.1563 15.0737 67.1538 15.1652 67.1327 15.2527C67.1116 15.3402 67.0723 15.4215 67.0178 15.4905C66.9633 15.5594 66.8949 15.6143 66.8179 15.651C66.7409 15.6877 66.6571 15.7053 66.5728 15.7025Z" fill="#88C0C2"/>
<path d="M107.235 13.1064C108.011 12.7477 108.631 12.0876 108.97 11.2588L109.415 10.1635L109.859 11.2588C110.197 12.0883 110.814 12.7503 111.588 13.1119L112.609 13.5884L111.588 14.0649C110.814 14.4265 110.197 15.0885 109.859 15.9179L109.415 17.0133L108.97 15.9179C108.633 15.0885 108.016 14.4265 107.242 14.0649L106.221 13.5884L107.235 13.1064Z" fill="#88C0C2"/>
<path d="M0.779846 114.347C1.37232 114.07 1.84507 113.563 2.10285 112.928L2.4434 112.092L2.78394 112.928C3.04172 113.563 3.51448 114.07 4.10695 114.347L4.88679 114.712L4.10695 115.077C3.51448 115.353 3.04172 115.86 2.78394 116.495L2.4434 117.332L2.10285 116.495C1.84507 115.86 1.37232 115.353 0.779846 115.077L0 114.712L0.779846 114.347Z" fill="#DE9244"/>
<path d="M11.3299 129.529C12.2668 129.091 13.0145 128.29 13.4226 127.285L13.9606 125.961L14.4987 127.285C14.9068 128.29 15.6544 129.091 16.5913 129.529L17.8258 130.106L16.5913 130.683C15.6544 131.12 14.9068 131.922 14.4987 132.926L13.9589 134.246L13.4209 132.923C13.0128 131.918 12.2651 131.117 11.3282 130.679L10.0955 130.109L11.3299 129.529Z" fill="#88C0C2"/>
<path d="M160.59 5.02239C161.91 4.40614 162.963 3.27705 163.537 1.86217L164.295 0L165.053 1.86217C165.627 3.27705 166.681 4.40614 168 5.02239L169.737 5.83481L168 6.64723C166.681 7.26091 165.628 8.38655 165.051 9.79832L164.293 11.6605L163.536 9.79832C162.961 8.38345 161.908 7.25436 160.588 6.6381L158.851 5.82568L160.59 5.02239Z" fill="#DE9244"/>
<path d="M170.094 43.4781C171.168 43.4781 172.039 42.5447 172.039 41.3932C172.039 40.2417 171.168 39.3083 170.094 39.3083C169.02 39.3083 168.15 40.2417 168.15 41.3932C168.15 42.5447 169.02 43.4781 170.094 43.4781Z" fill="#88C0C2"/>
</svg>
